<svg viewBox="0 0 103.77 13.04" xmlns="http://www.w3.org/2000/svg" xmlns:xlink="http://www.w3.org/1999/xlink"><linearGradient id="a" gradientUnits="userSpaceOnUse" x1="65.64" x2="103.77" y1="6.52" y2="6.52"><stop offset="0" stop-color="#4f0e40"/><stop offset="1" stop-color="#842149"/></linearGradient><linearGradient id="b" x1="65.56" x2="65.56" xlink:href="#a" y1="13.04" y2="4.88"/><linearGradient id="c" gradientTransform="matrix(-1 0 0 1 86.94 0)" x1="48.81" x2="86.94" xlink:href="#a" y1="6.52" y2="6.52"/><linearGradient id="d" gradientTransform="matrix(-1 0 0 1 86.94 0)" x1="48.73" x2="48.73" xlink:href="#a" y1="13.04" y2="4.88"/><path d="m65.64 13s1.08-6.5 2.42-8.63c0 0 11.78-3 18.41-3.86 7.89-1 10.28-.36 10.28-.36s4 1.55 7 8.63c0 0-4.32-4.88-7.62-5-10.04-.43-24.33 4.5-30.49 9.22z" fill="url(#a)"/><path d="m65.64 13s-.64-5.5.66-8.12h-1.22s-.88 3.12.56 8.12z" fill="url(#b)"/><path d="m38.13 13s-1.13-6.46-2.42-8.59c0 0-11.78-3-18.41-3.86-7.89-.97-10.3-.36-10.3-.36s-4 1.55-7 8.63c0 0 4.32-4.88 7.61-5 10.07-.47 24.39 4.46 30.52 9.18z" fill="url(#c)"/><path d="m38.13 13s.62-5.54-.66-8.16h1.22s.88 3.16-.56 8.16z" fill="url(#d)"/></svg>