<svg viewBox="0 0 106.73 31.99" xmlns="http://www.w3.org/2000/svg" xmlns:xlink="http://www.w3.org/1999/xlink"><linearGradient id="a" gradientUnits="userSpaceOnUse" x1="86.2" x2="86.2" y1="31.8" y2="2.44"><stop offset="0" stop-color="#eee2ff"/><stop offset="1" stop-color="#bdc9fb"/></linearGradient><linearGradient id="b" gradientTransform="matrix(.1597089 .98716415 -.98716415 .1597089 89.09 -66.96)" gradientUnits="userSpaceOnUse" x1="83.87" x2="83.87" y1="28.98" y2="8.72"><stop offset="0" stop-color="#a93749"/><stop offset="1" stop-color="#751540"/></linearGradient><linearGradient id="c" gradientTransform="matrix(.14366535 .98962633 -.98962633 .14366535 90.47 -66.86)" gradientUnits="userSpaceOnUse" x1="83.87" x2="83.87" y1="28.39" y2="9.31"><stop offset="0" stop-color="#fe6e49"/><stop offset="1" stop-color="#751540"/></linearGradient><linearGradient id="d" gradientUnits="userSpaceOnUse" x1="83.87" x2="83.87" y1="25.04" y2="12.66"><stop offset="0" stop-color="#caa7db"/><stop offset=".99" stop-color="#8460b8"/></linearGradient><linearGradient id="e" gradientTransform="matrix(-1 0 0 1 60.36 0)" x1="39.83" x2="39.83" xlink:href="#a" y1="31.8" y2="2.44"/><linearGradient id="f" gradientTransform="matrix(-.97 -.23 -.23 .97 63.68 9.08)" x1="37.5" x2="37.5" xlink:href="#b" y1="28.98" y2="8.72"/><linearGradient id="g" gradientTransform="matrix(-.98 -.22 -.22 .98 63.58 8.67)" x1="37.5" x2="37.5" xlink:href="#c" y1="28.39" y2="9.31"/><linearGradient id="h" gradientTransform="matrix(-1 0 0 1 60.36 0)" x1="37.5" x2="37.5" xlink:href="#d" y1="25.04" y2="12.66"/><path d="m78.6 31.62s13.49 2.71 22.66-6.62l-.68-3.37s-7.35 8.61-21.98 9.99z" fill="#dd6b7c"/><path d="m71 16s2.36-13.15 13.65-15.63 17.35 8.45 17.35 8.45-18.59-14.82-31 7.18z" fill="#dd4c6a"/><path d="m70.92 26.07c1.11 5.32 9.12 7 18.34 4.7 13.27-3.38 13.82-13.28 11.83-18.7s-7.77-12.02-18.88-8.77-12.8 15.59-11.29 22.77z" fill="url(#a)"/><path d="m70.65 24.51s-1.65-13.62 10.57-18.99c10.83-4.75 18.51 2.81 20.08 7.19a9.06 9.06 0 0 0 5.43-4.1h-2.65s-7.44-8.88-18-7.26-16.63 10.09-15.43 23.16z" fill="#4e1b3d"/><path d="m70.65 24.51a23.77 23.77 0 0 0 .58 5.31c.54 1.4 7.77 1.83 7.77 1.83s-7.57-.44-8.35-7.14z" fill="#dd6b7c"/><circle cx="83.87" cy="18.85" fill="url(#b)" r="10.13" transform="matrix(.1597089 -.98716415 .98716415 .1597089 51.87 98.64)"/><circle cx="83.87" cy="18.85" fill="url(#c)" r="9.54" transform="matrix(.14366535 -.98962633 .98962633 .14366535 53.16 99.14)"/><path d="m90.06 18.85a6.19 6.19 0 1 1 -6.19-6.19 6.19 6.19 0 0 1 6.19 6.19z" fill="url(#d)"/><path d="m70.65 24.51s1-11.73 11.92-15.2c12.33-3.91 18.73 3.4 18.73 3.4s-3-10.55-16.62-8.62-14.26 13.98-14.03 20.42z" fill="#d177b8" opacity=".6"/><path d="m92.15 16.72c-.61.55 2.23.68 4.35-.16 1.9-.74 2.81-2 2.63-2.17s-4.56.19-6.98 2.33z" fill="#fff"/><path d="m90.53 17.26c-.8-.27-1.74.15-1.78.57s1 1 1.43.79.82-1.2.35-1.36z" fill="#fff"/><path d="m28.13 31.62s-13.49 2.71-22.66-6.62l.67-3.37s7.36 8.61 21.99 9.99z" fill="#dd6b7c"/><path d="m35.71 16s-2.34-13.15-13.63-15.63-17.3 8.45-17.3 8.45 18.54-14.82 30.93 7.18z" fill="#dd4c6a"/><path d="m35.81 26.07c-1.11 5.32-9.12 7-18.34 4.7-13.27-3.38-13.83-13.28-11.84-18.7s7.77-12.02 18.89-8.77 12.8 15.59 11.29 22.77z" fill="url(#e)"/><path d="m36.08 24.51s1.69-13.62-10.57-19c-10.84-4.74-18.51 2.82-20.09 7.2a9.05 9.05 0 0 1 -5.42-4.1h2.65s7.44-8.88 18-7.26 16.62 10.09 15.43 23.16z" fill="#4e1b3d"/><path d="m36.08 24.51a23.34 23.34 0 0 1 -.59 5.31c-.54 1.4-7.76 1.83-7.76 1.83s7.57-.44 8.35-7.14z" fill="#dd6b7c"/><circle cx="22.86" cy="18.85" fill="url(#f)" r="10.13" transform="matrix(.97349913 -.2286907 .2286907 .97349913 -3.71 5.73)"/><circle cx="22.86" cy="18.85" fill="url(#g)" r="9.54" transform="matrix(.97572602 -.21899481 .21899481 .97572602 -3.57 5.47)"/><path d="m16.67 18.85a6.19 6.19 0 1 0 6.19-6.19 6.19 6.19 0 0 0 -6.19 6.19z" fill="url(#h)"/><path d="m36.08 24.51s-1-11.73-11.92-15.2c-12.33-3.91-18.74 3.4-18.74 3.4s3-10.55 16.63-8.62 14.26 13.98 14.03 20.42z" fill="#d177b8" opacity=".6"/><g fill="#fff"><path d="m14.58 16.72c.61.55-2.23.68-4.35-.16-1.9-.74-2.81-2-2.63-2.17s4.56.19 6.98 2.33z"/><path d="m16.19 17.26c.81-.27 1.75.15 1.78.57s-1 1-1.42.79-.81-1.2-.36-1.36z"/></g></svg>