<svg viewBox="0 0 109.77 29.73" xmlns="http://www.w3.org/2000/svg" xmlns:xlink="http://www.w3.org/1999/xlink"><linearGradient id="a" gradientUnits="userSpaceOnUse" x1="87.39" x2="87.39" y1="29.12" y2="1.18"><stop offset="0" stop-color="#eee2ff"/><stop offset="1" stop-color="#bdc9fb"/></linearGradient><linearGradient id="b" gradientUnits="userSpaceOnUse" x1="86.85" x2="86.85" y1="27.3" y2="7.04"><stop offset="0" stop-color="#a68d18"/><stop offset="1" stop-color="#402f40"/></linearGradient><linearGradient id="c" x1="86.85" x2="86.85" xlink:href="#b" y1="26.71" y2="7.63"/><linearGradient id="d" x1="86.85" x2="86.85" xlink:href="#b" y1="23.36" y2="10.98"/><linearGradient id="e" gradientTransform="matrix(-1 0 0 1 -866.62 0)" x1="-889" x2="-889" xlink:href="#a" y1="29.12" y2="1.18"/><linearGradient id="f" gradientTransform="matrix(-1 0 0 1 -866.62 0)" x1="-889.54" x2="-889.54" xlink:href="#b" y1="27.3" y2="7.04"/><linearGradient id="g" gradientTransform="matrix(-1 0 0 1 -866.62 0)" x1="-889.54" x2="-889.54" xlink:href="#b" y1="26.71" y2="7.63"/><linearGradient id="h" gradientTransform="matrix(-1 0 0 1 -866.62 0)" x1="-889.54" x2="-889.54" xlink:href="#b" y1="23.36" y2="10.98"/><path d="m70.09 25.24c.13 1.74 11 4.5 21.49 3.76s12.73-5.71 13.07-8.23-1-19.59-13.31-19.59c-13.34 0-21.57 19.66-21.25 24.06z" fill="url(#a)"/><path d="m72.16 17.77s5.72-13.58 17.56-14.77 14 10.08 14 10.08-1.03-13.08-13.44-13.08-18.12 17.77-18.12 17.77z" fill="#dd4c6a"/><circle cx="86.85" cy="17.17" fill="url(#b)" r="10.13"/><circle cx="86.85" cy="17.17" fill="url(#c)" r="9.54"/><path d="m93 17.17a6.19 6.19 0 1 1 -6.15-6.17 6.19 6.19 0 0 1 6.15 6.17z" fill="url(#d)"/><path d="m93.62 15.38c-.61.54 2.23.67 4.35-.16 1.9-.74 2.81-2 2.63-2.18s-4.6.19-6.98 2.34z" fill="#fff"/><path d="m92 15.92c-.81-.28-1.75.14-1.79.57s1 1 1.43.78.81-1.2.36-1.35z" fill="#fff"/><path d="m70.71 21.65s.7 4.07 2.42 5.41c0 0-3.26-.9-3.35-1.54a21.17 21.17 0 0 1 .93-3.87z" fill="#dd4c6a"/><path d="m75.42 27.71a43.36 43.36 0 0 0 16.8 1.86c9.22-.85 13.6-5.43 13.6-5.43l-1.5-2.07s-2.09 5.93-11.88 6.93a45.81 45.81 0 0 1 -17.02-1.29z" fill="#dd4c6a"/><path d="m70.71 21.65s5.79-13.85 18.84-14.65 14.89 9.53 14.89 9.53-1.24-13.69-13.22-14.06-18.94 13.97-20.51 19.18z" fill="#d177b8" opacity=".6"/><path d="m71.78 18.66s6.48-14 18.4-15.07 14.4 14.18 14.4 14.18l5.19-2.62-3.59-3.22s-5.05-12.59-16.48-10.65c-11.78 2-17.92 17.38-17.92 17.38z" fill="#4e1b3d"/><path d="m39.68 25.24c-.13 1.74-11 4.5-21.49 3.76s-12.73-5.71-13.07-8.23 1-19.59 13.31-19.59c13.38 0 21.57 19.66 21.25 24.06z" fill="url(#e)"/><path d="m37.61 17.77s-5.72-13.58-17.56-14.77-14.05 10.07-14.05 10.07 1.08-13.07 13.49-13.07 18.12 17.77 18.12 17.77z" fill="#dd4c6a"/><circle cx="22.92" cy="17.17" fill="url(#f)" r="10.13"/><circle cx="22.92" cy="17.17" fill="url(#g)" r="9.54"/><path d="m16.74 17.17a6.19 6.19 0 1 0 6.18-6.17 6.19 6.19 0 0 0 -6.18 6.17z" fill="url(#h)"/><path d="m16.15 15.38c.61.54-2.23.67-4.35-.16-1.9-.74-2.8-1.96-2.63-2.22s4.56.23 6.98 2.38z" fill="#fff"/><path d="m17.76 15.92c.81-.28 1.75.14 1.79.57s-1 1-1.43.78-.8-1.2-.36-1.35z" fill="#fff"/><path d="m39.06 21.65s-.7 4.07-2.42 5.41c0 0 3.26-.9 3.35-1.54a21.17 21.17 0 0 0 -.93-3.87z" fill="#dd4c6a"/><path d="m34.35 27.71a43.36 43.36 0 0 1 -16.8 1.86c-9.22-.85-13.55-5.43-13.55-5.43l1.5-2.07s2.04 5.93 11.83 6.93a45.81 45.81 0 0 0 17.02-1.29z" fill="#dd4c6a"/><path d="m39.18 21.65s-5.79-13.85-18.84-14.65-14.89 9.57-14.89 9.57 1.23-13.73 13.22-14.1 18.94 13.97 20.51 19.18z" fill="#d177b8" opacity=".6"/><path d="m38 18.66s-6.48-14-18.4-15.07-14.41 14.18-14.41 14.18l-5.19-2.62 3.59-3.22s5.05-12.59 16.48-10.65c11.78 2 17.93 17.38 17.93 17.38z" fill="#4e1b3d"/></svg>