<svg viewBox="0 0 80.84 87.97" xmlns="http://www.w3.org/2000/svg" xmlns:xlink="http://www.w3.org/1999/xlink"><linearGradient id="a" gradientUnits="userSpaceOnUse" x1="40.45" x2="40.45" y1="87.08" y2="68"><stop offset="0" stop-color="#8d412b"/><stop offset=".23" stop-color="#8d291c"/><stop offset=".48" stop-color="#8d150f"/><stop offset=".74" stop-color="#8d0908"/><stop offset="1" stop-color="#8d0505"/></linearGradient><linearGradient id="b" x1="68.04" x2="68.04" xlink:href="#a" y1="54.03" y2="34.99"/><linearGradient id="c" gradientUnits="userSpaceOnUse" x1="68.04" x2="68.04" y1="50.77" y2="38.35"><stop offset="0" stop-color="#8d7869"/><stop offset=".99" stop-color="#5f0582"/></linearGradient><linearGradient id="d" x1="65.81" x2="65.81" xlink:href="#c" y1="49.34" y2="43.26"/><linearGradient id="e" gradientTransform="matrix(-1 0 0 1 244.92 0)" x1="232.63" x2="232.63" xlink:href="#a" y1="54.03" y2="34.99"/><linearGradient id="f" gradientTransform="matrix(-1 0 0 1 244.92 0)" x1="232.64" x2="232.64" xlink:href="#c" y1="50.77" y2="38.35"/><linearGradient id="g" gradientTransform="matrix(-1 0 0 1 244.92 0)" x1="230.4" x2="230.4" xlink:href="#c" y1="49.34" y2="43.26"/><linearGradient id="h" gradientUnits="userSpaceOnUse" x1="40.21" x2="40.21" y1="70.7" y2="3.09"><stop offset="0" stop-color="#8d3824"/><stop offset=".43" stop-color="#873927"/><stop offset=".55" stop-color="#89311d"/><stop offset=".78" stop-color="#8c2711"/><stop offset="1" stop-color="#8d240d"/></linearGradient><linearGradient id="i" x1="19.54" x2="19.54" xlink:href="#c" y1="43.24" y2="7.16"/><linearGradient id="j" gradientTransform="matrix(-1 0 0 1 592.99 0)" x1="532.12" x2="532.12" xlink:href="#c" y1="43.24" y2="7.16"/><linearGradient id="k" gradientUnits="userSpaceOnUse" x1="21.32" x2="21.32" y1="87.97"><stop offset="0" stop-color="#471f4b"/><stop offset="1" stop-color="#310a39"/></linearGradient><linearGradient id="l" x1="59.53" x2="59.53" xlink:href="#k" y1="87.97"/><path d="m20.54 85.93 42.56-.43s14.27-81.68-22.65-81.68-23 75.98-19.91 82.11z" fill="#310a39"/><path d="m48.84 80c-.17-1 0-12 0-12l-8.39 2.28-8.38-2.28s.16 11.07 0 12-11.53 5.91-11.53 5.91a176 176 0 0 0 19.91 1.15 176 176 0 0 0 19.91-1.15s-11.36-4.91-11.52-5.91z" fill="url(#a)"/><path d="m32.13 73.21s8.27 5.39 16.63 3.79l.08-9h-16.77z" fill="#5f0546" opacity=".6"/><path d="m72.41 43.74c-.13.62-.28 1.18-.43 1.68-1.11 3.57-2.79 4.41-3.46 6-.59 1.39-2.89 4.19-5.17 1.28s1.08-11.82 2-14c0 0 1.25-3.23 3.51-3.72 2.85-.55 4.68 3.26 3.55 8.76z" fill="url(#b)"/><path d="m64.12 45.41s4.55-6.6 6.72-7 1.09 5.16.65 7a11.12 11.12 0 0 1 -1.09 3 26.51 26.51 0 0 0 .66-4c.15-2.56-.66-4.76-1.58-4.55s-2.14 3.43-2.22 3.8.61 1 .57 3-1 4.14-1.51 4.12-.32-1.65-.32-3.51-1.45-1.49-2.09-.29z" fill="url(#c)" opacity=".6"/><path d="m63.94 47s1.16-1.76 1.87-1 .19 3 .73 3.29 1.26-1.53 1.12-3.18-.8-3.12-1.73-2.84l-1.81 2.12z" fill="url(#d)" opacity=".6"/><path d="m72 45.45c-1.11 3.57-2.79 4.41-3.46 6-.59 1.39-2.89 4.19-5.17 1.28a3.16 3.16 0 0 0 2.79.7c1.41-.51 1.86-1.83 2.46-2.85s2.09-1.7 3.38-5.13z" fill="#6b000a"/><path d="m7.92 43.74c.13.62.28 1.18.43 1.68 1.11 3.57 2.79 4.41 3.46 6 .59 1.39 2.89 4.19 5.17 1.28s-1.08-11.82-1.95-14c0 0-1.25-3.23-3.51-3.72-2.9-.55-4.73 3.26-3.6 8.76z" fill="url(#e)"/><path d="m16.21 45.41s-4.55-6.6-6.72-7-1.09 5.16-.65 7a11.12 11.12 0 0 0 1.09 3 26.51 26.51 0 0 1 -.66-4c-.15-2.56.66-4.76 1.58-4.55s2.14 3.43 2.22 3.8-.61 1-.57 3 1 4.14 1.51 4.12.29-1.64.29-3.5 1.45-1.49 2.09-.29z" fill="url(#f)" opacity=".6"/><path d="m16.39 47s-1.16-1.76-1.87-1-.19 3-.73 3.29-1.26-1.53-1.12-3.18.8-3.12 1.73-2.84l1.81 2.12z" fill="url(#g)" opacity=".6"/><path d="m8.36 45.45c1.11 3.57 2.79 4.41 3.46 6 .59 1.39 2.89 4.19 5.17 1.28a3.16 3.16 0 0 1 -2.79.7c-1.41-.51-1.86-1.83-2.46-2.85s-2.12-1.7-3.38-5.13z" fill="#6b000a"/><path d="m66.45 37.6c-.57 2.89-1.27 5.94-1.76 9.43-1.28 9.21-4 13.45-10.28 17.52-6.56 4.26-8.53 5.93-14.19 6.14-5.67-.21-7.63-1.88-14.19-6.14-6.27-4.06-9.03-8.3-10.29-17.55-.29-2-.65-3.95-1-5.75-.26-1.34-.54-2.63-.79-3.89a.43.43 0 0 0 0 0c-.91-4.62-1.45-8.89-.21-14 1.26-5.36 5.65-12.02 12.36-16.2a26.5 26.5 0 0 1 14.1-4.07c14.53 0 24.47 11.72 26.5 20.2 1.3 5.25.68 9.58-.25 14.31z" fill="url(#h)"/><path d="m66.44 37.61c-.57 2.89-1.27 5.94-1.76 9.43-1.28 9.21-4 13.45-10.28 17.52-6.56 4.26-8.53 5.93-14.19 6.14-5.67-.21-7.63-1.88-14.19-6.14-6.26-4.07-9.02-8.31-10.28-17.56-.5-3.58-1.23-6.69-1.81-9.64.19.72 1.69 6.64 3.16 12.65 1.57 6.46 3.91 10.4 10.82 15.31 6.46 4.56 10.23 5 12.14 5h.33c1.91 0 5.68-.4 12.14-5 6.95-4.91 9.26-8.85 10.83-15.27 1.37-5.61 2.77-11.14 3.09-12.44z" fill="#5f0546" opacity=".6"/><path d="m26.1 7.16c-.29.22-7.75 5.71-8.28 10.79s-.22 11-1.88 15.91a18.35 18.35 0 0 0 -.54 9.38c0-.11-.3-.82-.68-2-.26-1.34-.54-2.63-.79-3.89a.43.43 0 0 0 0 0c-.91-4.62-1.45-8.89-.21-14 1.28-5.35 5.67-12.01 12.38-16.19z" fill="url(#i)" opacity=".6"/><path d="m54.31 7.16c.3.22 7.75 5.71 8.29 10.79s.21 11 1.88 15.91a18.29 18.29 0 0 1 .52 9.38c0-.11.3-.82.68-2 .27-1.34.54-2.63.79-3.89a.11.11 0 0 0 0 0c.9-4.62 1.45-8.89.21-14-1.25-5.35-5.68-12.01-12.36-16.19z" fill="url(#j)" opacity=".6"/><path d="m42.63 3.2-1.73 1.35a2.78 2.78 0 0 0 -.84.48l-.19.14c-1.11.92-2.9 3.12-4.27 8.23-2.13 8-.55 17.26-.55 17.26a23.19 23.19 0 0 1 -2.56-5.46 36.58 36.58 0 0 0 .8 5.42s0 0 0 0a32.05 32.05 0 0 1 -3-15.06 21.89 21.89 0 0 1 2-7.91v-.06a1.06 1.06 0 0 1 .11-.21.89.89 0 0 1 .06-.15.16.16 0 0 0 -.06.06c-.8.89-6.36 7.86-1.78 22.06h-1.78l-.38.45-2.31 2s-6.07-2.45-4.33-16.33c0 0 0-.05 0-.07-.18.54-2.44 7.74.55 17.6l-1-1.25-.22 2.67-1.09-1.3s-.34 14.19.59 26.63c1.35 17.53 5.35 26.72 5.35 26.72s-4.15-.37-5.85-3.53c0 0 .93 3.42 2.51 4.14 0 0-3.17 2.42-9.69-.72 0 0 0 0-.05 0a28.87 28.87 0 0 1 -4.55-2.8c-.21.24-2.08 2.28-6.7 2.06-.52 0-1.06-.09-1.65-.18a2.18 2.18 0 0 0 2-1.81c.53-1.89-1.68-7.25 0-17.82s5.33-26 7.13-34.58 4.56-20 10.43-24.91 12.76-3.6 13.58-4 5.09-2.47 6.21-2.32a2.21 2.21 0 0 1 1 .6h.06a17.68 17.68 0 0 1 2.2 2.6z" fill="url(#k)"/><path d="m78.83 83.63c-.24-.83.06-2.33.33-4.66a47.58 47.58 0 0 0 -.29-13.16c-1.64-10.57-5.33-26-7.13-34.58s-4.56-20-10.44-24.91-12.75-3.6-13.57-4-5.12-2.47-6.25-2.32a2.18 2.18 0 0 0 -1 .64 17.55 17.55 0 0 0 -2.2 2.55l1.72 1.36.11.48 5.73 25.63s5.09-4.16 4.43-1.32h1.73l.37.45 3.2.56s6.08-3.07 3.43-14.95c.18.54 2.44 7.74-.55 17.6l1-1.25.23 2.67 1.09-1.3s.34 14.19-.6 26.63c-1.31 17.53-5.3 26.72-5.3 26.72s4.15-.37 5.85-3.53c0 0-.94 3.42-2.52 4.14 0 0 4.66 3.55 14.3-3.55 0 0 2.19 2.84 8.35 1.91a2.16 2.16 0 0 1 -2.02-1.81zm-27.13-59.75a25.44 25.44 0 0 0 -3.33-16.71c.28.21 5.82 4.49 3.33 16.71z" fill="url(#l)"/><g fill="#d177b8"><path d="m40.43.65-.43 3.9-.08.62c-1.11.92-2.9 3.12-4.27 8.23-2.13 8-.55 17.26-.55 17.26a23.19 23.19 0 0 1 -2.56-5.46 36.58 36.58 0 0 0 .8 5.42s0 0 0 0c-4-9.87-2.61-17.72-1.55-21.31.06-.19.12-.36.17-.53a1.14 1.14 0 0 1 .04-.3c.05-.16.1-.32.15-.46.12-.31.22-.54.28-.68a.89.89 0 0 1 .06-.15 24.62 24.62 0 0 0 1.45 17.52c-2.71-10.93 5.43-24.71 5.43-24.71l1 .6h.06z" opacity=".6"/><path d="m30.26 15.52a21.89 21.89 0 0 1 2-7.91c-.09.25-.19.55-.29.87a1.14 1.14 0 0 0 -.09.26 45.54 45.54 0 0 0 -1.62 6.78z" opacity=".9"/><path d="m33.77 3.09-1.07 3.4s-.11.26-.29.76c-.8.89-6.36 7.86-1.78 22.06a21.3 21.3 0 0 1 -3.33-11.68c0-7.13 6.47-14.54 6.47-14.54z" opacity=".9"/><path d="m22.38 33c-5.49-11-.54-17.64-.54-17.64a.06.06 0 0 1 0 0c-.19.58-2.45 7.78.54 17.64z" opacity=".6"/><path d="m16.87 20.85s-.05.17-.1.34c.05-.19.09-.29.1-.34z" opacity=".9"/><path d="m22.65 87.08s-3.17 2.42-9.65-.72c0 0 0 0-.05 0-.7-.45-6.32-4.46-7-16.89s9.58-44.47 10.82-48.28c-1.28 4.14-12.9 42.52-9.18 54.15 2.46 7.72 11.68 6.66 11.68 6.66s-2.87-3.33-3.87-13 1-30.65 1-30.65-.66 15.65-.01 29.65 8.45 17.23 8.45 17.23a73.16 73.16 0 0 1 -5.3-22.23c-1.12-13.13 0-35.12 0-35.12l.55 5.24s-.34 14.19.59 26.63c1.32 17.53 5.32 26.72 5.32 26.72s-4.15-.37-5.85-3.53c-.01 0 .92 3.42 2.5 4.14z" opacity=".9"/><path d="m8.36 83.53c-.21.24-2.08 2.28-6.7 2.06 0 0 4-.44 4-2.09s-2.86-11.63-2.37-17.69c.47-5.87 6.41-31.15 6.79-32.73-.22 1.07-2.62 12.72-4.58 27.4-2.05 15.41 2.86 23.05 2.86 23.05z" opacity=".9"/><path d="m55.59 30.35s7-12.23 0-22.35c0 0 9.72 15.83 0 22.35z" opacity=".9"/><path d="m80.84 85.44c-6.16.93-8.35-1.91-8.35-1.91-9.64 7.1-14.3 3.55-14.3 3.55 1.58-.72 2.52-4.14 2.52-4.14-1.7 3.16-5.85 3.53-5.85 3.53s4-9.19 5.3-26.72c.94-12.44.6-26.63.6-26.63s.11-2.37 1-14.84c0 0-.1 26.73-1 42.21s-1.22 20.32-1.22 20.32 6.14-6.15 6.9-19.1a49.52 49.52 0 0 1 -4.64 19.75s9.09-5.46 8.85-18.46c-.24-12.2-4.92-42-5.5-45.74.65 3.53 5.7 31.57 6.32 44.54.65 13.84-7.94 21-7.94 21s10.8-2.46 12.11-12.7c1.25-9.79-6-40.18-6.66-42.9.7 2.63 8.21 31.31 8.06 43.53l2.12 8.27c-.27 2.33-.57 3.83-.33 4.66a2.16 2.16 0 0 0 2.01 1.78z" opacity=".9"/><path d="m40.06 5s7.42 8.51 5.73 25.63c0 .03-3.53-18.77-5.73-25.63z" opacity=".6"/><path d="m48.37 7.17s7.8 5.61 1.85 22.17c0 0 8.15-13.78-1.85-22.17z" opacity=".6"/></g><path d="m34.84 10.74a32.27 32.27 0 0 0 -1.39 6.52h-.71a35 35 0 0 1 .85-6.78 1.27 1.27 0 0 1 1.25.26z" fill="#ffd4e0"/><path d="m29.66 9.27s-2.25 1.93-6.79 1.82a35.73 35.73 0 0 0 -1.22 6.17 56.55 56.55 0 0 1 5.65-.7 20.41 20.41 0 0 1 2.36-7.29z" fill="#ffd4e0"/><path d="m43.24 10.62s.76 1.22 3.27.64c0 0 1 1.31 1.6 5.72l-2.87.28a21.49 21.49 0 0 0 -2-6.64z" fill="#ffd4e0"/><path d="m51.28 10.48s3.8 1.77 6.31 1.49a19.91 19.91 0 0 1 1.07 4.1s-1.88-1.2-5.53.09a12.1 12.1 0 0 0 -1.85-5.68z" fill="#ffd4e0"/><path d="m58.76 12a28.42 28.42 0 0 0 4.06-.46c1.27-.32 1.3-2.09 1.3-2.09a30.61 30.61 0 0 1 2.52 4.46s-1.9-1.71-3-1.38-1.19 1.3-2.13 2.18a3.31 3.31 0 0 1 -1.94.93 15.54 15.54 0 0 0 -.81-3.64z" fill="#ffd4e0"/><path d="m18.2 7.61s.3 2.27 3.32 3.07a22.14 22.14 0 0 1 -1 7.57 5.13 5.13 0 0 0 -1.56-3.82c-1.72-1.59-4.86-.21-4.86-.21s2.31-4.96 4.1-6.61z" fill="#ffd4e0"/><path d="m48.92 10.48s2.15 3.53 1.94 6.19c0 0-1.32-5.34-1.94-6.19z" fill="#ffd4e0"/></svg>