<svg viewBox="0 0 111.6 24.61" xmlns="http://www.w3.org/2000/svg" xmlns:xlink="http://www.w3.org/1999/xlink"><linearGradient id="a" gradientUnits="userSpaceOnUse" x1="89.96" x2="89.96" y1="24.35" y2="2.54"><stop offset="0" stop-color="#eee2ff"/><stop offset="1" stop-color="#bdc9fb"/></linearGradient><linearGradient id="b" gradientTransform="matrix(.23089891 .97297775 -.97297775 .23089891 81.39 -77.33)" gradientUnits="userSpaceOnUse" x1="89.6" x2="89.6" y1="23.6" y2="2.03"><stop offset="0" stop-color="#471f4b"/><stop offset="1" stop-color="#310a39"/></linearGradient><linearGradient id="c" gradientTransform="matrix(.23072909 .97301803 -.97301803 .23072909 81.4 -77.33)" gradientUnits="userSpaceOnUse" x1="89.6" x2="89.6" y1="22.97" y2="2.66"><stop offset="0" stop-color="#57335b"/><stop offset="1" stop-color="#310a39"/></linearGradient><linearGradient id="d" gradientUnits="userSpaceOnUse" x1="89.6" x2="89.6" y1="19.41" y2="6.23"><stop offset="0" stop-color="#a79abd"/><stop offset=".99" stop-color="#724a60"/></linearGradient><linearGradient id="e" gradientTransform="matrix(-1 0 0 1 -248.33 0)" x1="-269.97" x2="-269.97" xlink:href="#a" y1="24.35" y2="2.54"/><linearGradient id="f" gradientTransform="matrix(-.38 -.92 -.92 .38 -68.92 -242.09)" x1="-270.33" x2="-270.33" xlink:href="#b" y1="23.6" y2="2.03"/><linearGradient id="g" gradientTransform="matrix(-.99 -.16 -.16 .99 -242.76 -43.27)" x1="-270.33" x2="-270.33" xlink:href="#c" y1="22.97" y2="2.66"/><linearGradient id="h" gradientTransform="matrix(-1 0 0 1 -248.33 0)" x1="-270.33" x2="-270.33" xlink:href="#d" y1="19.41" y2="6.23"/><path d="m107.37 14.25 2.69 1.75s-2.64 5-14.47 7.59a46.73 46.73 0 0 1 -21.78-.51s16.69 4.74 33.56-8.83z" fill="#dd6b7c"/><path d="m71.63 22c-1.44-1.8 7.48-16.23 17.84-18.79s18.29 2.73 18.79 4.79 1 10.85-13.49 15.08c-9.39 2.71-21.88.52-23.14-1.08z" fill="url(#a)"/><circle cx="89.6" cy="12.82" fill="url(#b)" r="10.79" transform="matrix(.23089891 -.97297775 .97297775 .23089891 56.45 97.04)"/><circle cx="89.6" cy="12.82" fill="url(#c)" r="10.16" transform="matrix(.23072909 -.97301803 .97301803 .23072909 56.46 97.04)"/><circle cx="89.6" cy="12.82" fill="url(#d)" r="6.59"/><path d="m71.72 20.23s6.37-16.46 18.02-19.59a16.29 16.29 0 0 1 17.74 6.17s-6.23-6.17-18-3.58c-11.04 2.42-17.76 17-17.76 17z" fill="#dd4c6a"/><path d="m71.72 20.23s6.56-13.93 18.17-16.46 18.21 3.83 18.21 3.83l3.5-3.7-2.6-.17a26.75 26.75 0 0 0 -16.26-3.07c-9.52 1.49-17.26 10.64-21.02 19.57z" fill="#4e1b3d"/><path d="m72 19.65s1.81 3.55 4.1 3.92c0 0-5-.56-5.13-1.55s1.03-2.37 1.03-2.37z" fill="#dd6b7c"/><path d="m97.19 10.56c-.65.57 2.37.71 4.63-.17 2-.8 3-2.09 2.8-2.32s-4.86.2-7.43 2.49z" fill="#fff"/><path d="m95.47 11.13c-.86-.29-1.86.15-1.9.61s1 1 1.52.83.91-1.27.38-1.44z" fill="#fff"/><path d="m72 19.65s14.56-20.45 36.26-11.65l-.16-.38s-4-6.26-16.44-4.81-18.66 14.47-19.66 16.84z" fill="#d177b8" opacity=".6"/><path d="m4.23 14.25-2.68 1.75s2.63 5 14.45 7.57a46.73 46.73 0 0 0 21.78-.51s-16.67 4.76-33.55-8.81z" fill="#dd6b7c"/><path d="m40 22c1.45-1.8-7.47-16.23-17.84-18.79s-18.32 2.73-18.82 4.79-1 10.85 13.49 15.08c9.4 2.71 21.88.52 23.17-1.08z" fill="url(#e)"/><circle cx="22" cy="12.82" fill="url(#f)" r="10.79" transform="matrix(.38010199 -.92494458 .92494458 .38010199 1.78 28.29)"/><circle cx="22" cy="12.82" fill="url(#g)" r="10.16" transform="matrix(.98699637 -.16074257 .16074257 .98699637 -1.77 3.7)"/><circle cx="22" cy="12.82" fill="url(#h)" r="6.59"/><path d="m39.88 20.23s-6.37-16.46-18.02-19.59a16.29 16.29 0 0 0 -17.74 6.17s6.24-6.17 18-3.58c11.05 2.42 17.76 17 17.76 17z" fill="#dd4c6a"/><path d="m39.88 20.23s-6.56-13.93-18.17-16.46-18.21 3.83-18.21 3.83l-3.5-3.7 2.63-.17a26.71 26.71 0 0 1 16.23-3.07c9.52 1.49 17.26 10.64 21.02 19.57z" fill="#4e1b3d"/><path d="m39.59 19.65s-1.81 3.55-4.1 3.92c0 0 5-.56 5.13-1.55s-1.03-2.37-1.03-2.37z" fill="#dd6b7c"/><path d="m14.41 10.56c.65.57-2.37.71-4.63-.17-2-.8-3-2.09-2.8-2.32s4.86.2 7.43 2.49z" fill="#fff"/><path d="m16.13 11.13c.86-.29 1.86.15 1.9.61s-1 1-1.52.83-.86-1.27-.38-1.44z" fill="#fff"/><path d="m39.59 19.65s-14.59-20.45-36.25-11.65l.16-.4s4.05-6.26 16.44-4.81 18.62 14.49 19.65 16.86z" fill="#d177b8" opacity=".6"/></svg>