<svg viewBox="0 0 65.16 88.3" xmlns="http://www.w3.org/2000/svg" xmlns:xlink="http://www.w3.org/1999/xlink"><linearGradient id="a" gradientUnits="userSpaceOnUse" x1="32.87" x2="32.87" y1="88.3" y2="69.22"><stop offset="0" stop-color="#d98d77"/><stop offset=".23" stop-color="#d97568"/><stop offset=".48" stop-color="#d9615b"/><stop offset=".74" stop-color="#d95554"/><stop offset="1" stop-color="#d95151"/></linearGradient><linearGradient id="b" x1="60.45" x2="60.45" xlink:href="#a" y1="55.25" y2="36.21"/><linearGradient id="c" gradientUnits="userSpaceOnUse" x1="60.46" x2="60.46" y1="51.99" y2="39.57"><stop offset="0" stop-color="#d9c4b5"/><stop offset=".99" stop-color="#ab51ce"/></linearGradient><linearGradient id="d" x1="58.22" x2="58.22" xlink:href="#c" y1="50.56" y2="44.48"/><linearGradient id="e" gradientTransform="matrix(-1 0 0 1 654.3 0)" x1="649.6" x2="649.6" xlink:href="#a" y1="55.25" y2="36.21"/><linearGradient id="f" gradientTransform="matrix(-1 0 0 1 654.3 0)" x1="649.6" x2="649.6" xlink:href="#c" y1="51.99" y2="39.57"/><linearGradient id="g" gradientTransform="matrix(-1 0 0 1 654.3 0)" x1="647.36" x2="647.36" xlink:href="#c" y1="50.56" y2="44.48"/><linearGradient id="h" gradientUnits="userSpaceOnUse" x1="32.62" x2="32.62" y1="71.92" y2="4.31"><stop offset="0" stop-color="#d98470"/><stop offset=".43" stop-color="#d38573"/><stop offset=".55" stop-color="#d57d69"/><stop offset=".78" stop-color="#d8735d"/><stop offset="1" stop-color="#d97059"/></linearGradient><linearGradient id="i" x1="11.96" x2="11.96" xlink:href="#c" y1="44.46" y2="8.38"/><linearGradient id="j" gradientTransform="matrix(-1 0 0 1 1002.37 0)" x1="949.08" x2="949.08" xlink:href="#c" y1="44.46" y2="8.38"/><linearGradient id="k" gradientUnits="userSpaceOnUse" x1="33.03" x2="33.03" y1="41.53"><stop offset="0" stop-color="#92314b"/><stop offset="1" stop-color="#9a2542"/></linearGradient><linearGradient id="l" x1="25.97" x2="25.97" xlink:href="#k" y1="36.18" y2="6.64"/><linearGradient id="m" x1="53" x2="53" xlink:href="#k" y1="29.7" y2="4.1"/><linearGradient id="n" x1="7.17" x2="7.17" xlink:href="#k" y1="43.17" y2="36.21"/><linearGradient id="o" gradientUnits="userSpaceOnUse" x1="47.05" x2="47.05" y1="39.57" y2=".85"><stop offset="0" stop-color="#ffeadb"/><stop offset=".99" stop-color="#d177f4"/></linearGradient><linearGradient id="p" x1="18.31" x2="18.31" xlink:href="#o" y1="41.53" y2="6.25"/><path d="m11.57 56.28s-.74 11.65 1.72 16.38c4.61 8.85 15.93 7.24 15.93 7.24l-.84.51s-12 1.53-16.38-9.6c-3.11-7.91-2.68-20.76-2.68-20.76z" fill="#772542"/><path d="m9.4 54s8.6 24.7 22.19 25.84c18.49 1.56 24.29-27.38 24.29-27.38z" fill="#772542"/><path d="m41.25 81.24c-.17-.95 0-12 0-12l-8.38 2.26-8.39-2.28s.17 11.07 0 12-11.48 5.93-11.48 5.93a176 176 0 0 0 19.87 1.15 175.92 175.92 0 0 0 19.9-1.15s-11.35-4.97-11.52-5.91z" fill="url(#a)"/><path d="m24.54 74.43s8.28 5.39 16.64 3.77l.07-9h-16.77z" fill="#ab5192" opacity=".6"/><path d="m64.82 45a17 17 0 0 1 -.43 1.68c-1.1 3.57-2.78 4.41-3.46 6-.6 1.4-2.93 4.2-5.17 1.32s1.08-11.82 2-14c0 0 1.26-3.23 3.52-3.72 2.84-.63 4.72 3.18 3.54 8.72z" fill="url(#b)"/><path d="m56.54 46.63s4.54-6.6 6.72-7 1.08 5.16.65 7a11.32 11.32 0 0 1 -1.1 3 26.51 26.51 0 0 0 .66-4c.15-2.56-.66-4.76-1.57-4.55s-2.14 3.43-2.22 3.8.6 1 .56 3-1 4.15-1.5 4.13-.3-1.64-.3-3.5-1.44-1.51-2.09-.31z" fill="url(#c)" opacity=".6"/><path d="m56.35 48.2s1.17-1.76 1.87-1 .2 3 .73 3.29 1.26-1.53 1.12-3.18-.79-3.12-1.72-2.84l-1.81 2.12z" fill="url(#d)" opacity=".6"/><path d="m64.38 46.67c-1.1 3.57-2.78 4.41-3.46 6-.59 1.41-2.92 4.21-5.16 1.33a3.14 3.14 0 0 0 2.79.7c1.4-.51 1.85-1.83 2.45-2.85s2.12-1.75 3.38-5.18z" fill="#b74556"/><path d="m.34 45a17 17 0 0 0 .43 1.68c1.1 3.57 2.78 4.41 3.46 6 .59 1.4 2.89 4.2 5.17 1.32s-1.07-11.86-1.94-14c0 0-1.26-3.23-3.52-3.72-2.94-.63-4.73 3.18-3.6 8.72z" fill="url(#e)"/><path d="m8.62 46.63s-4.55-6.63-6.72-7.03-1.08 5.16-.65 7a11.56 11.56 0 0 0 1.09 3 27.13 27.13 0 0 1 -.65-4c-.16-2.56.66-4.76 1.57-4.55s2.14 3.43 2.22 3.8-.6 1-.56 3 .99 4.15 1.5 4.15.3-1.64.3-3.5 1.45-1.5 2.09-.3z" fill="url(#f)" opacity=".6"/><path d="m8.81 48.2s-1.17-1.76-1.87-1-.2 3-.74 3.29-1.2-1.49-1.11-3.14.79-3.12 1.72-2.84l1.81 2.12z" fill="url(#g)" opacity=".6"/><path d="m.78 46.67c1.1 3.57 2.78 4.41 3.46 6 .58 1.41 2.88 4.21 5.16 1.33a3.15 3.15 0 0 1 -2.79.7c-1.41-.51-1.86-1.83-2.45-2.85s-2.16-1.75-3.38-5.18z" fill="#b74556"/><path d="m58.86 38.82c-.57 2.89-1.28 5.94-1.76 9.43-1.29 9.21-4 13.45-10.29 17.52-6.56 4.26-8.53 5.93-14.19 6.14-5.62-.2-7.62-1.91-14.19-6.13-6.25-4.07-9-8.31-10.28-17.52-.29-2-.65-3.95-1-5.75-.27-1.34-.54-2.63-.79-3.89-.9-4.62-1.45-8.89-.21-14 1.28-5.34 5.68-12 12.39-16.13a26.52 26.52 0 0 1 14.1-4.07c14.52-.11 24.46 11.58 26.49 20.09 1.26 5.25.66 9.58-.27 14.31z" fill="url(#h)"/><path d="m58.86 38.83c-.57 2.89-1.28 5.94-1.76 9.43-1.29 9.21-4 13.45-10.29 17.52-6.56 4.26-8.53 5.93-14.19 6.14-5.62-.21-7.62-1.92-14.19-6.14-6.25-4.07-9-8.31-10.28-17.52-.5-3.58-1.22-6.69-1.8-9.64.18.72 1.68 6.64 3.15 12.65 1.57 6.42 3.88 10.36 10.82 15.27 6.47 4.56 10.23 4.95 12.15 5h.32c1.92 0 5.68-.4 12.15-5 7-4.91 9.25-8.85 10.82-15.27 1.37-5.61 2.77-11.14 3.1-12.44z" fill="#ab5192" opacity=".6"/><path d="m18.51 8.38c-.29.22-7.74 5.71-8.28 10.79s-.21 11-1.88 15.91a18.29 18.29 0 0 0 -.53 9.38c0-.11-.3-.82-.68-2-.27-1.34-.54-2.63-.79-3.89-.9-4.62-1.45-8.89-.21-14 1.28-5.34 5.68-12 12.39-16.13z" fill="url(#i)" opacity=".6"/><path d="m46.73 8.38c.27.22 7.75 5.71 8.27 10.79s.22 11 1.88 15.91a18.48 18.48 0 0 1 .54 9.38c0-.11.3-.82.68-2 .26-1.34.54-2.63.79-3.89a.07.07 0 0 1 0 0c.91-4.62 1.45-8.89.21-14-1.27-5.34-5.68-12-12.39-16.13z" fill="url(#j)" opacity=".6"/><path d="m61.52 32.4a22.71 22.71 0 0 1 -2.81 7.17s1.23-8.44-1.3-12.74-11.21-12.59-14.92-17.93l-.08-.11-.27-.41s-6.14-1.07-10.14-.02h-.09a16.8 16.8 0 0 0 -4.86 2.33l-.55.38c-3.46 2.49-7.25 6.79-9.59 13.75-3.71 11-10 16.69-10 16.69a27.88 27.88 0 0 1 -2.91-14.45 31.14 31.14 0 0 1 1.4-7.64c2.32-7.56 16-14.12 23.37-16.59s12.07-3.17 13.12-2.68 1.47 3.24 1.61 4v.17s.24.09.67.28c2.65 1.1 12.5 5.57 15.88 12.33a14.52 14.52 0 0 1 1.07 2.84.16.16 0 0 0 0 .05v.05l.41 1.71a29 29 0 0 1 -.01 10.82z" fill="url(#k)"/><path d="m42.14 8.38s-6.49-3.92-13.14 0c-5.48 3.24-4.27 25.93-19.15 24.84-1.27 1.46 1.53 2.32 0 3 0 0 7-1.53 10.36-6.4s6.64-14.82 11.47-19.24c3.91-3.58 10.73-1.79 10.73-1.79z" fill="url(#l)"/><path d="m43.52 4.81s9.43 2.11 15.34 8 2.34 16.19 2.34 16.19l-.1.72s4.25-10.33-1.62-17.1-16.07-8.52-16.07-8.52z" fill="url(#m)"/><path d="m8.02 36.21-.72 6.96-.97-4.62z" fill="url(#n)"/><path d="m61.52 32.4a22.71 22.71 0 0 1 -2.81 7.17s1.23-8.44-1.3-12.74-11.21-12.59-14.92-17.93l-.08-.11-.27-.41s-6.14-1.07-10.14-.02c2.84-4 5.31-6.95 7.78-7.44 3.22-.63 3.63 3.18 3.63 3.18h.09l.9.17-.21.28a3.51 3.51 0 0 0 -.78 2.06c.15.89 5.35 9.58 10.54 13.74s7.19 4.37 7.19 4.37a13.68 13.68 0 0 0 0-4.9l.41 1.71a29 29 0 0 1 -.03 10.87z" fill="url(#o)"/><path d="m32.62 6.25a12.21 12.21 0 0 0 -5.54 4.46v-.71l-.55 1.06c-3.46 2.49-7.25 6.79-9.59 13.75-3.71 11-10 16.69-10 16.69a27.88 27.88 0 0 1 -2.94-14.44c0 1 .38 6 1.57 5s3-4.55 4.6-10.1c1.63-5.35 8.4-10.13 8.83-10.43-.38.34-6.51 5.86-7.67 13.12-1.21 7.47-2.53 12.27-2.53 12.27 3.26-5.74 4.58-14.75 11.07-22.3s12.75-8.37 12.75-8.37z" fill="url(#p)"/><g fill="#ffd9bb"><path d="m47.05 12.64s3.55 4.6 4.67 5.7a1.66 1.66 0 0 1 .28-1.85c.78-.78 3.67-.44 4.87-1a2.69 2.69 0 0 0 1.47-1.29 34 34 0 0 0 -2.77-2.84 3 3 0 0 1 .15 2.11c-.4.95-4.13.27-5.17.53s-3.5-1.36-3.5-1.36z"/><path d="m24.34 18.34s1.46-4.91 2.1-6.27a12.32 12.32 0 0 0 2.89-.31 48.65 48.65 0 0 0 -3.78 6.58z"/><path d="m10.41 12.67a12 12 0 0 1 4.57.54l4.55-2.86a24.16 24.16 0 0 1 -2.57 0 2.26 2.26 0 0 1 -1.74-1.17 48 48 0 0 0 -4.81 3.49z"/><path d="m16.65 14 2.25.41 3.49-3-2.39-.41a19.56 19.56 0 0 0 -3.35 3z"/></g></svg>