<svg viewBox="0 0 50.11 22.52" xmlns="http://www.w3.org/2000/svg"><path d="m1.63 1.8s9.1 18.83 23.42 18.83 23.43-18.76 23.43-18.76l-23.11 9z" fill="#ea336b"/><path d="m25.05 5.39a59.54 59.54 0 0 1 -25.05-5.39s11.21 13.17 25.05 13.17 25.06-13.17 25.06-13.17a59.56 59.56 0 0 1 -25.06 5.39z" fill="#842751"/><path d="m35.55 2.34a86.71 86.71 0 0 0 -21 0c-5.81.85-12.92-1.61-12.92-1.61a56.93 56.93 0 0 0 23.42 4.66 57 57 0 0 0 23.43-4.66s-7.11 2.46-12.93 1.61z" fill="#bd336b"/><path d="m4.36 1.8 1.57 1.28s8 6.67 18.62 6.67a35.2 35.2 0 0 0 18.85-6l2.29-1.89a61.54 61.54 0 0 1 -20.69 4.01 60.57 60.57 0 0 1 -20.64-4.07z" fill="#ffe0ee"/><path d="m11.21 14.55s7.06 7.38 13.07 8 15.19-8.42 15.19-8.42-13.81 12.21-28.26.42z" fill="#d177b8" opacity=".6"/></svg>