<svg viewBox="0 0 186.11 202.51" xmlns="http://www.w3.org/2000/svg" xmlns:xlink="http://www.w3.org/1999/xlink"><linearGradient id="a" gradientUnits="userSpaceOnUse" x1="49.07" x2="49.07" y1="202.51"><stop offset="0" stop-color="#471f4b"/><stop offset="1" stop-color="#310a39"/></linearGradient><linearGradient id="b" x1="137.05" x2="137.05" xlink:href="#a" y1="202.51"/><path d="m98.14 7.37-4 3.1a6.07 6.07 0 0 0 -1.93 1.12 4.78 4.78 0 0 0 -.44.32c-2.53 2.09-6.67 7.16-9.77 18.93-4.95 18.36-1.3 39.74-1.3 39.74s-4.78-7.52-5.91-12.58a84.24 84.24 0 0 0 1.85 12.46s0-.06 0-.08c-.92-1.81-8.11-17-6.93-34.66a50.21 50.21 0 0 1 4.62-18.2l.06-.14c.08-.16.16-.32.26-.48s.12-.29.14-.35a.86.86 0 0 0 -.14.14c-1.9 2.07-14.65 18.11-4.17 50.81h-4.1l-.87 1-5.3 4.64s-14-5.65-10-37.59c0-.06 0-.12 0-.18-.37 1.33-5.57 17.89 1.32 40.63l-2.27-2.89-.5 6.15-2.51-3s-.77 32.67 1.36 61.3c3 40.36 12.22 61.53 12.22 61.53s-9.56-.86-13.46-8.15c0 0 2.13 7.89 5.78 9.54 0 0-7.31 5.58-22.3-1.65a1.23 1.23 0 0 1 -.12-.08 65.24 65.24 0 0 1 -10.48-6.43v.06c-.47.56-4.77 5.25-15.41 4.74-1.19-.06-2.45-.2-3.8-.4.42 0 3.5-.14 4.66-4.18 1.21-4.34-3.88-16.69-.1-41s12.22-59.83 16.4-79.64 10.51-46 24-57.35 29.37-8.3 31.26-9.23 11.79-5.66 14.37-5.32a5.1 5.1 0 0 1 2.27 1.39l.14.1a40.9 40.9 0 0 1 5.1 5.88z" fill="url(#a)"/><path d="m181.47 192.52c-.54-1.91.14-5.36.75-10.71a108.85 108.85 0 0 0 -.65-30.29c-3.79-24.33-12.27-59.79-16.43-79.6s-10.49-46-24-57.35-29.37-8.3-31.24-9.23-11.82-5.68-14.41-5.34a5.38 5.38 0 0 0 -2.43 1.47 41 41 0 0 0 -5.06 5.9l4 3.1.26 1.12 13.18 59s11.73-9.57 10.19-3h4.14l.86 1 7.37 1.3s13.95-7.07 7.9-34.43c.42 1.26 5.62 17.82-1.27 40.54l2.25-2.89.52 6.15 2.5-3s.78 32.67-1.37 61.3c-3 40.36-12.21 61.53-12.21 61.53s9.56-.86 13.46-8.15c0 0-2.15 7.89-5.79 9.54 0 0 10.73 8.19 32.91-8.16 0 0 5.06 6.53 19.24 4.4-.45-.02-3.54-.16-4.67-4.2zm-62.47-137.52a58.69 58.69 0 0 0 -7.69-38.46c.69.46 13.43 10.3 7.69 38.46z" fill="url(#b)"/><g fill="#d177b8"><path d="m93.06 1.49-1.09 9-.18 1.44c-2.55 2.07-6.69 7.14-9.79 18.91-4.95 18.36-1.3 39.74-1.3 39.74s-4.78-7.52-5.91-12.58a84.24 84.24 0 0 0 1.85 12.46s0-.06 0-.08c-9.14-22.73-6-40.79-3.57-49.06.12-.43.26-.83.38-1.23a4.94 4.94 0 0 1 .2-.58c.12-.38.24-.73.36-1.07.28-.7.5-1.24.64-1.56s.12-.29.14-.35 0-.06 0-.06a56.59 56.59 0 0 0 3.34 40.32c-6.23-25.07 12.5-56.79 12.5-56.79l2.27 1.39.14.1z" opacity=".6"/><path d="m69.67 35.72a50.21 50.21 0 0 1 4.62-18.2c-.2.58-.44 1.26-.68 2a4.94 4.94 0 0 0 -.2.58 105.09 105.09 0 0 0 -3.74 15.62z" opacity=".9"/><path d="m77.75 7.11-2.47 7.82s-.26.62-.67 1.76c-1.86 2.07-14.61 18.11-4.13 50.81-.45-.62-7.64-11-7.64-26.92 0-16.41 14.91-33.47 14.91-33.47z" opacity=".9"/><path d="m51.53 76c-12.64-25.33-1.26-40.62-1.26-40.62a.12.12 0 0 1 0 .08c-.43 1.24-5.63 17.8 1.26 40.54z" opacity=".6"/><path d="m38.85 48c0 .1-.12.38-.24.78q.18-.63.24-.78z" opacity=".9"/><path d="m52.15 200.46s-7.31 5.58-22.3-1.65a1.23 1.23 0 0 1 -.12-.08c-1.62-1-14.56-10.25-16.21-38.87s22.22-102.38 25.09-111.08c-3 9.54-29.69 97.88-21.15 124.66 5.68 17.76 26.9 15.21 26.9 15.21s-6.61-7.54-8.9-29.8 2.27-70.57 2.27-70.57-1.49 36.06 0 68.26 19.45 39.66 19.45 39.66-9.61-20.93-12.18-51.2 0-80.86 0-80.86l1.27 12.07s-.77 32.67 1.36 61.3c3 40.36 12.22 61.53 12.22 61.53s-9.56-.86-13.46-8.15c-.02.03 2.11 7.92 5.76 9.57z" opacity=".9"/><path d="m19.25 192.3v.06c-.47.56-4.77 5.25-15.41 4.74 0 0 9.1-1 9.24-4.8s-6.59-26.84-5.47-40.8c1.05-13.5 14.73-71.72 15.59-75.34-.5 2.45-6 29.27-10.54 63.08-4.72 35.46 6.59 53.06 6.59 53.06z" opacity=".9"/><path d="m128 69.86s16.08-28.15 0-51.44c0 0 22.35 36.45 0 51.44z" opacity=".9"/><path d="m186.11 196.7c-14.18 2.13-19.24-4.4-19.24-4.4-22.18 16.35-32.91 8.16-32.91 8.16 3.64-1.65 5.79-9.54 5.79-9.54-3.9 7.29-13.46 8.15-13.46 8.15s9.18-21.17 12.21-61.53c2.15-28.63 1.37-61.3 1.37-61.3s.26-5.46 2.19-34.15c0 0-.23 61.53-2.19 97.17s-2.8 46.77-2.8 46.77 14.13-14.16 15.89-44a113.94 113.94 0 0 1 -10.7 45.46s20.93-12.49 20.37-42.49c-.54-28-11.31-96.78-12.63-105.26 1.49 8.13 13.12 72.68 14.53 102.52 1.5 31.88-18.27 48.29-18.27 48.29s24.86-5.66 27.89-29.25c2.87-22.52-13.84-92.49-15.35-98.76 1.61 6.05 18.91 72.1 18.56 100.21l4.87 19c-.61 5.35-1.29 8.8-.75 10.71 1.12 4.1 4.21 4.24 4.63 4.24z" opacity=".9"/><path d="m92.23 11.59s17.07 19.58 13.18 59c0-.01-8.13-43.29-13.18-59z" opacity=".6"/><path d="m111.34 16.51s18 12.9 4.26 51c0 .03 18.78-31.7-4.26-51z" opacity=".6"/></g><path d="m80.2 24.73a74.81 74.81 0 0 0 -3.19 15h-1.64s-.09-5.57 2-15.62a2.89 2.89 0 0 1 2.83.62z" fill="#ffd4e0"/><path d="m68.28 21.34s-5.18 4.45-15.62 4.2c0 0-2.82 10-2.83 14.2 0 0 9.39-1.59 13-1.61.01 0 .95-9.2 5.45-16.79z" fill="#ffd4e0"/><path d="m99.54 24.45s1.76 2.81 7.52 1.48c0 0 2.27 3 3.69 13.15l-6.61.66s-.36-5.83-4.6-15.29z" fill="#ffd4e0"/><path d="m118.06 24.12s8.75 4.07 14.52 3.44a46.33 46.33 0 0 1 2.42 9.44s-4.32-2.77-12.73.2c.04 0 .13-5.58-4.21-13.08z" fill="#ffd4e0"/><path d="m135.26 27.66a65.94 65.94 0 0 0 9.35-1c2.93-.75 3-4.82 3-4.82a70.84 70.84 0 0 1 5.79 10.28s-4.36-3.95-7-3.19-2.74 3-4.91 5a7.61 7.61 0 0 1 -4.45 2.14s-.56-5.86-1.78-8.41z" fill="#ffd4e0"/><path d="m41.9 17.52s.68 5.22 7.65 7.07a51.11 51.11 0 0 1 -2.37 17.41 11.77 11.77 0 0 0 -3.58-8.79c-4-3.68-11.19-.49-11.19-.49s5.37-11.39 9.49-15.2z" fill="#ffd4e0"/><path d="m112.63 24.12s4.94 8.13 4.45 14.26c0 0-3.08-12.3-4.45-14.26z" fill="#ffd4e0"/></svg>