<svg viewBox="0 0 72.82 90.17" xmlns="http://www.w3.org/2000/svg" xmlns:xlink="http://www.w3.org/1999/xlink"><linearGradient id="a" gradientUnits="userSpaceOnUse" x1="35.39" x2="35.39" y1="90.17" y2="71.09"><stop offset="0" stop-color="#d98d77"/><stop offset=".23" stop-color="#d97568"/><stop offset=".48" stop-color="#d9615b"/><stop offset=".74" stop-color="#d95554"/><stop offset="1" stop-color="#d95151"/></linearGradient><linearGradient id="b" x1="62.98" x2="62.98" xlink:href="#a" y1="57.11" y2="38.07"/><linearGradient id="c" gradientUnits="userSpaceOnUse" x1="62.98" x2="62.98" y1="53.85" y2="41.44"><stop offset="0" stop-color="#d9c4b5"/><stop offset=".99" stop-color="#ab51ce"/></linearGradient><linearGradient id="d" x1="60.74" x2="60.74" xlink:href="#c" y1="52.43" y2="46.34"/><linearGradient id="e" gradientTransform="matrix(-1 0 0 1 659.92 0)" x1="652.69" x2="652.69" xlink:href="#a" y1="57.11" y2="38.07"/><linearGradient id="f" gradientTransform="matrix(-1 0 0 1 659.92 0)" x1="652.7" x2="652.7" xlink:href="#c" y1="53.85" y2="41.44"/><linearGradient id="g" gradientTransform="matrix(-1 0 0 1 659.92 0)" x1="650.46" x2="650.46" xlink:href="#c" y1="52.43" y2="46.34"/><linearGradient id="h" gradientUnits="userSpaceOnUse" x1="35.15" x2="35.15" y1="73.78" y2="6.17"><stop offset="0" stop-color="#d98470"/><stop offset=".43" stop-color="#d38573"/><stop offset=".55" stop-color="#d57d69"/><stop offset=".78" stop-color="#d8735d"/><stop offset="1" stop-color="#d97059"/></linearGradient><linearGradient id="i" x1="14.48" x2="14.48" xlink:href="#c" y1="46.33" y2="10.25"/><linearGradient id="j" gradientTransform="matrix(-1 0 0 1 1007.99 0)" x1="952.18" x2="952.18" xlink:href="#c" y1="46.33" y2="10.25"/><linearGradient id="k" gradientUnits="userSpaceOnUse" x1="18.12" x2="18.12" y1="89.59" y2=".09"><stop offset="0" stop-color="#ab4d4b"/><stop offset="1" stop-color="#9a3651"/></linearGradient><linearGradient id="l" x1="54.53" x2="54.53" xlink:href="#k" y1="89.27" y2="0"/><linearGradient id="m" gradientUnits="userSpaceOnUse" x1="23.36" x2="23.36" y1="78.99" y2="7.42"><stop offset="0" stop-color="#ffeadb"/><stop offset=".99" stop-color="#d177f4"/></linearGradient><linearGradient id="n" x1="5.97" x2="5.97" xlink:href="#m" y1="88.03" y2="32.23"/><linearGradient id="o" gradientUnits="userSpaceOnUse" x1="9.66" x2="9.66" y1="89.59" y2="43.89"><stop offset=".01" stop-color="#d177f4"/><stop offset="1" stop-color="#ffeadb"/></linearGradient><linearGradient id="p" x1="46.94" x2="46.94" xlink:href="#m" y1="54.12" y2="9.17"/><linearGradient id="q" x1="60.59" x2="60.59" xlink:href="#o" y1="89.27" y2="11.86"/><path d="m14.48 88.24 43.15 1s11.8-27.6 10-44.81-7.63-38.26-32.49-38.26-31.54 59.2-20.66 82.07z" fill="#811e52"/><path d="m43.77 83.1c-.16-.94 0-12 0-12l-8.38 2.28-8.39-2.29s.17 11.07 0 12-11.52 5.91-11.52 5.91a176 176 0 0 0 19.91 1.15 176 176 0 0 0 19.91-1.15s-11.36-5-11.53-5.9z" fill="url(#a)"/><path d="m27.06 76.3s8.28 5.39 16.64 3.76l.07-9h-16.77z" fill="#ab5192" opacity=".6"/><path d="m67.34 46.83q-.2.93-.42 1.68c-1.11 3.57-2.79 4.41-3.47 6-.58 1.39-2.88 4.19-5.16 1.28s1.08-11.83 1.95-14c0 0 1.26-3.22 3.52-3.71 2.88-.57 4.71 3.25 3.58 8.75z" fill="url(#b)"/><path d="m59.06 48.5s4.55-6.6 6.72-7 1.09 5.17.65 7a11.56 11.56 0 0 1 -1.09 3 25.72 25.72 0 0 0 .65-4c.16-2.56-.66-4.76-1.57-4.55s-2.14 3.43-2.22 3.79.61 1 .57 3-1 4.15-1.51 4.12-.26-1.64-.26-3.5-1.45-1.5-2.1-.29z" fill="url(#c)" opacity=".6"/><path d="m58.87 50.07s1.17-1.77 1.87-1 .2 3 .74 3.3 1.25-1.53 1.11-3.18-.79-3.12-1.72-2.84l-1.81 2.15z" fill="url(#d)" opacity=".6"/><path d="m66.91 48.54c-1.11 3.57-2.79 4.41-3.47 6-.58 1.39-2.88 4.19-5.16 1.28a3.15 3.15 0 0 0 2.79.7c1.41-.52 1.86-1.83 2.45-2.85s2.13-1.67 3.39-5.13z" fill="#b74556"/><path d="m2.86 46.83c.13.62.28 1.18.43 1.68 1.11 3.57 2.79 4.41 3.46 6 .59 1.39 2.89 4.19 5.16 1.28s-1.06-11.79-1.91-13.94c0 0-1.26-3.22-3.51-3.71-2.93-.63-4.76 3.19-3.63 8.69z" fill="url(#e)"/><path d="m11.14 48.5s-4.54-6.6-6.72-7-1.08 5.17-.64 7a11.12 11.12 0 0 0 1.09 3 26.51 26.51 0 0 1 -.66-4c-.15-2.56.66-4.76 1.58-4.55s2.13 3.41 2.21 3.77-.6 1-.56 3 1 4.15 1.5 4.12.3-1.63.3-3.49 1.45-1.5 2.09-.29z" fill="url(#f)" opacity=".6"/><path d="m11.33 50.07s-1.17-1.77-1.87-1-.19 3-.73 3.3-1.26-1.53-1.12-3.18.79-3.12 1.72-2.84l1.81 2.12z" fill="url(#g)" opacity=".6"/><path d="m3.3 48.54c1.11 3.57 2.79 4.41 3.46 6 .59 1.39 2.89 4.19 5.16 1.28a3.14 3.14 0 0 1 -2.79.7c-1.4-.52-1.85-1.83-2.45-2.85s-2.12-1.67-3.38-5.13z" fill="#b74556"/><path d="m61.38 40.68c-.57 2.89-1.28 5.94-1.76 9.43-1.28 9.21-4 13.45-10.29 17.51-6.55 4.27-8.52 5.93-14.19 6.14-5.66-.21-7.63-1.87-14.18-6.14-6.26-4.06-9-8.3-10.29-17.51-.28-2.06-.64-4-1-5.76-.27-1.33-.54-2.62-.79-3.88 0 0 0 0 0-.06-.9-4.63-1.45-8.89-.21-14 1.25-5.41 5.66-11.98 12.33-16.16a26.38 26.38 0 0 1 14.14-4.08c14.54 0 24.48 11.72 26.51 20.2 1.26 5.26.67 9.63-.27 14.31z" fill="url(#h)"/><path d="m61.38 40.7c-.57 2.89-1.28 5.94-1.76 9.43-1.28 9.21-4 13.45-10.29 17.51-6.55 4.27-8.52 5.93-14.19 6.14-5.66-.21-7.63-1.87-14.18-6.14-6.26-4.06-9-8.3-10.29-17.51-.49-3.58-1.22-6.69-1.8-9.64.18.72 1.69 6.64 3.15 12.65 1.57 6.41 3.88 10.36 10.83 15.27 6.46 4.56 10.23 4.94 12.14 5h.33c1.91 0 5.68-.4 12.14-5 6.95-4.91 9.26-8.86 10.83-15.27 1.37-5.61 2.76-11.14 3.09-12.44z" fill="#ab5192" opacity=".6"/><path d="m21 10.25c-.29.22-7.75 5.7-8.28 10.78s-.22 11-1.88 15.92a18.35 18.35 0 0 0 -.54 9.38c0-.11-.3-.82-.68-2-.27-1.33-.54-2.62-.79-3.88 0 0 0 0 0-.06-.9-4.63-1.45-8.89-.21-14 1.3-5.39 5.71-11.96 12.38-16.14z" fill="url(#i)" opacity=".6"/><path d="m49.25 10.25c.29.22 7.75 5.75 8.28 10.75s.22 11 1.88 15.92a18.35 18.35 0 0 1 .59 9.41c0-.11.3-.82.68-2 .27-1.33.54-2.62.79-3.88 0 0 0 0 0-.06.9-4.63 1.45-8.89.21-14-1.31-5.39-5.68-11.96-12.42-16.14z" fill="url(#j)" opacity=".6"/><path d="m36.25 1.36v8.07a33.07 33.07 0 0 0 -8.68 4.28c-4.42 3.1-11 10.65-14.46 21.5-2.68 8.44-2.12 29 2.22 43.36a36.81 36.81 0 0 0 4.67 10.3c-.13-.09-3.17-2.09-5.83-8.1a43.91 43.91 0 0 1 -2.92-10c-.1-.55-.19-1.08-.26-1.6 0 0 .29 11.8 5.86 19.44l-2.52 1s-11.24-10.07-11.85-38.61v-2l-.09.52c-.58 3.39-2.97 22.14 9.55 38.48-.36-.25-11.83-9.38-11.94-33.16a99.23 99.23 0 0 1 2.45-22.61 81 81 0 0 1 9.26-23.73c4.37-7.14 13.55-10.42 24.54-7.14z" fill="url(#k)"/><path d="m70.14 42.7c1.52 27.58-12.51 46.57-12.51 46.57l-1.85-.83a.29.29 0 0 1 0-.09c.2-.62 1.38-4.18 2.75-9.29 3-11.09 6.8-29.42 3.49-40.69-4.76-16.24-13-25.62-13.73-26.45t0 0c.09.12.42.54.91 1.25.07.1.13.2.2.29l.13.2a66.72 66.72 0 0 1 10.6 31.65c1.45 20.11-4.73 41.56-5.08 42.74a111 111 0 0 0 2.51-34.05c-2-23.42-11.26-38.3-13.11-40.4-2.65-3-8.2-4.12-8.2-4.12v-8.12s9-2 13.06-1.15 19.69 10.14 22.88 38.91c.29 2.6.47 5.08.56 7.47.91 23.64-7.12 36.57-7.35 36.94a78.66 78.66 0 0 0 4.74-40.83z" fill="url(#l)"/><path d="m36.25 9.43a33.07 33.07 0 0 0 -8.68 4.28c-4.42 3.1-11 10.65-14.46 21.5-2.68 8.44-2.12 29 2.22 43.36l-.12.42s-6.56-24.19-4.21-39.87 15.12-30.49 18.62-31.49 6.63 1.8 6.63 1.8z" fill="url(#m)"/><path d="m11.94 88c-.36-.25-11.83-9.38-11.94-33.16a99.23 99.23 0 0 1 2.45-22.61 106 106 0 0 0 -.09 17.34c-.55 3.34-2.94 22.09 9.58 38.43z" fill="url(#n)"/><path d="m16.84 88.62-2.52 1s-11.23-10.08-11.84-38.62c1.87 20.54 9.2 33.34 9.46 33.78-6.47-14.47-5.32-40.89-5.32-40.89.72 27.77 5.77 39 5.93 39.36a56 56 0 0 1 -1.55-14.07s.27 11.82 5.84 19.44z" fill="url(#o)"/><path d="m57.63 54.12-.07-.12c-2-23.42-11.26-38.3-13.11-40.4-2.65-3-8.2-4.12-8.2-4.12s6.17-.8 8.2.37 11.61 15.74 13.18 44.27z" fill="url(#p)"/><path d="m70.14 42.7c1.52 27.58-12.51 46.57-12.51 46.57l-1.85-.83a.29.29 0 0 1 0-.09 81.61 81.61 0 0 0 2.75-9.29s0 0 0 0c3-11.09 6.8-29.42 3.49-40.69-4.76-16.24-13-25.62-13.73-26.45.91.81 12.53 11.54 16.79 28.07 4.42 17.2-7.73 44.88-7.73 44.88s11.16-16 10.67-40.18c0 0 1.45 15-4 29.05.2-.34 7.27-12.43 5.63-37.14 0 0 1.54 4.49 3 10.05.91 23.64-7.12 36.57-7.35 36.94a78.66 78.66 0 0 0 4.84-40.89z" fill="url(#q)"/><path d="m36.25 1.36a18.5 18.5 0 0 1 0 7s6-1.59 7.9-.92a7.37 7.37 0 0 0 -3.95-1.26s-1.47-.84-1.76-1.63 1.05-3.81 1.05-3.81z" fill="#d177b8" opacity=".6"/><g fill="#ffd9bb"><path d="m19.08 19.05a8 8 0 0 0 .41-2.34c-.12-.58-2.62-1.33-4.75-2.7s-.65-6-.83-6.59-1.15-.42-1.15-.42a18.14 18.14 0 0 1 3.37-3.3s-2.24 3.3-.53 6.64 8.15 2.42 8.15 2.42-3.2 3.92-4.67 6.29z"/><path d="m47.52 13.84a35.71 35.71 0 0 1 3.27 6.79s1.22-1.49 2.15-1.28a52.63 52.63 0 0 0 -3.2-5.51z"/><path d="m50.37 13.84s.94.42 3.06-1.37 2.69-8.38 2.69-8.38a41.87 41.87 0 0 1 4 4 3.84 3.84 0 0 0 -2 .29c-.67.42-.33 4.71-1.33 7.33s-2.38 1.63-2.32 3z"/></g></svg>