<svg viewBox="0 0 103.35 15.92" xmlns="http://www.w3.org/2000/svg" xmlns:xlink="http://www.w3.org/1999/xlink"><linearGradient id="a" gradientUnits="userSpaceOnUse" x1="65.61" x2="103.35" y1="7.96" y2="7.96"><stop offset="0" stop-color="#751540"/><stop offset="1" stop-color="#a93749"/></linearGradient><linearGradient id="b" gradientTransform="matrix(-1 0 0 1 -238.48 0)" x1="-276.22" x2="-238.48" xlink:href="#a" y1="7.96" y2="7.96"/><path d="m65.61 14.28s3-7 7.53-11.66l-1.34 3.21a16 16 0 0 1 3.3-2.4c2-1.08 17-2.65 20-2.1l-.48-1.33s5.24 4.46 8.73 13.67c0 0-3.85-4.33-6.38-4.75s-25.6 3-31.36 7z" fill="url(#a)"/><path d="m37.74 14.28s-3-7-7.52-11.66l1.33 3.21a16 16 0 0 0 -3.3-2.4c-2-1.08-17-2.65-20-2.1l.48-1.33s-5.24 4.46-8.73 13.67c0 0 3.86-4.33 6.39-4.75s25.6 3 31.35 7z" fill="url(#b)"/></svg>