<svg viewBox="0 0 101.56 16.97" xmlns="http://www.w3.org/2000/svg" xmlns:xlink="http://www.w3.org/1999/xlink"><linearGradient id="a" gradientTransform="matrix(.9799247 .19936793 -.19936793 .9799247 185.19 100.48)" gradientUnits="userSpaceOnUse" x1="-136.33" x2="-98.59" y1="-70.88" y2="-70.88"><stop offset="0" stop-color="#27001a"/><stop offset="1" stop-color="#590012"/></linearGradient><linearGradient id="b" gradientTransform="matrix(-.98 .2 .2 .98 -1099.49 100.48)" x1="-1131.88" x2="-1094.14" xlink:href="#a" y1="131.48" y2="131.48"/><path d="m64.46 10s4.37-6.3 9.7-9.92l-1.95 2.92a15.68 15.68 0 0 1 3.71-1.69c2.16-.67 17.17.78 20 1.92l-.21-1.4s4.29 5.41 5.85 15.17c0 0-2.91-5-5.31-5.94s-25.69-2.12-32.12.62z" fill="url(#a)"/><path d="m37.1 9.92s-4.37-6.3-9.69-9.92l1.94 2.88a15.44 15.44 0 0 0 -3.71-1.69c-2.16-.67-17.17.81-20.01 1.92l.2-1.4s-4.24 5.41-5.83 15.14c0 0 2.91-5 5.31-5.93s25.69-2.13 32.12.61z" fill="url(#b)"/></svg>