<svg viewBox="0 0 108.38 28.21" xmlns="http://www.w3.org/2000/svg" xmlns:xlink="http://www.w3.org/1999/xlink"><linearGradient id="a" gradientUnits="userSpaceOnUse" x1="86.68" x2="86.68" y1="27.93" y2="1.52"><stop offset="0" stop-color="#eee2ff"/><stop offset="1" stop-color="#bdc9fb"/></linearGradient><linearGradient id="b" gradientUnits="userSpaceOnUse" x1="85.37" x2="85.37" y1="24.86" y2="4.6"><stop offset="0" stop-color="#3780a9"/><stop offset="1" stop-color="#153364"/></linearGradient><linearGradient id="c" gradientUnits="userSpaceOnUse" x1="85.37" x2="85.37" y1="24.27" y2="5.19"><stop offset="0" stop-color="#4997fe"/><stop offset=".96" stop-color="#021f40"/><stop offset="1" stop-color="#152c39"/></linearGradient><linearGradient id="d" gradientUnits="userSpaceOnUse" x1="85.37" x2="85.37" y1="20.92" y2="8.54"><stop offset="0" stop-color="#a7dbae"/><stop offset=".99" stop-color="#724a60"/></linearGradient><linearGradient id="e" gradientTransform="matrix(-1 0 0 1 -534.07 0)" x1="-555.76" x2="-555.76" xlink:href="#a" y1="27.93" y2="1.52"/><linearGradient id="f" gradientTransform="matrix(-1 0 0 1 -534.07 0)" x1="-557.08" x2="-557.08" xlink:href="#b" y1="24.86" y2="4.6"/><linearGradient id="g" gradientTransform="matrix(-1 0 0 1 -534.07 0)" x1="-557.08" x2="-557.08" xlink:href="#c" y1="24.27" y2="5.19"/><linearGradient id="h" gradientTransform="matrix(-1 0 0 1 -534.07 0)" x1="-557.08" x2="-557.08" xlink:href="#d" y1="20.92" y2="8.54"/><path d="m74.58 27s6.16 2.84 17.54 0 13.44-11.11 13.44-11.11l-1.68-1a40.64 40.64 0 0 1 -29.3 12.11z" fill="#dd6b7c"/><path d="m69.47 24c0-1.9 3.24-17.94 15.9-21.8s18.77 9.1 18.51 12.59-4.88 11.53-17.65 12.93c-10.44 1.13-16.76-2.47-16.76-3.72z" fill="url(#a)"/><circle cx="85.37" cy="14.73" fill="url(#b)" r="10.13"/><circle cx="85.37" cy="14.73" fill="url(#c)" r="9.54"/><path d="m91.56 14.73a6.19 6.19 0 1 1 -6.19-6.19 6.19 6.19 0 0 1 6.19 6.19z" fill="url(#d)"/><path d="m69.47 24s5-16.55 20.11-18.33c12.63-1.49 14.3 7.38 14.3 7.38s-2.37-12.62-14.29-13.05-19.71 15.4-20.12 24z" fill="#ba4c6a"/><path d="m70.14 22.59a6.86 6.86 0 0 0 2.57 3.73s-3.07-.94-3.24-2.28z" fill="#dd6b7c"/><path d="m93.1 12.67c-.61.54 2.23.67 4.35-.16 1.9-.75 2.81-2 2.63-2.18s-4.56.19-6.98 2.34z" fill="#fff"/><path d="m91.49 13.21c-.81-.28-1.75.14-1.78.57s1 1 1.42.78.81-1.2.36-1.35z" fill="#fff"/><path d="m70.14 22.59s11.72-20 32.92-11.86c0 0-3-6.92-14.77-4.86s-18.15 16.72-18.15 16.72z" fill="#d177b8" opacity=".6"/><path d="m69.47 24s6.53-16.21 19.79-17.38c10.78-1 13.8 4.11 13.8 4.11l5.32-4.94h-3s-8.62-4.95-17.78-2c-10.53 3.32-17.37 16.41-18.13 20.21z" fill="#4e1b3d"/><path d="m33.8 27s-6.17 2.84-17.54 0-13.44-11.16-13.44-11.16l1.68-1a40.61 40.61 0 0 0 29.3 12.16z" fill="#dd6b7c"/><path d="m38.9 24c0-1.9-3.24-17.94-15.89-21.8s-18.77 9.14-18.51 12.63 4.88 11.49 17.65 12.89c10.43 1.13 16.75-2.47 16.75-3.72z" fill="url(#e)"/><circle cx="23.01" cy="14.73" fill="url(#f)" r="10.13"/><circle cx="23.01" cy="14.73" fill="url(#g)" r="9.54"/><path d="m16.82 14.73a6.19 6.19 0 1 0 6.18-6.19 6.19 6.19 0 0 0 -6.18 6.19z" fill="url(#h)"/><path d="m38.9 24s-5-16.55-20.11-18.33c-12.62-1.45-14.29 7.42-14.29 7.42s2.37-12.66 14.29-13.09 19.7 15.4 20.11 24z" fill="#ba4c6a"/><path d="m38.24 22.59a6.86 6.86 0 0 1 -2.57 3.73s3.07-.94 3.23-2.28z" fill="#dd6b7c"/><path d="m15.39 12.67c.61.54-2.23.67-4.35-.16-1.89-.75-2.81-2-2.63-2.18s4.59.19 6.98 2.34z" fill="#fff"/><path d="m17 13.21c.8-.28 1.74.14 1.78.57s-1 1-1.43.78-.79-1.2-.35-1.35z" fill="#fff"/><path d="m38.24 22.59s-11.73-19.99-32.92-11.86c0 0 3-6.92 14.77-4.86s18.15 16.72 18.15 16.72z" fill="#d177b8" opacity=".6"/><path d="m38.9 24s-6.52-16.21-19.78-17.38c-10.78-1-13.8 4.11-13.8 4.11l-5.32-4.94h3s8.63-4.95 17.79-2c10.52 3.32 17.36 16.41 18.11 20.21z" fill="#4e1b3d"/></svg>