<svg viewBox="0 0 150.71 216.53" xmlns="http://www.w3.org/2000/svg" xmlns:xlink="http://www.w3.org/1999/xlink"><linearGradient id="a" gradientUnits="userSpaceOnUse" x1="71.97" x2="71.97" y1="42.75"><stop offset="0" stop-color="#c7544b"/><stop offset="1" stop-color="#b63651"/></linearGradient><linearGradient id="b" gradientUnits="userSpaceOnUse" x1="36.26" x2="103.67" y1="27.6" y2="27.6"><stop offset="0" stop-color="#ffeadb"/><stop offset=".99" stop-color="#d177f4"/></linearGradient><linearGradient id="c" x1="74.27" x2="105.01" xlink:href="#b" y1="18.48" y2="18.48"/><linearGradient id="d" x1="73.57" x2="73.57" xlink:href="#a" y1="131.69" y2="30.64"/><linearGradient id="e" x1=".79" x2="40.4" xlink:href="#b" y1="94.48" y2="94.48"/><linearGradient id="f" x1="17.08" x2="62.68" xlink:href="#b" y1="48.76" y2="48.76"/><linearGradient id="g" x1="83.05" x2="146.18" xlink:href="#b" y1="85.11" y2="85.11"/><linearGradient id="h" gradientUnits="userSpaceOnUse" x1="108.63" x2="108.63" y1="63.22" y2="32.27"><stop offset="0" stop-color="#db6a4b"/><stop offset="1" stop-color="#b63651"/></linearGradient><linearGradient id="i" x1="26.12" x2="26.12" xlink:href="#h" y1="77.84" y2="42.46"/><linearGradient id="j" x1="114.01" x2="150.71" xlink:href="#h" y1="78.89" y2="78.89"/><linearGradient id="k" x1="120.65" x2="148.03" xlink:href="#h" y1="100.41" y2="100.41"/><linearGradient id="l" x1="12.67" x2="12.67" xlink:href="#h" y1="97.19" y2="66.73"/><linearGradient id="m" x1="130.08" x2="130.08" xlink:href="#h" y1="216.53" y2="130.17"/><linearGradient id="n" x1="19.62" x2="19.62" xlink:href="#h" y1="212.94" y2="128.45"/><path d="m102.94 9.77c-6.94-6.77-30.37-18.09-51.87 0-5.87 5-9.28 9.66-11.15 13.88l-.3.72a21.44 21.44 0 0 0 -1.62 6.15 17.1 17.1 0 0 0 -.12 2.21 17.89 17.89 0 0 0 3 10l58.4-3s2.69-2.43 4.4-8.3a32.9 32.9 0 0 0 1-4.5 5.44 5.44 0 0 0 -.16-2.19c.18-.46.36-.94.54-1.46 1.24-3.89 2-9.48-2.12-13.51zm-21.45-2.29-.26-.12-.23-.13s10.75-1.12 18.11 4.71a12.93 12.93 0 0 1 4.66 11c-4.02-7.13-19.21-14.12-22.28-15.46z" fill="url(#a)"/><path d="m103.67 31.44c-1.71 5.87-4.4 8.3-4.4 8.3l-58.4 3a17.89 17.89 0 0 1 -3-10c3.34-4.25 11.92-12.63 28.27-12.74 20.53-.18 33.09 8.56 34.65 9.68-1.58-1.45-14.68-12.68-31.62-13.2-14.38-.41-26.7 9.82-31.14 14-1.16 1.08-1.77 1.75-1.77 1.75l3.32-7.86.3-.72a42.17 42.17 0 0 1 33-10.95c20.44 2.17 30.79 18.74 30.79 18.74z" fill="url(#b)"/><path d="m104.47 24.75a5.44 5.44 0 0 1 .16 2.19 32.9 32.9 0 0 1 -1 4.5c-1.35-10.32-18.21-21.86-22.18-24 3.11 1.38 18.3 8.37 22.28 15.56a12.93 12.93 0 0 0 -4.66-11c-7.36-5.89-18.07-4.77-18.07-4.77-2.55-1-6.69-.84-6.69-.84s14-2.75 22.53 1.51 7 15.1 7 15.1l1.26.29c-.27.52-.45 1-.63 1.46z" fill="url(#c)"/><path d="m146.14 93.64s0 0 0 .06a.06.06 0 0 1 0 0 2.55 2.55 0 0 1 0 .34 67.91 67.91 0 0 1 -1 9 63 63 0 0 1 -3.79 13.16c-4.13 10-9.44 15.07-9.9 15.49.12-.4 3.94-12.9-3.09-30.66-7.16-18.03-13.42-30.03-31.36-38.47-3.14-1.5-8.86-1.32-14-.86-4 .34-7.67.86-9.46.86-2 0-6.33-.64-10.89-1-4.74-.34-9.7-.38-12.57 1-1.65.77-3.18 1.57-4.64 2.41a51.59 51.59 0 0 0 -5.07 3.3c-10.83 8-15.93 18.44-21.61 32.76-7 17.76-3.2 30.26-3.08 30.66-.54-.5-8-7.65-12.13-21.86v-.06a58.86 58.86 0 0 1 -1.55-6.77 67.78 67.78 0 0 1 -1-11.75v-.08a45.16 45.16 0 0 1 2-13.58.2.2 0 0 0 0-.08c.26-.82.52-1.49.74-2a14.89 14.89 0 0 1 .78-1.67v-.08s.48-9.53 6.48-15.76l.68-.68a18.11 18.11 0 0 1 2.86-2.21c.78-.48 1.66-1 2.59-1.47l1.03-.64c2.8-1.49 6.13-3.07 9.53-4.6l2.49-1.11c8.37-3.69 16.61-6.95 18.6-7.75a5.45 5.45 0 0 0 1.41-.88c2-1.57 4.12-4.51 6.81-6.37a9 9 0 0 1 3.79-1.55c5.45-.76 12.72 4 12.72 4s5.61.18 11.07.94a52.29 52.29 0 0 1 11.09 2.91l.14.06c.89.31 1.71.63 2.47.95a3.74 3.74 0 0 0 .93.22c4.4.56 15.93-2.67 21.93 5.38l1.25 1.67 6.49 8.68 4.12 5.36 7.09 9.39 2.59 3.43a27.57 27.57 0 0 1 2.65 8.27.62.62 0 0 1 0 .16l.28 1.73a52.92 52.92 0 0 1 .53 9.75z" fill="url(#d)"/><path d="m40.4 68.27c-10.83 8-15.93 18.44-21.61 32.76-7 17.76-3.2 30.26-3.08 30.66-.54-.5-8-7.65-12.13-21.86v-.06a.15.15 0 0 0 0 .06c.22.57 2.23 5.83 5.76 4.5 3.74-1.42 12.22-21.83 12.22-21.83s-8.1 7.73-14 6.53c-3.66-.79-5.65-4.89-6.56-7.78-.06-.18-.12-.36-.16-.52a3.89 3.89 0 0 1 .16.44c1.08 2.67 3.49 6.17 8.8 6 8.25-.26 14.68-10.73 15-11.31-.52.34-10.56 7-17.35 4.14-6.66-2.79-4.76-11.51-4.55-12.41-.11 1-1.15 10.69 6.22 11.29s19.19-9.26 20.13-10.07c-.82.41-10.76 5.35-17.88 4.22-7.45-1.2-7.71-7.55-7.71-7.55l.78-1.67v-.08s-.84 7.11 7.34 7.44 16.73-3.32 16.73-3.32c-6.85 0-14.52-2.43-16.55-8a27.62 27.62 0 0 1 -.96-11.85l.68-.68s3 13.66 12.4 15.31c5.47.94 11.92-1.89 16.32-4.36z" fill="url(#e)"/><path d="m62.68 61.58c-4.74-.34-9.7-.38-12.57 1-1.65.77-3.18 1.57-4.64 2.41-.85.08-15 1.23-21.52-1.91a11.75 11.75 0 0 1 -6.87-9.46l1.08-.62s-.8 8.22 8.76 9.64 20.43-1.52 20.43-1.52-10.06-.12-15.22-2.66-4.44-10-4.44-10l2.49-1.11c-.28.43-4.22 6.75 2.71 10.51 7.17 3.9 25.65 1.25 25.65 1.25a83.76 83.76 0 0 1 -8.33-20.41c3.79-4.77 6.49-6.25 6.79-6.41-5.43 10.44 5.22 28.56 5.68 29.29z" fill="url(#f)"/><path d="m146.18 93.54a.7.7 0 0 1 0 .2 2.55 2.55 0 0 1 0 .34c-.41 2.33-2.43 11.13-8.42 6.33a94.51 94.51 0 0 1 -13.28-13.8c3.8 8.39 6.52 20.17 6.52 20.17 3 8.08 8.07 9.3 10.3 9.42-4.13 10-9.44 15.07-9.9 15.49.12-.4 3.94-12.9-3.09-30.66-7.11-18.03-13.37-30.03-31.31-38.47-3.14-1.5-8.86-1.32-14-.86 13-10.21 12.68-23.17 12.68-23.17l.14.06 3.4 1.15c1.59 19.79-10.22 19.83-10.22 19.83s5.38 1.06 14.14-2.63 18.08-11.8 18.08-11.8l1.25 1.67c-1.35 8.92-18.76 16.4-18.76 16.4l8.57 2.79c18.31-2.61 16.66-10.51 16.66-10.51l4.06 5.42c-2.83 5.37-19 8.38-19 8.38 20.33 7.92 26.08 1 26.08 1l2.59 3.43c-7.81 2.92-26.74.1-26.74.1 17.57 9.64 28.82 8.18 29.4 8.18v.16l.28 1.73c-9.24 4.48-28.1-8-28.1-8s12 19.91 19.53 21.38c6.71 1.34 8.69-2.61 9-3.48 0 0 0 0 0-.06a.84.84 0 0 1 .14-.19z" fill="url(#g)"/><path d="m98.37 63.22s24.57-12.07 24.06-23.51-22.22-7.92-26.71-1.19l2.62 1s1.64-8 14-5-17.52 27.34-17.52 27.34z" fill="url(#h)"/><path d="m30.88 75.33s-9.81-2.73-14.34-16.33 22.21-15.37 22.21-15.37l2.13-.88s-21.45-2.69-27.23 8.4-.75 27.08 17 26.68l5-5.57z" fill="url(#i)"/><path d="m114 74.9s19.29 11.21 30.23 9.33c6.43-1.11 5.14-7.2-1.57-10.5-3-1.5-2.58-3.42-2.58-3.42s8.62 4.68 10.5 12.57-18.65 5.85-36.58-7.98z" fill="url(#j)"/><path d="m120.65 84.23s2.19 3.3 5.58 11.81 8.52 19.75 13.3 20.51 11.9-7.31 6.66-21.7c0 0-.53 3.31-.58 5-.1 3.62 3.54 11.38-1.18 12.08-5.22.79-6.8-18.4-23.78-27.7z" fill="url(#k)"/><path d="m25.33 86.34s-13.69 6.48-20.01 1.66.61-21.26.61-21.26-7.78 11.89-5.52 23.11 15.39 9.15 24.92-3.51z" fill="url(#l)"/><path d="m131.43 131.69s-2.05 12 2.58 41.19-13.36 43.65-13.36 43.65 17.35-10.32 18.75-30.95-11.32-25.65-6.52-55.41z" fill="url(#m)"/><path d="m13.13 128.45s5.23 14.11 1.9 42.24c-3.66 31 11.09 42.25 11.09 42.25s-12.21-25.1-10.33-44.57 1.05-28-.08-36.68z" fill="url(#n)"/><g fill="#ffd9bb"><path d="m72.93 12.7a27.06 27.06 0 0 1 8.07-1.7c5.26-.48 12.86 6.41 12.86 6.41l.6 4.24s-10.37-9.24-21.53-8.95z"/><path d="m81 5.61s5.4-3.12 10.49-2.05 6 4.68 6 4.68-5.88-3.72-16.49-2.63z"/><path d="m108.35 49.15s5.27 1.23 8.32-.39 6.72-9.17 4.52-12a12.07 12.07 0 0 1 -4.91 0s-2.03 7.97-7.93 12.39z"/><path d="m29.46 48.76s1 3.59 8 7.17a34.38 34.38 0 0 0 12.04 3.94s-20.84.51-20.04-11.11z"/></g></svg>