<svg viewBox="0 0 134.89 185.27" xmlns="http://www.w3.org/2000/svg" xmlns:xlink="http://www.w3.org/1999/xlink"><linearGradient id="a" gradientUnits="userSpaceOnUse" x1="66.84" x2="66.84" y1="95.62"><stop offset="0" stop-color="#92314b"/><stop offset="1" stop-color="#9a2542"/></linearGradient><linearGradient id="b" x1="50.58" x2="50.58" xlink:href="#a" y1="83.29" y2="15.28"/><linearGradient id="c" x1="112.81" x2="112.81" xlink:href="#a" y1="68.37" y2="9.44"/><linearGradient id="d" x1="7.32" x2="7.32" xlink:href="#a" y1="99.38" y2="83.35"/><linearGradient id="e" gradientUnits="userSpaceOnUse" x1="99.1" x2="99.1" y1="91.09" y2="1.95"><stop offset="0" stop-color="#ffeadb"/><stop offset=".99" stop-color="#d177f4"/></linearGradient><linearGradient id="f" x1="32.95" x2="32.95" xlink:href="#e" y1="95.62" y2="14.39"/><path d="m14.76 86.36c-4.39-6-2.13 65.77 6.64 80.91 11.51 19.87 36.67 16.67 36.67 16.67l-1.94 1.16s-27.64 3.54-37.71-22.1c-7.15-18.2-11.16-67.77-11.16-67.77z" fill="#772542"/><path d="m132.44 74.6a52.71 52.71 0 0 1 -6.44 16.49s2.83-19.43-3-29.33c-5.64-9.6-25.81-29-34.35-41.28l-.18-.25-.62-.93s-14.18-2.47-23.28-.05a1.6 1.6 0 0 1 -.21.05 38.42 38.42 0 0 0 -11.19 5.35c-.41.29-.85.57-1.26.88-8 5.74-16.7 15.64-22.08 31.65-8.54 25.39-23 38.44-23 38.44s-7.83-13.36-6.72-33.32a72.21 72.21 0 0 1 3.11-17.6c5.35-17.4 36.78-32.5 53.78-38.19s27.81-7.3 30.23-6.17c2.11 1 3.4 7.46 3.7 9.16 0 .26.06.41.06.41s.56.21 1.54.64c6.1 2.52 28.77 12.82 36.56 28.38a35.28 35.28 0 0 1 2.47 6.54.4.4 0 0 0 0 .1v.13l1 3.94a67.28 67.28 0 0 1 -.12 24.96z" fill="url(#a)"/><path d="m87.81 19.3s-15-9-30.23 0c-12.58 7.46-9.83 59.7-44.08 57.17-2.92 3.38 3.52 5.35 0 6.82 0 0 16.17-3.53 23.85-14.74s15.25-34.13 26.37-44.2c9-8.17 24.72-4.12 24.72-4.12z" fill="url(#b)"/><path d="m91 11.06s21.72 4.88 35.32 18.37 5.39 37.28 5.39 37.28l-.23 1.66s9.77-23.77-3.76-39.37-37-19.56-37-19.56z" fill="url(#c)"/><path d="m9.26 83.35-1.65 16.03-2.23-10.63z" fill="url(#d)"/><path d="m132.44 74.6a52.71 52.71 0 0 1 -6.44 16.49s2.83-19.43-3-29.33c-5.64-9.6-25.81-29-34.35-41.28l-.18-.25-.62-.93s-14.18-2.47-23.28-.05c6.53-9.21 12.22-16 17.9-17.14 7.44-1.44 8.29 7.34 8.29 7.34l.2.05 2.04.41s-.21.26-.49.64c-.75 1.06-2.06 3.22-1.8 4.74.36 2.06 12.32 22.05 24.26 31.62s16.59 10.09 16.59 10.09a31.17 31.17 0 0 0 .05-11.27l1 3.94a67.28 67.28 0 0 1 -.17 24.93z" fill="url(#e)"/><path d="m65.9 14.39a28.16 28.16 0 0 0 -12.76 10.26v-1.57l-1.26 2.45c-8 5.74-16.7 15.64-22.08 31.65-8.54 25.39-23 38.44-23 38.44s-7.8-13.36-6.69-33.32c.1 2.18.89 13.7 3.6 11.6 3-2.29 6.82-10.47 10.6-23.26 3.69-12.4 19.25-23.41 20.22-24.11-.87.8-15 13.51-17.65 30.21-2.78 17.26-5.81 28.26-5.81 28.26 7.49-13.2 10.52-34 25.47-51.33s29.36-19.28 29.36-19.28z" fill="url(#f)"/><g fill="#ffd9bb"><path d="m99.1 29.1s8.19 10.6 10.78 13.12c0 0-1.27-2.48.52-4.26s8.45-1 11.21-2.3 3.39-3 3.39-3a77.65 77.65 0 0 0 -6.4-6.53s1.26 2.67.35 4.86-9.51.61-11.88 1.22-7.97-3.11-7.97-3.11z"/><path d="m46.84 42.22s3.36-11.29 4.83-14.43c0 0 5.51-.07 6.64-.72 0 0-6.66 9.9-8.69 15.15z"/><path d="m14.76 29.18s6.6-.49 10.53 1.22l10.48-6.58a56.9 56.9 0 0 1 -5.91 0 5.21 5.21 0 0 1 -4-2.68s-7.77 4.96-11.1 8.04z"/><path d="m29.14 32.2 5.16.94 8.05-7-5.43-.81s-5.23 3.67-7.78 6.87z"/></g></svg>