<svg viewBox="0 0 45.06 20.37" xmlns="http://www.w3.org/2000/svg"><path d="m22.53 0v8.31a50.05 50.05 0 0 1 -17.89-1.95l.52-.1c3.53-.75 6.36-2.66 9.55-4.19l.16-.07a18.94 18.94 0 0 1 7.66-2z" fill="#ea5c6b"/><path d="m0 4.23s7 4.23 22.53 4.08v.69s-13.89.36-22.53-4.77z" fill="#842751"/><path d="m40.43 6.36a50.13 50.13 0 0 1 -17.9 2v-8.36a18 18 0 0 1 6.73 1.58l.38.17.17.07c3.58 1.63 6.64 3.85 10.62 4.54z" fill="#ea5c6b"/><path d="m45.06 4.23s-7 4.23-22.53 4.08v.69s13.89.36 22.53-4.77z" fill="#842751"/><path d="m41.69 5.88s-5.27 12.28-19.16 12.28-19.16-12.28-19.16-12.28c.52.17 1 .33 1.57.48a69.43 69.43 0 0 0 17.59 2.64 69.8 69.8 0 0 0 17.21-2.52l.17-.05c.59-.17 1.19-.35 1.78-.55z" fill="#ff817f"/><g fill="#d177b8"><path d="m14.87 2a26 26 0 0 1 -8.29 4.64l-1.41-.38c3.53-.75 6.36-2.66 9.55-4.19z" opacity=".6"/><path d="m40.43 6.36-2.43.4c-3.71-2.07-8.39-5-8.69-5.17l.38.16.17.07c3.53 1.63 6.59 3.85 10.57 4.54z" opacity=".6"/><path d="m41.69 5.88s-5.27 12.28-19.16 12.28-19.16-12.28-19.16-12.28l1.55.42a.15.15 0 0 0 0 .06c.23.85 3.35 11.28 17.59 11.28 14.85 0 17.21-11.16 17.21-11.16l.17-.05c.61-.17 1.21-.35 1.8-.55z" opacity=".6"/><path d="m11.51 15.05s5.69 5 10.63 5.31 11.66-5.47 11.66-5.47a25.06 25.06 0 0 1 -22.29.16z" opacity=".6"/></g></svg>