<svg viewBox="0 0 92.33 88.32" xmlns="http://www.w3.org/2000/svg" xmlns:xlink="http://www.w3.org/1999/xlink"><linearGradient id="a" gradientUnits="userSpaceOnUse" x1="48.19" x2="48.19" y1="88.32" y2="69.25"><stop offset="0" stop-color="#d98d77"/><stop offset=".23" stop-color="#d97568"/><stop offset=".48" stop-color="#d9615b"/><stop offset=".74" stop-color="#d95554"/><stop offset="1" stop-color="#d95151"/></linearGradient><linearGradient id="b" x1="75.78" x2="75.78" xlink:href="#a" y1="55.27" y2="36.23"/><linearGradient id="c" gradientUnits="userSpaceOnUse" x1="75.78" x2="75.78" y1="52.01" y2="39.6"><stop offset="0" stop-color="#d9c4b5"/><stop offset=".99" stop-color="#ab51ce"/></linearGradient><linearGradient id="d" x1="73.54" x2="73.54" xlink:href="#c" y1="50.58" y2="44.5"/><linearGradient id="e" gradientTransform="matrix(-1 0 0 1 252.93 0)" x1="232.9" x2="232.9" xlink:href="#a" y1="55.27" y2="36.23"/><linearGradient id="f" gradientTransform="matrix(-1 0 0 1 252.93 0)" x1="232.91" x2="232.91" xlink:href="#c" y1="52.01" y2="39.6"/><linearGradient id="g" gradientTransform="matrix(-1 0 0 1 252.93 0)" x1="230.67" x2="230.67" xlink:href="#c" y1="50.58" y2="44.5"/><linearGradient id="h" gradientUnits="userSpaceOnUse" x1="47.95" x2="47.95" y1="71.94" y2="4.33"><stop offset="0" stop-color="#d98470"/><stop offset=".43" stop-color="#d38573"/><stop offset=".55" stop-color="#d57d69"/><stop offset=".78" stop-color="#d8735d"/><stop offset="1" stop-color="#d97059"/></linearGradient><linearGradient id="i" x1="27.28" x2="27.28" xlink:href="#c" y1="44.48" y2="8.41"/><linearGradient id="j" gradientTransform="matrix(-1 0 0 1 601 0)" x1="532.39" x2="532.39" xlink:href="#c" y1="44.48" y2="8.41"/><linearGradient id="k" gradientUnits="userSpaceOnUse" x1="13.51" x2="13.51" y1="87.77" y2="76.56"><stop offset="0" stop-color="#fc4a4b"/><stop offset="1" stop-color="#ca1d3b"/></linearGradient><linearGradient id="l" x1="46.17" x2="46.17" xlink:href="#k" y1="87.37" y2="0"/><linearGradient id="m" gradientUnits="userSpaceOnUse" x1="9.81" x2="52.47" y1="78.21" y2="4.33"><stop offset="0" stop-color="#ffeadb"/><stop offset=".99" stop-color="#d177f4"/></linearGradient><linearGradient id="n" x1="47.62" x2="80.16" xlink:href="#m" y1="73.29" y2="16.92"/><linearGradient id="o" x1="62.42" x2="82.43" xlink:href="#m" y1="50.2" y2="15.54"/><linearGradient id="p" gradientUnits="userSpaceOnUse" x1="18.47" x2="26.78" y1="78.5" y2="64.11"><stop offset=".01" stop-color="#d177f4"/><stop offset="1" stop-color="#ffeadb"/></linearGradient><linearGradient id="q" x1="69.87" x2="78.62" xlink:href="#p" y1="84.38" y2="69.24"/><path d="m14 87.37 63.07-1.14s8.4-79.42-28.9-79.42-34.17 80.56-34.17 80.56z" fill="#b30042"/><path d="m56.57 81.26c-.16-.94 0-12 0-12l-8.38 2.28-8.38-2.28s.16 11.07 0 12-11.53 5.91-11.53 5.91a176 176 0 0 0 19.91 1.15 176 176 0 0 0 19.91-1.15s-11.36-4.97-11.53-5.91z" fill="url(#a)"/><path d="m39.87 74.45s8.27 5.39 16.63 3.77l.07-9h-16.76z" fill="#ab5192" opacity=".6"/><path d="m80.14 45a17.15 17.15 0 0 1 -.42 1.68c-1.11 3.57-2.79 4.42-3.47 6-.58 1.39-2.88 4.19-5.16 1.28s1.09-11.83 2-14c0 0 1.25-3.22 3.51-3.71 2.85-.58 4.68 3.24 3.54 8.75z" fill="url(#b)"/><path d="m71.86 46.65s4.55-6.6 6.72-7 1.09 5.17.65 7a11.55 11.55 0 0 1 -1.09 3 25.7 25.7 0 0 0 .65-4c.16-2.56-.66-4.75-1.57-4.54s-2.14 3.4-2.22 3.77.61 1 .57 3-.99 4.12-1.51 4.12-.29-1.64-.29-3.49-1.45-1.5-2.09-.29z" fill="url(#c)" opacity=".6"/><path d="m71.68 48.23s1.16-1.77 1.86-1 .2 3 .74 3.3 1.26-1.53 1.12-3.15-.8-3.12-1.73-2.85l-1.81 2.12z" fill="url(#d)" opacity=".6"/><path d="m79.71 46.69c-1.11 3.57-2.79 4.42-3.47 6-.58 1.39-2.88 4.19-5.16 1.28a3.14 3.14 0 0 0 2.79.69c1.41-.51 1.86-1.83 2.46-2.85s2.12-1.68 3.38-5.12z" fill="#b74556"/><path d="m15.66 45c.13.62.28 1.18.43 1.68 1.11 3.57 2.79 4.42 3.46 6 .59 1.39 2.89 4.19 5.16 1.28s-1.08-11.83-1.95-14c0 0-1.25-3.22-3.51-3.71-2.89-.58-4.72 3.24-3.59 8.75z" fill="url(#e)"/><path d="m23.94 46.65s-4.54-6.6-6.71-7-1.09 5.17-.65 7a11.11 11.11 0 0 0 1.09 3 26.49 26.49 0 0 1 -.66-4c-.15-2.56.66-4.75 1.58-4.54s2.14 3.42 2.21 3.79-.6 1-.56 3 1 4.15 1.51 4.12.29-1.64.29-3.49 1.45-1.5 2.09-.29z" fill="url(#f)" opacity=".6"/><path d="m24.13 48.23s-1.16-1.77-1.87-1-.19 3-.73 3.3-1.26-1.53-1.12-3.15.8-3.12 1.72-2.85l1.81 2.12z" fill="url(#g)" opacity=".6"/><path d="m16.1 46.69c1.11 3.57 2.79 4.42 3.46 6 .59 1.39 2.89 4.19 5.16 1.28a3.1 3.1 0 0 1 -2.78.69c-1.41-.51-1.86-1.83-2.46-2.85s-2.12-1.68-3.38-5.12z" fill="#b74556"/><path d="m74.19 38.84c-.57 2.89-1.27 5.93-1.76 9.43-1.28 9.21-4 13.44-10.28 17.51-6.56 4.27-8.53 5.93-14.19 6.14-5.67-.21-7.64-1.87-14.19-6.14-6.26-4.07-9-8.3-10.29-17.51-.28-2.06-.64-4-1-5.76-.27-1.34-.54-2.63-.79-3.89-.91-4.62-1.45-8.89-.22-14 1.28-5.33 5.69-12 12.4-16.12a26.47 26.47 0 0 1 14.13-4.17c14.53 0 24.47 11.72 26.5 20.2 1.21 5.25.62 9.59-.31 14.31z" fill="url(#h)"/><path d="m74.18 38.86c-.57 2.89-1.27 5.93-1.76 9.43-1.28 9.21-4 13.44-10.28 17.51-6.56 4.27-8.53 5.93-14.19 6.14-5.67-.21-7.64-1.87-14.19-6.14-6.26-4.07-9-8.3-10.29-17.51-.49-3.58-1.22-6.69-1.8-9.65.18.72 1.69 6.65 3.15 12.66 1.57 6.41 3.88 10.36 10.83 15.26 6.46 4.57 10.23 5 12.14 5h.33c1.91 0 5.68-.4 12.14-5 6.95-4.9 9.26-8.85 10.83-15.26 1.37-5.62 2.77-11.15 3.09-12.44z" fill="#ab5192" opacity=".6"/><path d="m33.84 8.41c-.29.21-7.75 5.7-8.28 10.78s-.22 11-1.88 15.91a18.34 18.34 0 0 0 -.54 9.38c0-.11-.3-.82-.68-1.95-.27-1.34-.54-2.63-.79-3.89-.91-4.62-1.45-8.89-.22-14 1.28-5.33 5.69-12 12.4-16.12z" fill="url(#i)" opacity=".6"/><path d="m62.05 8.41c.29.21 7.75 5.7 8.29 10.78s.21 11 1.88 15.91a18.28 18.28 0 0 1 .53 9.38c0-.11.3-.82.68-1.95.27-1.34.54-2.63.79-3.89a.09.09 0 0 0 0 0c.9-4.62 1.45-8.89.21-14-1.28-5.33-5.68-12-12.39-16.12z" fill="url(#j)" opacity=".6"/><path d="m6.39 78.52s3.52 7.38-2 8.85c0 0 14.69 2.74 17.86-6s-15.86-2.85-15.86-2.85z" fill="url(#k)"/><path d="m91.72 76.13s.31 8.16-8 9.74-13.56-1.58-13.56-1.58a11.47 11.47 0 0 0 3.44 2.11c-4.94.31-11.27-3-10.63-12.52s7-10.77 7.31-12.57-3-4.88-2.13-10.33 5-16-1.26-22.29-3.4-11.22-6.69-16.09a12.62 12.62 0 0 0 -9.14-5.09s-5.38 10.42-13.06 12.86-13 12.24-10.23 17.77-1.07 11.62-.95 15.33 4.76 4.73 5.25 12.53-4.3 7.62-3.79 14.54c.5 6.6 6.33 5.09 6.86 5s-1.07 2.22-5.68 1.8c-3.42-.33-4.38-3.51-4.66-5.15a.13.13 0 0 0 0-.06.66.66 0 0 0 0-.15c-.12 3.47-7.7 3.34-7.7 3.34s2.91-.51 3.31-2.13a0 0 0 0 1 0 0 2.17 2.17 0 0 0 -.4-1.65c-1.88-3-19.44.15-20-9.55s9-13.11 9.74-18.89-2.64-6.84-2.75-14.96c-.1-8.6 5.66-17.21 10.46-22.15s3.32-9.2 10.81-14c7.17-4.62 16.4.17 23 1.37 1.14.22 2.26.41 3.35.6 6.64 1.12 12.32 2.04 15.2 4.45 5.35 4.47 5.44 11.84 9.88 14.92s3.23 6.43 3.3 13.84 15.36 16.19 6.58 26.15c-.52.58-1 1.16-1.45 1.74l-.17.23a1.27 1.27 0 0 0 -.21.25l-.15.2c-6.8 9-6.52 17.12-1.76 16.44 5.21-.71 5.88-6.05 5.88-6.05z" fill="url(#l)"/><path d="m53.49 4.92-.33 2.94a11.87 11.87 0 0 0 -2.1-.35s-5.38 10.42-13.06 12.86-13 12.24-10.23 17.77-1.07 11.62-.95 15.33 4.76 4.73 5.25 12.53-4.3 7.62-3.79 14.54c.5 6.6 6.33 5.09 6.86 5-2.69 1.47-8 .89-7.86-3.89s2.85-7.93 3.23-13.28-6.34-8.82-5.89-13.07 4.63-11.91 2.66-15-5.94-5.3-2.23-11.3 9.06-8.46 14.64-10.93 10-11.87 10-11.87c-1.62-.63-7.13-.56-11.76.07s-3.39 4.73-5.5 10.56-8.9 7.69-11.71 14.4 3 14.33 1 22.82-2.49 12.95 1.38 19.83 1.74 8.29 1.74 8.29a.13.13 0 0 0 0-.06.5.5 0 0 0 0-.17s0 0 0 0c-.52-2.9-6.2-6-8.18-9.93s4-13 4.11-17.56-3.95-7-4.62-14 7.07-13.06 10.26-19.06 1-11.39 6.15-14.58 16.31-1.24 16.92-1.14c-.48-.25-10.27-5.23-17.13-2.67-7 2.62-7.2 11.36-11.63 14.39s-11.09 5.94-11.8 14.61 9.52 15.25 10.56 19.83-13.96 10.89-14.09 14.84 13.61 9.46 15.33 12.12a3.26 3.26 0 0 1 -.3 4.37c1-2-.69-3.64-9.67-5.25s-10.19-10.51-2.19-17.03 4-10.24.28-19.69 1.91-18.22 10-24.08 6.39-16.73 17.68-15.39 16.97 3.2 16.97 3.2z" fill="url(#m)"/><path d="m53.16 7.86s7.06.71 10 2.41-.16 10.53 1.84 14.19 6.36 4.44 8.79 7.78-5.1 14.76-3.49 21.81 4.69 5.14 5.48 7.78-9.23 2.22-11.31 10.11 2.15 12.32 2.15 12.32-3.08-6.55 1.48-12.32 9.43-6.19 10.7-9-5.67-3.42-7.53-7.62 1.82-13.94 2.91-15.35 7.66 9.03 11.19 12.72 1.24 9.18-5.66 12.85-11.71 14.94-8.87 19.4l2.7.68a17.21 17.21 0 0 1 2.24-14.5c4.86-7.56 12.67-8.42 13.33-15s-13.32-12.29-13.33-19.54 3.09-6.69-3.4-9.65-7.63-8.83-6.5-15.39-12.39-5.65-12.39-5.65z" fill="url(#n)"/><path d="m89.61 63.32c-.52.58-1 1.16-1.45 1.74 1.16-1.55 3.75-5.49 3.46-9.15-.38-4.72-7.74-10.44-9.8-14.93s-.16-8-.8-12.55-4.49-3.28-7.93-6.78-.43-10-4.84-13.47-14.76-3.26-14.76-3.26l1.11-1c6.66 1.16 12.34 2.08 15.22 4.49 5.35 4.47 5.44 11.84 9.88 14.92s3.23 6.43 3.3 13.84 15.39 16.19 6.61 26.15z" fill="url(#o)"/><path d="m24.84 82.17s-.37-2.16-5.16-6.38.73-15.35.73-15.35a16.22 16.22 0 0 0 1.85 11.84c3.55 5.86 2.58 9.89 2.58 9.89z" fill="url(#p)"/><path d="m70.84 84.94s-4.14-8.71 5.59-17a28.66 28.66 0 0 0 -2.89 17.65z" fill="url(#q)"/><g fill="#ffd9bb"><path d="m47.46 10.23s-3.58 5.53-6 6.85c0 0 1.34-2.19 1.16-2.65s-4.69-1.3-6.14-2.5-1.69-3.17-2.2-2.43a4.58 4.58 0 0 1 3.72-3.19 2.54 2.54 0 0 0 -.17 2.48c.6 1.51 4.06 1.62 5.65 1.69a29.48 29.48 0 0 0 3.98-.25z"/><path d="m30.4 8.75s1.46-2.75 6.77-3.42a12 12 0 0 1 -3.39-.33 2.12 2.12 0 0 1 -1.43-2 11.73 11.73 0 0 0 -5.07 4.1z"/><path d="m60.27 10.9a12.6 12.6 0 0 1 2.4 5.76l1.24-.36a7 7 0 0 0 0-3.91 4.33 4.33 0 0 0 -2.33-2.26z"/><path d="m65.14 7.73a4.21 4.21 0 0 1 1 4 10 10 0 0 0 -.25 4 8.42 8.42 0 0 1 4-2.31s-.19-3.26-1.3-4.18a10.68 10.68 0 0 0 -3.45-1.51z"/><path d="m75.4 57.28s4.31 1.91 4.31 5.08a12.61 12.61 0 0 0 1.53-2c1.06-1.53 5-3.12 5-3.12s1.06-2.33-1.53-4.39a1.51 1.51 0 0 1 -.71 1.89c-1.07.64-8.6 2.54-8.6 2.54z"/><path d="m88.45 52.14a4.79 4.79 0 0 1 .9 3.94l2-.44s-.31-2.56-1.46-3.49z"/><path d="m21.66 38.57 1.8-1.4s-1.24-5.92 1.16-8.37l-2.95 1.61s-3.67 5.45-.01 8.16z"/><path d="m19.82 29.75s-7.67 1.47-10.43-.53a12.3 12.3 0 0 0 .3 7.87s-.24-1.92.39-2.59 5.53-.51 6-.35.76 1.47.76 1.47 1.33-4.39 2.98-5.87z"/></g></svg>