<svg viewBox="0 0 167.64 206.25" xmlns="http://www.w3.org/2000/svg" xmlns:xlink="http://www.w3.org/1999/xlink"><linearGradient id="a" gradientUnits="userSpaceOnUse" x1="41.72" x2="41.72" y1="206.25" y2=".2"><stop offset="0" stop-color="#ab4d4b"/><stop offset="1" stop-color="#9a3651"/></linearGradient><linearGradient id="b" x1="125.54" x2="125.54" xlink:href="#a" y1="205.5" y2="0"/><linearGradient id="c" gradientUnits="userSpaceOnUse" x1="53.78" x2="53.78" y1="181.84" y2="17.08"><stop offset="0" stop-color="#ffeadb"/><stop offset=".99" stop-color="#d177f4"/></linearGradient><linearGradient id="d" x1="13.74" x2="13.74" xlink:href="#c" y1="202.65" y2="74.19"/><linearGradient id="e" gradientUnits="userSpaceOnUse" x1="22.24" x2="22.24" y1="206.25" y2="101.05"><stop offset=".01" stop-color="#d177f4"/><stop offset="1" stop-color="#ffeadb"/></linearGradient><linearGradient id="f" x1="108.05" x2="108.05" xlink:href="#c" y1="124.59" y2="21.1"/><linearGradient id="g" x1="139.48" x2="139.48" xlink:href="#e" y1="205.5" y2="27.31"/><path d="m83.44 3.13v18.59a76 76 0 0 0 -20 9.85c-10.14 7.12-25.35 24.51-33.27 49.48-6.16 19.43-4.88 66.84 5.13 99.82 2.85 9.41 6.43 17.63 10.73 23.71-.32-.21-7.31-4.8-13.42-18.63a99.75 99.75 0 0 1 -6.74-23c-.23-1.26-.44-2.48-.6-3.66 0 0 .68 27.15 13.49 44.74l-5.76 2.22s-25.88-23.14-27.29-88.81q0-2.22-.06-4.53s-.08.41-.22 1.2c-1.27 7.7-6.76 50.87 22.06 88.54-.83-.65-27.23-21.65-27.49-76.4a228.44 228.44 0 0 1 5.65-52.06c6.2-27.19 15.99-45.91 21.35-54.62 10-16.44 31.16-23.98 56.44-16.44z" fill="url(#a)"/><path d="m161.48 98.31c3.52 63.47-28.81 107.19-28.81 107.19l-4.25-1.9a0 0 0 0 1 0 0 1.67 1.67 0 0 1 .07-.2c.47-1.43 3.18-9.63 6.34-21.4v-.1c6.83-25.55 15.67-67.73 8-93.68-11-37.39-29.88-59-31.61-60.88a.4.4 0 0 0 -.07-.09v.05c.22.28 1 1.26 2.1 2.89.16.22.31.44.46.67l.31.44c6.47 9.65 21.62 35.82 24.3 73.06 3.33 46.29-10.88 95.66-11.69 98.39a255 255 0 0 0 5.77-78.5c-4.58-53.92-25.9-88.16-30.17-93-6.1-6.91-18.89-9.47-18.89-9.47v-18.65s20.72-4.61 30.18-2.64 45.24 23.34 52.66 89.57c.67 6 1.09 11.7 1.3 17.18 2.1 54.43-16.39 84.18-16.93 85.05 19.88-49.84 10.93-93.98 10.93-93.98z" fill="url(#b)"/><path d="m83.44 21.72a76 76 0 0 0 -20 9.85c-10.14 7.12-25.35 24.51-33.27 49.48-6.16 19.43-4.88 66.84 5.13 99.82l-.29 1s-15.1-55.68-9.74-91.78 34.85-70.22 42.93-72.52 15.24 4.15 15.24 4.15z" fill="url(#c)"/><path d="m27.49 202.65c-.83-.65-27.23-21.65-27.49-76.4a228.44 228.44 0 0 1 5.65-52.06 243.89 243.89 0 0 0 -.22 39.92c-1.27 7.7-6.76 50.89 22.06 88.54z" fill="url(#d)"/><path d="m38.76 204-5.76 2.25s-25.88-23.14-27.29-88.81c4.3 47.29 21.18 76.75 21.78 77.79-14.91-33.38-12.26-94.18-12.26-94.18 1.66 63.93 13.29 89.81 13.65 90.6-4.06-14.57-3.61-32.38-3.61-32.38s.73 27.15 13.49 44.73z" fill="url(#e)"/><path d="m132.67 124.59-.17-.39c-4.58-53.92-25.9-88.16-30.17-93-6.1-6.91-18.89-9.47-18.89-9.47s14.21-1.84 18.89.84 26.73 36.34 30.34 102.02z" fill="url(#f)"/><path d="m161.48 98.31c3.52 63.47-28.81 107.19-28.81 107.19l-4.25-1.9a0 0 0 0 1 0 0s0-.1.07-.2a190.86 190.86 0 0 0 6.34-21.4v-.1c6.83-25.55 15.67-67.73 8-93.68-11-37.39-29.88-59-31.61-60.88 2.1 1.85 28.83 26.56 38.64 64.6 10.19 39.61-17.78 103.34-17.78 103.34s25.69-36.75 24.55-92.5c0 0 3.35 34.46-9.18 66.86.46-.77 16.74-28.6 13-85.5 0 0 3.56 10.35 7 23.13 2.1 54.43-16.39 84.18-16.93 85.05 19.91-49.87 10.96-94.01 10.96-94.01z" fill="url(#g)"/><path d="m83.44 3.13s1.85 9.36 0 16.07c0 0 13.78-3.67 18.19-2.12a16.89 16.89 0 0 0 -9.1-2.86s-3.37-1.92-4-3.74 2.38-8.78 2.38-8.78z" fill="#d177b8" opacity=".6"/><g fill="#ffd9bb"><path d="m43.92 43.85s1.24-4 .95-5.38-6-3.07-10.93-6.23-1.51-13.84-1.94-15.16-2.67-1-2.67-1 4.1-5.18 7.78-7.57c0 0-5.17 7.67-1.23 15.29s18.76 5.57 18.76 5.57-7.34 9.02-10.72 14.48z"/><path d="m109.39 31.85a81.79 81.79 0 0 1 7.53 15.64s2.8-3.44 5-2.94a123.67 123.67 0 0 0 -7.36-12.7z"/><path d="m116 31.85s2.16 1 7.05-3.15 6.18-19.28 6.18-19.28a96.53 96.53 0 0 1 9.23 9.11s-3-.29-4.49.67-.76 10.84-3.06 16.88-5.47 3.74-5.33 6.8z"/></g></svg>