<svg viewBox="0 0 39.44 21.66" xmlns="http://www.w3.org/2000/svg"><path d="m1.12 5s4.23 15.24 17.81 15.24c13.8 0 18.22-14.58 18.22-14.58s-4.85 3.34-17.43 3.34-18.6-4-18.6-4z" fill="#ea336b"/><path d="m36.28 6.11a55.23 55.23 0 0 1 -16.56 2.89 50.91 50.91 0 0 1 -14.94-2.62l-.21-.06-.72-.26-.71-.24-.37-.14h.07c.59-.36 5.51-5.5 15.75-5.68h2.16c9.41.19 14.13 5.25 15.25 5.93z" fill="#bd336b"/><g fill="#842751"><path d="m.12 4.37-.12-.08z"/><path d="m19.72 8.37c-12.58.15-18.72-3.44-19.6-4 7.58 5.05 19.56 6.47 19.56 6.47s12.07-1.42 19.64-6.47c-.88.56-7.02 4.15-19.6 4z"/><path d="m39.32 4.37.12-.08z"/></g><path d="m7 15s5 6.62 12.58 6.62 11.8-6.62 11.8-6.62-4.15 4-12.25 4-12.13-4-12.13-4z" fill="#d177b8" opacity=".6"/><path d="m2.84 5.64c.59-.32 5.51-5.46 15.75-5.64a20.1 20.1 0 0 0 -13.81 6.38l-.19-.08-.72-.26-.71-.24-.37-.14z" fill="#d177b8" opacity=".6"/><path d="m36 5.93-1.33.47a19.73 19.73 0 0 0 -13.92-6.4c9.41.19 14.13 5.25 15.25 5.93z" fill="#d177b8" opacity=".6"/></svg>