<svg viewBox="0 0 23.58 18.92" xmlns="http://www.w3.org/2000/svg" xmlns:xlink="http://www.w3.org/1999/xlink"><linearGradient id="a" gradientUnits="userSpaceOnUse" x1="11.86" x2="11.86" y1="15.6"><stop offset="0" stop-color="#87080c"/><stop offset=".08" stop-color="#880b0c"/><stop offset=".54" stop-color="#8c170d"/><stop offset="1" stop-color="#8d1b0d"/></linearGradient><linearGradient id="b" gradientUnits="userSpaceOnUse" x1="17.26" x2="22.55" y1="13.33" y2="13.33"><stop offset=".02" stop-color="#0a0041"/><stop offset=".99" stop-color="#4b1752"/></linearGradient><linearGradient id="c" x1=".67" x2="5.77" xlink:href="#b" y1="13.26" y2="13.26"/><path d="m.67 12.77s-2.95-12.77 10.94-12.77 11.56 12.52 11.56 12.52l-.62.25s-3.79 2.83-10.94 2.83-10.94-2.83-10.94-2.83z" fill="url(#a)"/><path d="m11.32 14c-6 .09-7-6.24-10.65-1.27 3.71-.12 6.7 2.8 10.94 2.83s7.22-2.95 10.94-2.83c-1.23-4.93-5.66 1.27-11.23 1.27z" fill="#5f0546" opacity=".6"/><path d="m17.26 14.14a5 5 0 0 1 5.29-1.37z" fill="url(#b)" opacity=".5"/><path d="m.67 12.77s2.18-1.28 5.1 1.29z" fill="url(#c)" opacity=".5"/><g fill="#5f0546"><path d="m2.07 3.78a9.24 9.24 0 0 0 -1.65 8.74 32.78 32.78 0 0 1 1.65-8.74z" opacity=".6"/><path d="m21.52 3.78a9.27 9.27 0 0 1 1.65 8.74 33.25 33.25 0 0 0 -1.65-8.74z" opacity=".6"/><path d="m.67 12.77s6 6.15 10.94 6.15 10.94-6.15 10.94-6.15c-1.78-5-4.62.9-11.23 1.27-3.5.2-7.5-6.24-10.65-1.27z" opacity=".6"/></g><path d="m16.32 9.63c0-.73.72-1.55 1.31-1.48s.29 1.66 0 2-1.31-.52-1.31-.52z" fill="#8d5a46"/></svg>