<svg viewBox="0 0 30.97 18.92" xmlns="http://www.w3.org/2000/svg" xmlns:xlink="http://www.w3.org/1999/xlink"><linearGradient id="a" gradientUnits="userSpaceOnUse" x1="15.58" x2="15.58" y1="15.6"><stop offset="0" stop-color="#ad2e32"/><stop offset=".08" stop-color="#ae3132"/><stop offset=".54" stop-color="#b23d33"/><stop offset="1" stop-color="#b34133"/></linearGradient><linearGradient id="b" gradientUnits="userSpaceOnUse" x1="22.67" x2="29.61" y1="13.33" y2="13.33"><stop offset=".02" stop-color="#300567"/><stop offset=".99" stop-color="#713d78"/></linearGradient><linearGradient id="c" x1=".88" x2="7.58" xlink:href="#b" y1="13.26" y2="13.26"/><path d="m.88 12.77s-3.88-12.77 14.36-12.77 15.19 12.52 15.19 12.52l-.82.25s-5 2.83-14.37 2.83-14.36-2.83-14.36-2.83z" fill="url(#a)"/><path d="m14.87 14c-7.94.09-9.19-6.24-14-1.27 4.88-.12 8.79 2.8 14.36 2.83s9.49-2.95 14.37-2.83c-1.6-4.93-7.42 1.27-14.73 1.27z" fill="#852b6c" opacity=".6"/><path d="m22.67 14.14s2.46-2.38 6.94-1.37z" fill="url(#b)" opacity=".5"/><path d="m.88 12.77s2.86-1.28 6.7 1.29z" fill="url(#c)" opacity=".5"/><g fill="#852b6c"><path d="m2.71 3.78a7.78 7.78 0 0 0 -2.16 8.74 26.17 26.17 0 0 1 2.16-8.74z" opacity=".6"/><path d="m28.26 3.78a7.8 7.8 0 0 1 2.17 8.74 26.33 26.33 0 0 0 -2.17-8.74z" opacity=".6"/><path d="m.88 12.77s7.83 6.15 14.36 6.15 14.37-6.15 14.37-6.15c-2.33-5-6.06.9-14.74 1.27-4.6.2-9.87-6.24-13.99-1.27z" opacity=".6"/></g><path d="m21.44 9.63c-.06-.73.94-1.55 1.72-1.48s.38 1.66 0 2-1.72-.52-1.72-.52z" fill="#b3806c"/></svg>