<svg viewBox="0 0 147.03 184.61" xmlns="http://www.w3.org/2000/svg" xmlns:xlink="http://www.w3.org/1999/xlink"><linearGradient id="a" gradientUnits="userSpaceOnUse" x1="73.52" x2="73.52" y1="184.61"><stop offset="0" stop-color="#ffb396"/><stop offset="1" stop-color="#ffe0bb"/></linearGradient><linearGradient id="b" gradientUnits="userSpaceOnUse" x1="135.79" x2="135.79" y1="84.14" y2="47.49"><stop offset=".01" stop-color="#d177f4"/><stop offset="1" stop-color="#ffeadb"/></linearGradient><linearGradient id="c" x1="123.9" x2="123.9" xlink:href="#b" y1="52.05" y2="50.33"/><linearGradient id="d" x1="72.01" x2="72.01" xlink:href="#b" y1="166.14" y2="34.01"/><linearGradient id="e" x1="80.67" x2="80.67" xlink:href="#a" y1="77.6" y2="7.2"/><linearGradient id="f" x1="83.68" x2="83.68" xlink:href="#b" y1="77.6" y2="14.99"/><linearGradient id="g" gradientUnits="userSpaceOnUse" x1="68.97" x2="108.28" y1="36.39" y2="36.39"><stop offset="0" stop-color="#ffeadb"/><stop offset=".99" stop-color="#d177f4"/></linearGradient><linearGradient id="h" x1="108.8" x2="123.9" xlink:href="#g" y1="44.63" y2="44.63"/><path d="m146.91 83.86v.28a25.12 25.12 0 0 0 -6-17c0 .84.06 1.69 0 2.53.18 21.74-8.94 44.94-8.94 44.94s-3-10.32-4-14.5-2.11-24.25-7-38.25-12.13-21.1-15.16-22.06-17.72-.93-46.39 21.51c-21 16.4-29.25 33.68-32.2 41.81a37.73 37.73 0 0 0 -1.45 4.76c-1-6.91 2.05-24 2.29-25.37a307.48 307.48 0 0 0 -8.84 51.61q-.48 5.91-.7 12.05c-.89 27.67 4.6 36.27 6.57 38.42a42 42 0 0 1 -10.77-18.47c0-.12-.06-.26-.1-.38-3-11.93 1.57-22.88-7-54.76a124.81 124.81 0 0 1 -3.89-21.2c0-.06 0-.12 0-.16-.06-.6-.08-1.16-.12-1.67 0-.3 0-.58 0-.84-.06-1.25-.1-2.47-.1-3.62 0-.84 0-1.68.06-2.45a35.25 35.25 0 0 1 1.34-8.39c-.26.64-.48 1.28-.68 1.92a46.39 46.39 0 0 0 -1.77 19.85c-5.9-19.16.25-40.68 26.62-56.87s40.32-29.05 44.66-29.63 12.76 6.62 12.76 6.62 7.65-7.54 12.36-5.28 11.71 26.82 11.71 26.82c2.69-9.84-5.59-36.08-5.59-36.08 13.58 6.79 7.4 36.08 7.4 36.08 2.65 3 20.25 6.43 28.44 20.15a48.64 48.64 0 0 1 6.49 27.63z" fill="url(#a)"/><path d="m146.91 83.86v.28a25.12 25.12 0 0 0 -6-17c-3.46-8.36-16.28-19.67-16.28-19.67s12.58 8.1 17.86 16.84c4.78 7.95 4.51 17.78 4.42 19.55z" fill="url(#b)"/><path d="m124.47 52.05c-.36-.58-.76-1.14-1.14-1.72a19.4 19.4 0 0 1 1.14 1.72z" fill="url(#c)"/><path d="m141 69.69c.18 21.74-8.94 44.94-8.94 44.94s-3-10.32-4-14.5-2.11-24.25-7-38.25-12.22-21.12-15.25-22.08-17.72-.93-46.39 21.51c-21 16.4-29.25 33.68-32.2 41.81a37.73 37.73 0 0 0 -1.45 4.76c-1-6.91 2.05-24 2.29-25.37a307.48 307.48 0 0 0 -8.84 51.61c-.24.78-.48 1.53-.7 2.29a99.75 99.75 0 0 0 -4.2 29.71c0-.12-.06-.26-.1-.38-3-11.93 1.57-22.88-7-54.76a124.81 124.81 0 0 1 -3.89-21.2c0-.06 0-.12 0-.16-.06-.6-.08-1.16-.12-1.67 0-.3 0-.58 0-.84-.06-1.25-.1-2.47-.1-3.62 0-.84 0-1.68.06-2.45a45.49 45.49 0 0 1 .66-6.47c1.37-8.19 4.32-11.81 4.32-11.81-5 15.47 2.57 36.1 2.57 36.1 1-29.41 21.08-52.71 21.08-52.71-17.6 25-18.91 62.46-18.91 62.46s.93-11 12.92-36.67c11.57-24.85 28.61-37.2 29.65-37.94-23.2 19.26-27.38 48.43-27.38 48.43 7.78-22 18.82-35.68 26.62-43.25-19.49 20.31-26.46 57.82-27.36 63.26.66-3.06 4-16 17.13-33.27 15.09-19.75 58.59-32.81 62.62-30.94s14.71 15.77 18.91 34.09 8.5 24.88 8.5 24.88c1.32-22.55-5.65-37.69-9.32-44 13.21 21.29 10.82 40.88 10.82 40.88 4.18-10.08 4.89-22.66 5-24.39z" fill="url(#d)" opacity=".5"/><path d="m64.52 36.92c-11.55 19.69-3 40.68-3 40.68s-1.17-18.38 8.18-35.2c10.37-18.67 31.78-29.86 33.12-26.83.04 0-8.69-29.14-38.3 21.35z" fill="url(#e)"/><path d="m61.56 77.6s-2.41-19.29 7-37.51c11.32-21.88 33.18-27 34.29-24.52s3.22 7.91 3.22 7.91-5.39-7.12-20.6.55-24.91 33.07-23.91 53.57z" fill="url(#f)" opacity=".5"/><path d="m108.28 37.73s-3.88-7.3-12.14-7.6c-13.64-.51-27.14 13.7-27.14 13.7s12.87-14.83 25.79-14.83c10.85 0 13.49 8.73 13.49 8.73z" fill="url(#g)" opacity=".5"/><path d="m108.8 38.11s10 4.86 15.1 13c0 .03-7.18-8.28-15.1-13z" fill="url(#h)" opacity=".5"/><g fill="#fff4ca"><path d="m117.7 51.14a115.64 115.64 0 0 1 8.3 21.18l3.93-6.5s-3.63-11.32-12.23-14.68z"/><path d="m122.34 48.92a73.87 73.87 0 0 1 8 13.76s.27-6.68-8-13.76z"/><path d="m126.32 49-.88.53s4.53 4.29 6.37 8.25l2.19-.78a95.52 95.52 0 0 0 -7.68-8z"/><path d="m128.29 50.07s4.09-.51 4.32-2.58a26.27 26.27 0 0 1 5.14 5 4.24 4.24 0 0 0 -3.35-1.28 2.32 2.32 0 0 0 -1.86 2.24z"/><path d="m69 29.68s-8.89 12.1-9.86 22.37l4.86-.86a49.82 49.82 0 0 1 14.29-24.3s-5.93 2.9-9.29 2.79z"/><path d="m64 29.6s-17.6 15.63-24.7 29.08l1.12-7.49s9-12.58 18.07-19.87z"/><path d="m55.18 31.41s-14.43 14.59-23.01 26.41c0 0 2.45-7.64 2.07-9.52a3 3 0 0 0 -2.48-2.15s8.24-10.96 19.91-17.85a5.07 5.07 0 0 0 3.51 3.11z"/><path d="m48.67 26.89s-10.09 5.66-16 11.22c-.03 0 6.1-9.61 16-11.22z"/></g><path d="m25.77 107.88s10-38 32.89-52.08l-.17 6.25s-25.29 19.79-32.72 45.83z" fill="#d177b8" opacity=".6"/><path d="m64.93 52.83s19.38-10.83 30.13-11.95c0 0-15.12 4.7-31.6 17.34z" fill="#d177b8" opacity=".6"/><path d="m111.59 44.63s11.2 9.46 16.7 37.21 3.71 32.79 3.71 32.79a108.76 108.76 0 0 1 -5.39-21.63c-1.26-10.56-2.71-34.32-15.02-48.37z" fill="#d177b8" opacity=".6"/></svg>