<svg viewBox="0 0 212.56 202.06" xmlns="http://www.w3.org/2000/svg" xmlns:xlink="http://www.w3.org/1999/xlink"><linearGradient id="a" gradientUnits="userSpaceOnUse" x1="31.1" x2="31.1" y1="202.06" y2="176.26"><stop offset="0" stop-color="#fc4a4b"/><stop offset="1" stop-color="#ca1d3b"/></linearGradient><linearGradient id="b" x1="106.28" x2="106.28" xlink:href="#a" y1="201.13" y2="0"/><linearGradient id="c" gradientUnits="userSpaceOnUse" x1="22.59" x2="120.78" y1="180.04" y2="9.96"><stop offset="0" stop-color="#ffeadb"/><stop offset=".99" stop-color="#d177f4"/></linearGradient><linearGradient id="d" x1="109.63" x2="184.54" xlink:href="#c" y1="168.72" y2="38.96"/><linearGradient id="e" x1="143.7" x2="189.76" xlink:href="#c" y1="115.56" y2="35.78"/><linearGradient id="f" gradientUnits="userSpaceOnUse" x1="42.52" x2="61.64" y1="180.71" y2="147.59"><stop offset=".01" stop-color="#d177f4"/><stop offset="1" stop-color="#ffeadb"/></linearGradient><linearGradient id="g" x1="160.85" x2="180.98" xlink:href="#f" y1="194.25" y2="159.39"/><path d="m14.71 180.77s8.09 17-4.58 20.36c0 0 33.82 6.3 41.12-13.85s-36.54-6.51-36.54-6.51z" fill="url(#a)"/><path d="m211.14 175.25s.73 18.79-18.52 22.44-31.21-3.69-31.21-3.69c2 2.41 7.9 4.86 7.9 4.86-11.37.72-25.94-6.82-24.47-28.82s16.08-24.8 16.83-29-6.82-11.21-4.89-23.77 11.47-36.92-2.91-51.31-7.72-25.83-15.28-37a27.23 27.23 0 0 0 -16.21-10.91 25.67 25.67 0 0 0 -4.84-.79s-12.38 24-30.16 29.59-29.79 28.21-23.46 40.95-2.45 26.76-2.19 35.3 10.96 10.9 12.09 28.9-9.9 17.55-8.72 33.47c1.16 15.21 14.56 11.74 15.8 11.4a.12.12 0 0 0 .08 0s-2.45 5.13-13.07 4.13c-7.88-.75-10.09-8.08-10.73-11.84a.27.27 0 0 0 0-.15 1.21 1.21 0 0 0 0-.34c-.28 8-17.73 7.7-17.73 7.7s6.69-1.19 7.62-4.92a.1.1 0 0 1 0-.07 5 5 0 0 0 -.92-3.79c-4.33-6.82-44.75.34-46-22s20.79-30.18 22.41-43.48-6.1-15.62-6.33-34.32c-.23-19.79 13-39.63 24.08-51s7.55-21.17 24.79-32.26c16.52-10.62 37.75.39 52.9 3.17 2.62.49 5.19.93 7.72 1.36 15.33 2.63 28.4 4.74 35 10.29 12.3 10.3 12.5 27.28 22.75 34.35s7.43 14.8 7.66 31.86 35.36 37.28 15.13 60.21c-1.18 1.33-2.31 2.67-3.32 4a6.46 6.46 0 0 1 -.41.51 3.3 3.3 0 0 0 -.46.6c-.18.23-.31.38-.36.46-15.64 20.79-15 39.41-4 37.84 11.89-1.63 13.43-13.93 13.43-13.93z" fill="url(#b)"/><path d="m123.15 11.33-.77 6.76a25.67 25.67 0 0 0 -4.84-.79s-12.38 24-30.16 29.59-29.79 28.17-23.46 40.91-2.45 26.76-2.19 35.3 10.96 10.9 12.09 28.9-9.9 17.55-8.72 33.47c1.16 15.21 14.56 11.74 15.8 11.4-6.2 3.4-18.42 2.06-18.09-8.95s6.56-18.24 7.44-30.57-14.62-20.3-13.56-30.08 10.65-27.43 6.12-34.58-13.69-12.17-5.14-25.84 20.86-19.48 33.7-25.16 23.08-27.33 23.08-27.33c-3.73-1.44-16.41-1.28-27.07.16s-7.87 10.75-12.73 24.24-20.48 17.7-26.94 33.14 6.79 33 2.19 52.54-5.64 29.69 3.29 45.64 4 19.09 4 19.09a.27.27 0 0 0 0-.15 2.55 2.55 0 0 0 0-.39s0 0 0 0 0-.08 0-.1c-1.21-6.69-14.28-13.87-18.83-22.88-4.71-9.31 9.26-29.84 9.47-40.42s-9.23-16.18-10.77-32.23 16.28-30 23.62-43.85 2.41-26.15 14.32-33.47c11.55-7.11 37.54-2.86 39-2.63-1.2-.57-23.73-12.05-39.53-6.15-16.19 6.1-16.57 26.17-26.76 33.1s-25.55 13.7-27.17 33.7 21.92 35.09 24.31 45.64-32.13 25-32.44 34.15 31.36 21.76 35.3 27.89c3.75 5.84-.34 9.72-.7 10.06v-.05c2.22-4.56-1.59-8.37-22.25-12.07-20.82-3.73-23.47-24.16-5.05-39.16s9.11-23.57.65-45.34 4.4-41.94 23.08-55.42 14.64-38.52 40.62-35.4 39.09 7.33 39.09 7.33z" fill="url(#c)"/><path d="m122.38 18.09s16.25 1.65 23.07 5.55-.36 24.25 4.15 32.66 14.62 10.24 20.23 17.92-11.7 34-8 50.21 10.78 11.82 12.61 17.92-21.25 5.09-26 23.26 5 28.36 5 28.36-7.11-15.08 3.4-28.36 21.71-14.24 24.64-20.82-13.07-7.89-17.34-17.55 4.2-32.09 6.7-35.35 17.63 21 25.75 29.41 2.87 21.13-13 29.58-26.87 34.4-20.41 44.66l6.23 1.56s-6-16 5.15-33.38 29.16-19.38 30.67-34.62-30.65-28.19-30.68-44.89 7.12-15.4-7.83-22.22-17.55-20.31-15-35.43-28.52-13-28.52-13z" fill="url(#d)"/><path d="m206.28 145.77c-1.18 1.33-2.31 2.67-3.32 4 2.65-3.58 8.62-12.63 7.95-21.07-.87-10.86-17.8-24-22.56-34.38s-.36-18.39-1.83-28.89-10.34-7.54-18.27-15.59-1-23-11.14-31-34-7.51-34-7.51l2.55-2.27c15.33 2.63 28.4 4.74 35 10.29 12.3 10.3 12.5 27.28 22.75 34.35s7.43 14.8 7.66 31.86 35.44 37.28 15.21 60.21z" fill="url(#e)"/><path d="m57.18 189.17s-.85-5-11.86-14.69 1.68-35.35 1.68-35.35a37.35 37.35 0 0 0 4.26 27.26c8.15 13.5 5.92 22.78 5.92 22.78z" fill="url(#f)"/><path d="m163.08 195.54s-9.53-20 12.87-39.06c0 0-10.62 18.43-6.64 40.62z" fill="url(#g)"/><g fill="#ffd9bb"><path d="m109.26 23.55s-8.26 12.74-13.83 15.77c0 0 3.1-5 2.69-6.09s-10.8-3-14.13-5.77-3.9-7.29-5.08-5.6c0 0 1.89-6.63 8.47-7.34a5.86 5.86 0 0 0 -.38 5.71c1.38 3.49 9.35 3.73 13 3.9a67.75 67.75 0 0 0 9.26-.58z"/><path d="m70 20.14s3.36-6.45 15.59-7.88a27 27 0 0 1 -7.8-.69c-3.37-1-3.3-4.67-3.3-4.67s-8 3.22-11.67 9.45z"/><path d="m138.75 25.1s4.06 4.71 5.53 13.25l2.84-.82s1.54-5.2 0-9a10 10 0 0 0 -5.36-5.2z"/><path d="m150 17.79a9.75 9.75 0 0 1 2.28 9.13c-1.33 5.79-.57 9.23-.57 9.23s2.84-3.49 9.26-5.32c0 0-.43-7.52-3-9.63s-7.97-3.41-7.97-3.41z"/><path d="m173.57 131.87s9.92 4.38 9.92 11.7a29.27 29.27 0 0 0 3.52-4.51c2.44-3.54 11.46-7.19 11.46-7.19s2.44-5.37-3.53-10.12a3.49 3.49 0 0 1 -1.47 4.27c-2.56 1.46-19.9 5.85-19.9 5.85z"/><path d="m203.62 120a11 11 0 0 1 2.08 9.07l4.51-1s-.73-5.89-3.37-8z"/><path d="m49.85 88.8 4.15-3.23s-2.86-13.63 2.69-19.27l-6.8 3.7s-8.58 12.54-.04 18.8z"/><path d="m45.63 68.49s-17.67 3.39-24-1.23a28.4 28.4 0 0 0 .69 18.13s-.56-4.42.9-6 12.72-1.18 13.85-.81 1.74 3.42 1.74 3.42 3.03-10.1 6.82-13.51z"/></g></svg>