<svg viewBox="0 0 65.16 95.59" xmlns="http://www.w3.org/2000/svg" xmlns:xlink="http://www.w3.org/1999/xlink"><linearGradient id="a" gradientUnits="userSpaceOnUse" x1="32.87" x2="32.87" y1="95.59" y2="76.51"><stop offset="0" stop-color="#d98d77"/><stop offset=".23" stop-color="#d97568"/><stop offset=".48" stop-color="#d9615b"/><stop offset=".74" stop-color="#d95554"/><stop offset="1" stop-color="#d95151"/></linearGradient><linearGradient id="b" x1="60.45" x2="60.45" xlink:href="#a" y1="62.53" y2="43.49"/><linearGradient id="c" gradientUnits="userSpaceOnUse" x1="60.46" x2="60.46" y1="59.27" y2="46.86"><stop offset="0" stop-color="#d9c4b5"/><stop offset=".99" stop-color="#ab51ce"/></linearGradient><linearGradient id="d" x1="58.22" x2="58.22" xlink:href="#c" y1="57.85" y2="51.76"/><linearGradient id="e" gradientTransform="matrix(-1 0 0 1 444.12 0)" x1="439.41" x2="439.41" xlink:href="#a" y1="62.53" y2="43.49"/><linearGradient id="f" gradientTransform="matrix(-1 0 0 1 444.12 0)" x1="439.42" x2="439.42" xlink:href="#c" y1="59.27" y2="46.86"/><linearGradient id="g" gradientTransform="matrix(-1 0 0 1 444.12 0)" x1="437.18" x2="437.18" xlink:href="#c" y1="57.85" y2="51.76"/><linearGradient id="h" gradientUnits="userSpaceOnUse" x1="32.62" x2="32.62" y1="79.2" y2="11.59"><stop offset="0" stop-color="#d98470"/><stop offset=".43" stop-color="#d38573"/><stop offset=".55" stop-color="#d57d69"/><stop offset=".78" stop-color="#d8735d"/><stop offset="1" stop-color="#d97059"/></linearGradient><linearGradient id="i" x1="11.96" x2="11.96" xlink:href="#c" y1="51.74" y2="15.67"/><linearGradient id="j" gradientTransform="matrix(-1 0 0 1 792.19 0)" x1="738.9" x2="738.9" xlink:href="#c" y1="51.74" y2="15.67"/><linearGradient id="k" gradientUnits="userSpaceOnUse" x1="32.7" x2="32.7" y1="80.19"><stop offset="0" stop-color="#ffb396"/><stop offset="1" stop-color="#ffe0bb"/></linearGradient><linearGradient id="l" gradientUnits="userSpaceOnUse" x1="59.75" x2="59.75" y1="36.55" y2="20.63"><stop offset=".01" stop-color="#d177f4"/><stop offset="1" stop-color="#ffeadb"/></linearGradient><linearGradient id="m" x1="54.58" x2="54.58" xlink:href="#l" y1="22.61" y2="21.86"/><linearGradient id="n" x1="32.04" x2="32.04" xlink:href="#l" y1="72.17" y2="14.77"/><linearGradient id="o" x1="35.81" x2="35.81" xlink:href="#k" y1="33.71" y2="3.13"/><linearGradient id="p" x1="37.11" x2="37.11" xlink:href="#l" y1="33.71" y2="6.51"/><linearGradient id="q" gradientUnits="userSpaceOnUse" x1="30.72" x2="47.8" y1="15.81" y2="15.81"><stop offset="0" stop-color="#ffeadb"/><stop offset=".99" stop-color="#d177f4"/></linearGradient><linearGradient id="r" x1="48.02" x2="54.58" xlink:href="#q" y1="19.39" y2="19.39"/><path d="m41.25 88.52c-.17-.94 0-12 0-12l-8.38 2.28-8.39-2.28s.17 11.07 0 12-11.48 5.92-11.48 5.92a176 176 0 0 0 19.91 1.15 175.92 175.92 0 0 0 19.9-1.15s-11.39-4.98-11.56-5.92z" fill="url(#a)"/><path d="m24.54 81.72s8.28 5.39 16.64 3.76l.07-9h-16.77z" fill="#ab5192" opacity=".6"/><path d="m64.82 52.25a17 17 0 0 1 -.43 1.68c-1.1 3.57-2.78 4.41-3.46 6-.59 1.39-2.89 4.19-5.16 1.28s1.08-11.83 2-14c0 0 1.26-3.22 3.52-3.71 2.83-.57 4.71 3.25 3.53 8.75z" fill="url(#b)"/><path d="m56.54 53.91s4.54-6.6 6.72-7 1.08 5.17.65 7a11.31 11.31 0 0 1 -1.1 3 26.51 26.51 0 0 0 .66-4c.15-2.56-.66-4.76-1.57-4.55s-2.14 3.43-2.22 3.79.6 1 .56 3-1 4.15-1.5 4.12-.3-1.63-.3-3.49-1.45-1.5-2.09-.29z" fill="url(#c)" opacity=".6"/><path d="m56.35 55.49s1.17-1.77 1.87-1 .2 3 .73 3.3 1.26-1.53 1.12-3.18-.79-3.12-1.72-2.85l-1.81 2.12z" fill="url(#d)" opacity=".6"/><path d="m64.38 54c-1.1 3.57-2.78 4.41-3.46 6-.59 1.39-2.89 4.19-5.16 1.28a3.14 3.14 0 0 0 2.79.7c1.4-.52 1.85-1.83 2.45-2.85s2.12-1.74 3.38-5.13z" fill="#b74556"/><path d="m.34 52.25a17 17 0 0 0 .43 1.68c1.1 3.57 2.78 4.41 3.46 6 .58 1.39 2.88 4.19 5.16 1.28s-1.08-11.83-1.95-14c0 0-1.26-3.22-3.52-3.71-2.92-.57-4.71 3.25-3.58 8.75z" fill="url(#e)"/><path d="m8.62 53.91s-4.55-6.6-6.72-7-1.08 5.17-.65 7a11.55 11.55 0 0 0 1.09 3 27.13 27.13 0 0 1 -.65-4c-.16-2.56.66-4.76 1.57-4.55s2.14 3.43 2.22 3.79-.6 1-.56 3 1 4.15 1.5 4.12.3-1.63.3-3.49 1.45-1.5 2.09-.29z" fill="url(#f)" opacity=".6"/><path d="m8.81 55.49s-1.17-1.77-1.87-1-.2 3-.74 3.3-1.2-1.5-1.11-3.15.79-3.12 1.72-2.85l1.81 2.12z" fill="url(#g)" opacity=".6"/><path d="m.78 54c1.1 3.57 2.78 4.41 3.46 6 .58 1.39 2.88 4.19 5.16 1.28a3.15 3.15 0 0 1 -2.79.7c-1.41-.52-1.86-1.83-2.45-2.85s-2.16-1.74-3.38-5.13z" fill="#b74556"/><path d="m58.86 46.1c-.57 2.89-1.28 5.94-1.76 9.43-1.29 9.21-4 13.45-10.29 17.51-6.56 4.29-8.53 5.96-14.19 6.16-5.62-.2-7.62-1.87-14.19-6.14-6.25-4.06-9-8.3-10.28-17.51-.29-2.06-.65-3.95-1-5.76-.27-1.33-.54-2.62-.79-3.88 0 0 0 0 0-.06-.9-4.63-1.45-8.89-.21-14.05 1.25-5.34 5.65-11.96 12.36-16.13a26.52 26.52 0 0 1 14.1-4.07c14.54 0 24.48 11.72 26.51 20.2 1.27 5.25.67 9.58-.26 14.3z" fill="url(#h)"/><path d="m58.86 46.12c-.57 2.89-1.28 5.94-1.76 9.43-1.29 9.21-4 13.45-10.29 17.51-6.56 4.27-8.53 5.94-14.19 6.14-5.62-.2-7.62-1.87-14.19-6.14-6.25-4.06-9-8.3-10.28-17.51-.5-3.58-1.22-6.69-1.8-9.64.18.71 1.68 6.64 3.15 12.65 1.57 6.44 3.88 10.36 10.83 15.27 6.46 4.56 10.22 4.94 12.14 5h.32c1.92 0 5.68-.4 12.15-5 7-4.91 9.25-8.86 10.82-15.27 1.37-5.56 2.77-11.14 3.1-12.44z" fill="#ab5192" opacity=".6"/><path d="m18.51 15.67c-.29.21-7.74 5.7-8.28 10.78s-.21 11-1.88 15.92a18.25 18.25 0 0 0 -.53 9.37c0-.1-.3-.82-.68-2-.27-1.33-.54-2.62-.79-3.88 0 0 0 0 0-.06-.9-4.63-1.45-8.89-.21-14.05 1.26-5.29 5.66-11.91 12.37-16.08z" fill="url(#i)" opacity=".6"/><path d="m46.73 15.67c.29.21 7.75 5.7 8.28 10.78s.22 11 1.88 15.92a18.43 18.43 0 0 1 .54 9.37c0-.1.3-.82.68-2 .26-1.33.54-2.62.79-3.88a.13.13 0 0 1 0-.06c.91-4.63 1.45-8.89.21-14.05-1.27-5.33-5.68-11.95-12.39-16.12z" fill="url(#j)" opacity=".6"/><path d="m64.58 36.43a1.09 1.09 0 0 0 0 .12 10.9 10.9 0 0 0 -2.58-7.38v1.1c.08 9.45-3.88 19.52-3.88 19.52s-1.3-4.48-1.76-6.29-.93-10.5-3.07-16.62-5.29-9.18-6.56-9.59-7.7-.41-20.16 9.34c-9.1 7.13-12.7 14.63-14 18.16a15.41 15.41 0 0 0 -.57 2.07c-.43-3 .89-10.41 1-11a134.07 134.07 0 0 0 -3.89 22.4c-.11 1.74-.24 3.47-.3 5.24-.39 12 2 15.76 2.85 16.69a18.17 18.17 0 0 1 -4.68-8 1.36 1.36 0 0 0 0-.17c-1.28-5.18.68-9.93-3-23.78a54.88 54.88 0 0 1 -1.77-9.24s0 0 0-.07c0-.26 0-.5 0-.73s0-.25 0-.36c0-.55 0-1.07 0-1.57s0-.73 0-1.07a15.58 15.58 0 0 1 .58-3.64c-.11.28-.21.55-.29.83a20.07 20.07 0 0 0 -.84 8.61c-2.56-8.32.11-17.67 11.56-24.7s17.53-12.61 19.4-12.86 5.54 2.87 5.54 2.87 3.32-3.31 5.37-2.31 5.09 11.65 5.09 11.65c1.17-4.25-2.43-15.65-2.43-15.65 5.9 3 3.22 15.67 3.22 15.67 1.15 1.3 8.79 2.8 12.35 8.75a21.21 21.21 0 0 1 2.82 12.01z" fill="url(#k)"/><path d="m64.58 36.43a1.09 1.09 0 0 0 0 .12 10.9 10.9 0 0 0 -2.58-7.38c-1.5-3.63-7.07-8.54-7.07-8.54s5.46 3.52 7.76 7.32a16.27 16.27 0 0 1 1.89 8.48z" fill="url(#l)"/><path d="m54.83 22.61c-.16-.25-.33-.49-.49-.75.11.14.28.4.49.75z" fill="url(#m)"/><path d="m62 30.27c.08 9.45-3.88 19.52-3.88 19.52s-1.3-4.48-1.76-6.29-.93-10.5-3.07-16.62-5.29-9.18-6.56-9.59-7.7-.41-20.16 9.34c-9.1 7.13-12.7 14.63-14 18.16a15.41 15.41 0 0 0 -.57 2.07c-.43-3 .89-10.41 1-11a134.07 134.07 0 0 0 -3.89 22.4c-.1.34-.21.66-.3 1a43.4 43.4 0 0 0 -1.81 12.91 1.36 1.36 0 0 0 0-.17c-1.28-5.18.68-9.93-3-23.78a54.88 54.88 0 0 1 -1.79-9.22s0 0 0-.07c0-.26 0-.5 0-.73s0-.25 0-.36c0-.55 0-1.07 0-1.57s0-.73 0-1.07a20.28 20.28 0 0 1 .29-2.81 11.68 11.68 0 0 1 1.87-5.13c-2.27 6.74 1.03 15.68 1.03 15.68.44-12.77 9.16-22.89 9.16-22.89-7.65 10.87-8.22 27.13-8.22 27.13s.41-4.79 5.66-15.93a44 44 0 0 1 12.85-16.48c-10.07 8.37-11.85 21.04-11.85 21.04a48.45 48.45 0 0 1 11.52-18.81c-8.46 8.84-11.52 25.15-11.88 27.5.28-1.33 1.72-7 7.44-14.45 6.55-8.58 25.45-14.26 27.2-13.44s6.39 6.83 8.23 14.8 3.68 10.81 3.68 10.81c.57-9.79-2.46-16.37-4-19.1a29.84 29.84 0 0 1 4.71 17.75 35.75 35.75 0 0 0 2.1-10.6z" fill="url(#n)" opacity=".5"/><path d="m28.79 16c-5 8.55-1.29 17.67-1.29 17.67a31 31 0 0 1 3.55-15.29c4.51-8.11 13.81-13 14.39-11.66 0 .04-3.79-12.62-16.65 9.28z" fill="url(#o)"/><path d="m27.5 33.71a31 31 0 0 1 3.05-16.29c4.92-9.51 14.45-11.74 14.89-10.66s1.4 3.44 1.4 3.44-2.34-3.09-9 .24-10.77 14.36-10.34 23.27z" fill="url(#p)" opacity=".5"/><path d="m47.8 16.39a6.63 6.63 0 0 0 -5.27-3.3c-5.93-.22-11.81 5.91-11.81 5.91s5.61-6.46 11.22-6.46a5.88 5.88 0 0 1 5.86 3.85z" fill="url(#q)" opacity=".5"/><path d="m48 16.55s4.37 2.11 6.56 5.67a31.87 31.87 0 0 0 -6.56-5.67z" fill="url(#r)" opacity=".5"/><g fill="#fff4ca"><path d="m51.89 22.22a50.08 50.08 0 0 1 3.62 9.19l1.71-2.82s-1.59-4.92-5.33-6.37z"/><path d="m53.91 21.25a31.89 31.89 0 0 1 3.45 6s.14-2.91-3.45-6z"/><path d="m55.64 21.3-.39.23a15 15 0 0 1 2.75 3.59l.94-.37a42 42 0 0 0 -3.3-3.45z"/><path d="m56.49 21.75s1.77-.22 1.88-1.12a11.27 11.27 0 0 1 2.23 2.16 1.83 1.83 0 0 0 -1.45-.55 1 1 0 0 0 -.81 1z"/><path d="m30.72 12.89s-3.86 5.26-4.28 9.72l2.14-.37a21.61 21.61 0 0 1 6.21-10.56 12.19 12.19 0 0 1 -4.07 1.21z"/><path d="m28.58 12.86s-7.66 6.79-10.75 12.63l.49-3.25a51.13 51.13 0 0 1 7.85-8.64z"/><path d="m24.73 13.65a125.09 125.09 0 0 0 -10 11.47s1.06-3.32.9-4.14a1.28 1.28 0 0 0 -1.08-.93 33.31 33.31 0 0 1 8.65-7.76 2.21 2.21 0 0 0 1.53 1.36z"/><path d="m21.9 11.68a44 44 0 0 0 -7 4.87s2.7-4.17 7-4.87z"/></g><path d="m12 46.86s4.33-16.52 14.28-22.62l-.11 2.76s-10.98 8.55-14.17 19.86z" fill="#d177b8" opacity=".6"/><path d="m29 23s8.41-4.72 13.08-5.19a49.16 49.16 0 0 0 -13.72 7.53z" fill="#d177b8" opacity=".6"/><path d="m49.24 19.39s4.86 4.11 7.25 16.16 1.62 14.24 1.62 14.24a47.12 47.12 0 0 1 -2.35-9.39c-.55-4.59-1.18-14.91-6.52-21.01z" fill="#d177b8" opacity=".6"/></svg>