<svg viewBox="0 0 66.11 103.6" xmlns="http://www.w3.org/2000/svg" xmlns:xlink="http://www.w3.org/1999/xlink"><linearGradient id="a" gradientUnits="userSpaceOnUse" x1="32.87" x2="32.87" y1="103.6" y2="84.52"><stop offset="0" stop-color="#8d412b"/><stop offset=".23" stop-color="#8d291c"/><stop offset=".48" stop-color="#8d150f"/><stop offset=".74" stop-color="#8d0908"/><stop offset="1" stop-color="#8d0505"/></linearGradient><linearGradient id="b" x1="60.45" x2="60.45" xlink:href="#a" y1="70.54" y2="51.51"/><linearGradient id="c" gradientUnits="userSpaceOnUse" x1="60.46" x2="60.46" y1="67.29" y2="54.87"><stop offset="0" stop-color="#8d7869"/><stop offset=".99" stop-color="#5f0582"/></linearGradient><linearGradient id="d" x1="58.22" x2="58.22" xlink:href="#c" y1="65.86" y2="59.77"/><linearGradient id="e" gradientTransform="matrix(-1 0 0 1 443.98 0)" x1="439.27" x2="439.27" xlink:href="#a" y1="70.54" y2="51.51"/><linearGradient id="f" gradientTransform="matrix(-1 0 0 1 443.98 0)" x1="439.28" x2="439.28" xlink:href="#c" y1="67.29" y2="54.87"/><linearGradient id="g" gradientTransform="matrix(-1 0 0 1 443.98 0)" x1="437.04" x2="437.04" xlink:href="#c" y1="65.86" y2="59.77"/><linearGradient id="h" gradientUnits="userSpaceOnUse" x1="32.62" x2="32.62" y1="87.22" y2="19.6"><stop offset="0" stop-color="#8d3824"/><stop offset=".43" stop-color="#873927"/><stop offset=".55" stop-color="#89311d"/><stop offset=".78" stop-color="#8c2711"/><stop offset="1" stop-color="#8d240d"/></linearGradient><linearGradient id="i" x1="11.96" x2="11.96" xlink:href="#c" y1="59.76" y2="23.68"/><linearGradient id="j" gradientTransform="matrix(-1 0 0 1 792.05 0)" x1="738.76" x2="738.76" xlink:href="#c" y1="59.76" y2="23.68"/><linearGradient id="k" gradientUnits="userSpaceOnUse" x1="31.91" x2="31.91" y1="18.57"><stop offset="0" stop-color="#c7544b"/><stop offset="1" stop-color="#b63651"/></linearGradient><linearGradient id="l" gradientUnits="userSpaceOnUse" x1="16.39" x2="45.68" y1="11.99" y2="11.99"><stop offset="0" stop-color="#ffeadb"/><stop offset=".99" stop-color="#d177f4"/></linearGradient><linearGradient id="m" x1="32.9" x2="46.26" xlink:href="#l" y1="8.03" y2="8.03"/><linearGradient id="n" x1="32.6" x2="32.6" xlink:href="#k" y1="57.2" y2="13.31"/><linearGradient id="o" x1=".99" x2="18.19" xlink:href="#l" y1="41.04" y2="41.04"/><linearGradient id="p" x1="8.06" x2="27.87" xlink:href="#l" y1="21.18" y2="21.18"/><linearGradient id="q" x1="36.72" x2="64.14" xlink:href="#l" y1="36.97" y2="36.97"/><linearGradient id="r" gradientUnits="userSpaceOnUse" x1="47.83" x2="47.83" y1="27.46" y2="14.02"><stop offset="0" stop-color="#db6a4b"/><stop offset="1" stop-color="#b63651"/></linearGradient><linearGradient id="s" x1="11.99" x2="11.99" xlink:href="#r" y1="33.81" y2="18.44"/><linearGradient id="t" x1="50.17" x2="66.11" xlink:href="#r" y1="34.27" y2="34.27"/><linearGradient id="u" x1="53.05" x2="64.95" xlink:href="#r" y1="43.62" y2="43.62"/><linearGradient id="v" x1="6.15" x2="6.15" xlink:href="#r" y1="42.22" y2="28.99"/><linearGradient id="w" x1="57.15" x2="57.15" xlink:href="#r" y1="94.06" y2="56.54"/><linearGradient id="x" x1="9.17" x2="9.17" xlink:href="#r" y1="92.5" y2="55.8"/><path d="m41.25 96.53c-.17-.94 0-12 0-12l-8.38 2.27-8.39-2.28s.17 11.07 0 12-11.48 5.93-11.48 5.93a176 176 0 0 0 19.91 1.15 175.92 175.92 0 0 0 19.9-1.15s-11.39-4.97-11.56-5.92z" fill="url(#a)"/><path d="m24.54 89.73s8.28 5.39 16.64 3.76l.07-9h-16.77z" fill="#5f0546" opacity=".6"/><path d="m64.82 60.26a17 17 0 0 1 -.43 1.68c-1.1 3.57-2.78 4.41-3.46 6-.59 1.39-2.89 4.19-5.16 1.28s1.08-11.82 2-14c0 0 1.26-3.23 3.52-3.72 2.83-.56 4.71 3.26 3.53 8.76z" fill="url(#b)"/><path d="m56.54 61.93s4.54-6.6 6.72-7 1.08 5.16.65 7a11.32 11.32 0 0 1 -1.1 3 26.51 26.51 0 0 0 .66-4c.15-2.56-.66-4.76-1.57-4.55s-2.14 3.43-2.22 3.79.6 1 .56 3-1 4.15-1.5 4.12-.3-1.63-.3-3.49-1.44-1.5-2.09-.3z" fill="url(#c)" opacity=".6"/><path d="m56.35 63.5s1.17-1.77 1.87-1 .2 3 .73 3.29 1.26-1.53 1.12-3.18-.79-3.12-1.72-2.84l-1.81 2.12z" fill="url(#d)" opacity=".6"/><path d="m64.38 62c-1.1 3.57-2.78 4.41-3.46 6-.59 1.39-2.89 4.19-5.16 1.28a3.14 3.14 0 0 0 2.79.7c1.4-.52 1.85-1.83 2.45-2.85s2.12-1.73 3.38-5.13z" fill="#6b000a"/><path d="m.34 60.26a17 17 0 0 0 .43 1.68c1.1 3.57 2.78 4.41 3.46 6 .58 1.39 2.88 4.19 5.16 1.28s-1.08-11.82-1.95-14c0 0-1.26-3.23-3.52-3.72-2.92-.56-4.71 3.26-3.58 8.76z" fill="url(#e)"/><path d="m8.62 61.93s-4.55-6.6-6.72-7-1.08 5.16-.65 7a11.56 11.56 0 0 0 1.09 3 27.13 27.13 0 0 1 -.65-4c-.16-2.56.66-4.76 1.57-4.55s2.14 3.43 2.22 3.79-.6 1-.56 3 1 4.15 1.5 4.12.3-1.63.3-3.49 1.45-1.49 2.09-.29z" fill="url(#f)" opacity=".6"/><path d="m8.81 63.5s-1.17-1.77-1.87-1-.2 3-.74 3.29-1.2-1.49-1.11-3.14.79-3.12 1.72-2.84l1.81 2.12z" fill="url(#g)" opacity=".6"/><path d="m.78 62c1.1 3.57 2.78 4.41 3.46 6 .58 1.39 2.88 4.19 5.16 1.28a3.15 3.15 0 0 1 -2.79.7c-1.41-.52-1.86-1.83-2.45-2.85s-2.16-1.73-3.38-5.13z" fill="#6b000a"/><path d="m58.86 54.11c-.57 2.89-1.28 5.94-1.76 9.43-1.29 9.21-4 13.45-10.29 17.52-6.56 4.26-8.53 5.92-14.19 6.14-5.62-.2-7.62-1.86-14.19-6.12-6.25-4.07-9-8.31-10.28-17.52-.29-2.05-.65-4-1-5.75-.27-1.34-.54-2.63-.79-3.89 0 0 0 0 0-.05-.9-4.62-1.45-8.89-.21-14 1.28-5.34 5.68-12 12.39-16.13a26.53 26.53 0 0 1 14.1-4.08c14.54 0 24.48 11.72 26.51 20.21 1.24 5.19.64 9.52-.29 14.24z" fill="url(#h)"/><path d="m58.86 54.13c-.57 2.89-1.28 5.94-1.76 9.43-1.29 9.21-4 13.45-10.29 17.52-6.56 4.26-8.53 5.92-14.19 6.14-5.62-.22-7.62-1.88-14.19-6.14-6.25-4.07-9-8.31-10.28-17.52-.5-3.58-1.22-6.69-1.8-9.64.18.72 1.68 6.64 3.15 12.65 1.57 6.43 3.88 10.36 10.83 15.27 6.46 4.56 10.22 4.94 12.14 5h.33c1.91 0 5.67-.4 12.14-5 7-4.91 9.25-8.86 10.82-15.27 1.37-5.57 2.77-11.14 3.1-12.44z" fill="#5f0546" opacity=".6"/><path d="m18.51 23.68c-.29.22-7.74 5.71-8.28 10.78s-.21 11-1.88 15.92a18.29 18.29 0 0 0 -.53 9.38c0-.11-.3-.82-.68-1.95-.27-1.34-.54-2.63-.79-3.89 0 0 0 0 0-.05-.9-4.62-1.45-8.89-.21-14 1.28-5.34 5.68-12 12.39-16.13z" fill="url(#i)" opacity=".6"/><path d="m46.73 23.68c.29.22 7.75 5.71 8.28 10.78s.22 11 1.88 15.92a18.48 18.48 0 0 1 .54 9.38c0-.11.3-.82.68-1.95.26-1.34.54-2.63.79-3.89a.07.07 0 0 1 0-.05c.91-4.62 1.45-8.89.21-14-1.27-5.34-5.68-12-12.39-16.13z" fill="url(#j)" opacity=".6"/><path d="m45.36 4.25a17.14 17.14 0 0 0 -22.53 0 17.31 17.31 0 0 0 -4.85 6l-.13.31a9.48 9.48 0 0 0 -.68 2.66 8.13 8.13 0 0 0 -.05 1 7.76 7.76 0 0 0 1.29 4.35l25.37-1.31a8.17 8.17 0 0 0 1.91-3.6 14.26 14.26 0 0 0 .41-2 2.2 2.2 0 0 0 -.07-.95q.12-.3.24-.63c.55-1.66.88-4.08-.91-5.83zm-9.36-1h-.11a1.33 1.33 0 0 0 -.12-.06s4.67-.49 7.87 2.05a5.58 5.58 0 0 1 2 4.78c-1.64-3.15-8.26-6.19-9.64-6.77z" fill="url(#k)"/><path d="m45.68 13.66a8.17 8.17 0 0 1 -1.91 3.6l-25.37 1.31a7.76 7.76 0 0 1 -1.29-4.35c1.44-1.84 5.16-5.49 12.27-5.55 8.91-.07 14.37 3.72 15 4.21-.68-.62-6.37-5.51-13.73-5.72-6.24-.18-11.6 4.26-13.53 6.1-.5.47-.77.76-.77.76l1.45-3.42.13-.31a18.34 18.34 0 0 1 14.39-4.77 19.19 19.19 0 0 1 13.36 8.14z" fill="url(#l)"/><path d="m46 10.75a2.2 2.2 0 0 1 .07.95 14.26 14.26 0 0 1 -.41 2c-.57-4.52-7.9-9.54-9.66-10.45 1.38.58 8 3.62 9.7 6.75a5.58 5.58 0 0 0 -2-4.78c-3.2-2.54-7.87-2.05-7.87-2.05a8.5 8.5 0 0 0 -2.91-.36s6.07-1.2 9.79.65 3 6.56 3 6.56l.55.13q-.12.3-.26.6z" fill="url(#m)"/><path d="m64.13 40.68a0 0 0 0 0 0 0 1 1 0 0 1 0 .15 29.44 29.44 0 0 1 -.42 3.89 27 27 0 0 1 -1.71 5.75 20 20 0 0 1 -4.29 6.73c0-.17 1.71-5.6-1.35-13.32s-5.82-13-13.6-16.71c-1.37-.64-3.85-.57-6.07-.37-1.75.15-3.33.37-4.11.37s-2.75-.27-4.73-.42-4.21-.16-5.46.42c-.72.34-1.38.69-2 1a23.43 23.43 0 0 0 -2.21 1.44c-4.7 3.45-6.92 8-9.38 14.22-3.05 7.77-1.38 13.17-1.33 13.37a21.49 21.49 0 0 1 -5.27-9.49 24.77 24.77 0 0 1 -.67-2.9 29.27 29.27 0 0 1 -.46-5.12 19.5 19.5 0 0 1 .85-5.9c.12-.35.23-.65.32-.88.17-.41.3-.65.34-.73a12.12 12.12 0 0 1 2.82-7l.29-.3a8.61 8.61 0 0 1 1.25-1c.34-.21.72-.42 1.12-.64l.47-.24c1.22-.65 2.67-1.33 4.14-2l1.09-.48c3.64-1.6 7.22-3 8.08-3.36a2.59 2.59 0 0 0 .62-.38c.88-.69 1.79-2 2.95-2.77a3.9 3.9 0 0 1 1.64-.68c2.37-.32 5.53 1.73 5.53 1.73s2.44.07 4.81.4a22.15 22.15 0 0 1 4.82 1.27h.06c.39.14.74.28 1.07.42a1.93 1.93 0 0 0 .41.09c1.91.24 6.92-1.16 9.52 2.34l.54.72 2.82 3.77 1.77 2.36 3.08 4.08 1.14 1.49a11.84 11.84 0 0 1 1.15 3.57.19.19 0 0 1 0 .07l.12.75a22.83 22.83 0 0 1 .24 4.29z" fill="url(#n)"/><path d="m18.19 29.66c-4.7 3.45-6.92 8-9.38 14.22-3.06 7.72-1.39 13.12-1.34 13.32a21.49 21.49 0 0 1 -5.27-9.49v-.05a.08.08 0 0 0 0 0c.1.25 1 2.53 2.5 2s5.3-9.49 5.3-9.49-3.51 3.35-6 2.83c-1.61-.33-2.48-2.11-2.89-3.36 0-.08-.05-.16-.07-.23a1.46 1.46 0 0 1 .07.19 3.83 3.83 0 0 0 3.82 2.62c3.58-.12 6.38-4.67 6.52-4.92-.22.15-4.58 3.05-7.53 1.8s-2.06-5-2-5.4c-.06.45-.51 4.65 2.69 4.91s8.34-4 8.75-4.38c-.36.18-4.67 2.33-7.77 1.84a3.67 3.67 0 0 1 -3.35-3.28l.34-.73s-.36 3.08 3.19 3.23a19.35 19.35 0 0 0 7.27-1.44c-3 0-6.31-1.06-7.19-3.49a12.06 12.06 0 0 1 -.46-5.15l.29-.3s1.32 5.91 5.4 6.62c2.4.47 5.21-.8 7.11-1.87z" fill="url(#o)"/><path d="m27.87 26.75c-2.06-.15-4.21-.16-5.46.42-.72.34-1.38.69-2 1-.37 0-6.54.54-9.35-.83a5.12 5.12 0 0 1 -3-4.11l.47-.23s-.34 3.57 3.81 4.19a25.61 25.61 0 0 0 8.87-.66s-4.37 0-6.61-1.17-1.93-4.36-1.93-4.36l1.09-.48a3 3 0 0 0 1.17 4.57c3.12 1.69 11.14.54 11.14.54a36.27 36.27 0 0 1 -3.61-8.86 10.18 10.18 0 0 1 2.95-2.77c-2.41 4.56 2.26 12.43 2.46 12.75z" fill="url(#p)"/><path d="m64.14 40.63a.51.51 0 0 1 0 .09 1 1 0 0 1 0 .15c-.18 1-1.06 4.83-3.66 2.75a41 41 0 0 1 -5.77-6 53.91 53.91 0 0 1 2.88 8.76c1.31 3.52 3.51 4 4.47 4.09a20 20 0 0 1 -4.29 6.73c0-.17 1.71-5.6-1.35-13.32s-5.82-13-13.6-16.71c-1.37-.64-3.85-.57-6.07-.37 5.65-4.43 5.51-10.06 5.51-10.06h.06l1.48.5c.66 8.59-4.47 8.61-4.47 8.61s2.33.46 6.14-1.14a35.37 35.37 0 0 0 7.85-5.13l.54.72c-.58 3.88-8.14 7.13-8.14 7.13l3.73 1.21c7.95-1.13 7.23-4.57 7.23-4.57l1.77 2.36c-1.23 2.33-8.25 3.64-8.25 3.64 8.83 3.44 11.33.44 11.33.44l1.09 1.49c-3.39 1.27-11.61 0-11.61 0 7.62 4.19 12.51 3.56 12.76 3.53v.07l.12.75c-4 1.95-12.2-3.49-12.2-3.49s5.2 8.65 8.48 9.29c2.92.57 3.77-1.14 3.93-1.52a0 0 0 0 1 0 0 .18.18 0 0 0 .04 0z" fill="url(#q)"/><path d="m43.38 27.46s10.67-5.24 10.45-10.21-9.66-3.44-11.6-.52l1.13.44s.71-3.47 6.07-2.16-7.6 11.86-7.6 11.86z" fill="url(#r)"/><path d="m14.06 32.72s-4.26-1.19-6.23-7.09 9.65-6.63 9.65-6.63l.92-.38s-9.31-1.22-11.83 3.6-.32 11.78 7.43 11.59l2.15-2.42z" fill="url(#s)"/><path d="m50.17 32.54s8.38 4.87 13.13 4.05c2.79-.48 2.23-3.13-.68-4.56-1.32-.65-1.12-1.49-1.12-1.49s3.74 2 4.56 5.46-8.06 2.54-15.89-3.46z" fill="url(#t)"/><path d="m53.05 36.59a30.55 30.55 0 0 1 2.43 5.13c1.47 3.69 3.7 8.58 5.77 8.91s5.17-3.18 2.9-9.43c0 0-.23 1.44-.26 2.19 0 1.57 1.54 4.94-.51 5.24-2.27.37-2.95-8-10.33-12.04z" fill="url(#u)"/><path d="m11.65 37.5s-5.95 2.82-8.65.72.22-9.22.22-9.22-3.38 5.15-2.4 10 6.69 4 10.83-1.5z" fill="url(#v)"/><path d="m57.74 57.2s-.9 5.23 1.12 17.9-5.81 19-5.81 19 7.55-4.49 8.15-13.44-4.92-11.15-2.83-24.08z" fill="url(#w)"/><path d="m6.35 55.8s2.27 6.13.82 18.35c-1.59 13.44 4.83 18.35 4.83 18.35s-5.31-10.9-4.5-19.36.5-12.14-.03-15.94z" fill="url(#x)"/><g fill="#ffd9bb"><path d="m32.32 5.52a11.54 11.54 0 0 1 3.49-.75c2.29-.21 5.59 2.78 5.59 2.78l.26 1.85s-4.49-4.01-9.34-3.88z"/><path d="m35.81 2.44a7.53 7.53 0 0 1 4.58-.9 3.11 3.11 0 0 1 2.58 2s-2.53-1.54-7.16-1.1z"/><path d="m47.71 21.35s2.29.54 3.61-.17 2.92-4 2-5.21a5.35 5.35 0 0 1 -2.14 0 10.88 10.88 0 0 1 -3.47 5.38z"/><path d="m13.44 21.18s.43 1.56 3.46 3.12a15.18 15.18 0 0 0 5.25 1.7s-9.06.23-8.71-4.82z"/></g></svg>