<svg viewBox="0 0 46.14 19.67" xmlns="http://www.w3.org/2000/svg"><path d="m2 1.79s12.64 16.8 21 16.8 20.56-16.38 20.56-16.38-7.44 7.05-20.76 7.05-20.8-7.47-20.8-7.47z" fill="#ea336b"/><path d="m0 0s10.45 10.3 22.48 10.3 23.66-9.79 23.66-9.79a41.58 41.58 0 0 1 -23.66 8c-13-.03-22.48-8.51-22.48-8.51z" fill="#842751"/><path d="m23.37 8.46h-.05a32.86 32.86 0 0 1 -19.15-5.55 2.81 2.81 0 0 1 -.31-.19l-.46-.31c-.12-.08-.19-.14-.25-.17a37.09 37.09 0 0 0 10.44 2.62c.78.08 1.59.15 2.43.17 6.16.18 7.14 2.54 7.29 3.24a.8.8 0 0 1 .06.19z" fill="#bd336b"/><path d="m43.54 2.23a.63.63 0 0 1 -.18.13l-.36.23c-.14.1-.31.21-.5.32a32.91 32.91 0 0 1 -19.13 5.55h-.05a1.18 1.18 0 0 1 0-.19c.16-.7 1.13-3.06 7.3-3.24a34.36 34.36 0 0 0 3.62-.31 36.3 36.3 0 0 0 9.3-2.49z" fill="#bd336b"/><g fill="#d177b8"><path d="m34.28 4.71a36.3 36.3 0 0 0 9.26-2.48.63.63 0 0 1 -.18.13l-.36.23c-.14.1-.31.21-.5.32a11.45 11.45 0 0 1 -3.2 1.4 21.41 21.41 0 0 1 -5.07.41z" opacity=".6"/><path d="m13.59 4.86a16.82 16.82 0 0 1 -4.59-.12 12.87 12.87 0 0 1 -4.83-1.83 2.81 2.81 0 0 1 -.31-.19l-.46-.31c-.12-.08-.19-.14-.25-.17a0 0 0 0 0 0 0 37.09 37.09 0 0 0 10.44 2.62z" opacity=".6"/><path d="m9.52 10.3s7.62 7.6 13.28 7.6 14.54-8.39 14.54-8.39-8.89 10.16-14.54 10.16-13.28-9.37-13.28-9.37z" opacity=".6"/></g></svg>