<svg viewBox="0 0 101.99 16.31" xmlns="http://www.w3.org/2000/svg" xmlns:xlink="http://www.w3.org/1999/xlink"><linearGradient id="a" gradientUnits="userSpaceOnUse" x1="62.01" x2="101.99" y1="8.15" y2="8.15"><stop offset="0" stop-color="#300000"/><stop offset="1" stop-color="#0d0000"/></linearGradient><linearGradient id="b" gradientTransform="matrix(-1 0 0 1 -88.71 0)" x1="-128.69" x2="-88.71" xlink:href="#a" y1="8.15" y2="8.15"/><path d="m102 14.94s-4.21-7.26-8.44-7.48a17.38 17.38 0 0 0 -3.31.26c-9.1 1.5-25.75 8.59-25.75 8.59s-2.77-7.17-2.5-10.1l1-.43s1 4.53 1.63 5.18l-.13-5.86s13.27-2 21.85-3.25l1.43-.21 2.73-.39c1.77-.26 2.9-.4 3-.38.35.09 1.12.36 1.21.39l-.47-1.26s4.46 4.65 7.75 14.94z" fill="url(#a)"/><path d="m102 14.94s-4.21-7.26-8.44-7.48a17.38 17.38 0 0 0 -3.31.26l-3.9-5.87 1.43-.21c2.33.4 8.82 5.08 8.82 5.08-1.79-3.47-5.85-5.36-6.08-5.47 1.77-.26 2.9-.4 3-.38.35.09 1.12.36 1.21.39l-.48-1.26s4.46 4.65 7.75 14.94z" fill="#913778" opacity=".6"/><path d="m0 14.94s4.21-7.26 8.43-7.48a17.42 17.42 0 0 1 3.32.26c9.1 1.5 25.75 8.59 25.75 8.59s2.75-7.17 2.5-10.1l-1-.43s-1 4.53-1.63 5.22l.11-5.86s-13.26-2-21.84-3.25l-1.43-.21-2.74-.39c-1.78-.29-2.91-.44-2.98-.42-.36.09-1.12.36-1.22.39l.47-1.26s-4.47 4.65-7.74 14.94z" fill="url(#b)"/><path d="m0 14.94s4.21-7.26 8.43-7.48a17.42 17.42 0 0 1 3.32.26l3.89-5.87-1.43-.21c-2.34.36-8.84 5.08-8.84 5.08 1.79-3.47 5.86-5.36 6.09-5.47-1.77-.25-2.9-.4-2.97-.38-.36.09-1.12.36-1.22.39l.47-1.26s-4.47 4.65-7.74 14.94z" fill="#913778" opacity=".6"/></svg>