<svg viewBox="0 0 86.62 19.75" xmlns="http://www.w3.org/2000/svg" xmlns:xlink="http://www.w3.org/1999/xlink"><linearGradient id="a" gradientUnits="userSpaceOnUse" x1="73.64" x2="73.64" y1="18.83" y2="3.16"><stop offset="0" stop-color="#eee2ff"/><stop offset="1" stop-color="#bdc9fb"/></linearGradient><linearGradient id="b" gradientUnits="userSpaceOnUse" x1="72.13" x2="72.13" y1="19.38" y2="3.69"><stop offset="0" stop-color="#57335b"/><stop offset="1" stop-color="#310a39"/></linearGradient><linearGradient id="c" x1="72.13" x2="72.13" xlink:href="#b" y1="18.92" y2="4.15"/><linearGradient id="d" x1="72.13" x2="72.13" xlink:href="#b" y1="16.32" y2="6.74"/><linearGradient id="e" gradientTransform="matrix(-1 0 0 1 -424.96 0)" x1="-437.95" x2="-437.95" xlink:href="#a" y1="18.83" y2="3.16"/><linearGradient id="f" gradientTransform="matrix(-1 0 0 1 -424.96 0)" x1="-439.45" x2="-439.45" xlink:href="#b" y1="19.38" y2="3.69"/><linearGradient id="g" gradientTransform="matrix(-1 0 0 1 -424.96 0)" x1="-439.45" x2="-439.45" xlink:href="#b" y1="18.92" y2="4.15"/><linearGradient id="h" gradientTransform="matrix(-1 0 0 1 -424.96 0)" x1="-439.45" x2="-439.45" xlink:href="#b" y1="16.32" y2="6.74"/><path d="m60.67 15.75c.09 2.23 8.55 3.69 15.72 2.83 6.94-.83 10.61-4.58 10.2-9.12s-5.41-7.28-13-6c-8.2 1.45-13.16 7-12.92 12.29z" fill="url(#a)"/><path d="m60.9 13.39a5.12 5.12 0 0 0 1.69 4.05s-2.18-.37-2.38-1.47a4.81 4.81 0 0 1 .69-2.58z" fill="#dd4c6a"/><circle cx="72.13" cy="11.53" fill="url(#b)" r="7.85"/><circle cx="72.13" cy="11.53" fill="url(#c)" r="7.39"/><circle cx="72.13" cy="11.53" fill="url(#d)" r="4.79"/><path d="m77.65 10.53c-.47.33 1.73.41 3.37-.09 1.47-.46 2.18-1.2 2-1.33a10.43 10.43 0 0 0 -5.37 1.42z" fill="#fff"/><path d="m76.4 10.86c-.62-.17-1.35.09-1.38.35s.75.58 1.11.48.62-.69.27-.83z" fill="#fff"/><path d="m61.29 12.16s10.09-9.16 25.21-3.32l-.21-.78s-.77-3.45-11.36-3.45-13.64 7.55-13.64 7.55z" fill="#d177b8" opacity=".6"/><path d="m62.59 17.44a26.74 26.74 0 0 0 14.34 2.13c6.29-.71 8.32-5.26 8.32-5.26s-7.66 5.07-22.66 3.13z" fill="#dd4c6a"/><path d="m62.59 9.79s3.27-8.79 11.05-9.71a11 11 0 0 1 11 5.45s-14.09-4.26-22.05 4.26z" fill="#dd4c6a"/><path d="m61.84 11s3.16-4.23 11.8-4.74 12.65 1.8 12.65 1.8.1-1.6-.26-2-17.76-6.44-24.19 4.94z" fill="#5b164a"/><path d="m26 15.75c-.09 2.23-8.55 3.69-15.72 2.83-6.99-.83-10.68-4.58-10.28-9.12s5.41-7.28 13-6c8.23 1.45 13.19 7 13 12.29z" fill="url(#e)"/><path d="m25.72 13.39a5.16 5.16 0 0 1 -1.72 4.05s2.18-.37 2.38-1.47a4.81 4.81 0 0 0 -.66-2.58z" fill="#dd4c6a"/><circle cx="14.49" cy="11.53" fill="url(#f)" r="7.85"/><circle cx="14.49" cy="11.53" fill="url(#g)" r="7.39"/><circle cx="14.49" cy="11.53" fill="url(#h)" r="4.79"/><path d="m9 10.53c.47.33-1.73.41-3.37-.09-1.47-.46-2.18-1.2-2-1.33a10.43 10.43 0 0 1 5.37 1.42z" fill="#fff"/><path d="m10.22 10.86c.62-.17 1.35.09 1.38.35s-.75.58-1.11.48-.62-.69-.27-.83z" fill="#fff"/><path d="m25.33 12.16s-10.09-9.16-25.21-3.32l.21-.78s.77-3.45 11.36-3.45 13.64 7.55 13.64 7.55z" fill="#d177b8" opacity=".6"/><path d="m24 17.44a26.74 26.74 0 0 1 -14.31 2.13c-6.29-.71-8.32-5.26-8.32-5.26s7.63 5.07 22.63 3.13z" fill="#dd4c6a"/><path d="m24 9.79s-3.24-8.79-11-9.71a11 11 0 0 0 -11 5.45s14.07-4.26 22 4.26z" fill="#dd4c6a"/><path d="m24.78 11s-3.18-4.23-11.78-4.74-12.67 1.8-12.67 1.8-.1-1.6.26-2 17.76-6.44 24.19 4.94z" fill="#5b164a"/></svg>