<svg viewBox="0 0 100.34 12.62" xmlns="http://www.w3.org/2000/svg" xmlns:xlink="http://www.w3.org/1999/xlink"><linearGradient id="a" gradientUnits="userSpaceOnUse" x1="62.01" x2="100.34" y1="6.31" y2="6.31"><stop offset="0" stop-color="#bf5e4b"/><stop offset="1" stop-color="#a84051"/></linearGradient><linearGradient id="b" gradientUnits="userSpaceOnUse" x1="89.08" x2="100.34" y1="6.31" y2="6.31"><stop offset="0" stop-color="#ffeadb"/><stop offset=".99" stop-color="#d177f4"/></linearGradient><linearGradient id="c" gradientTransform="matrix(-1 0 0 1 -1044.48 0)" x1="-1082.81" x2="-1044.48" xlink:href="#a" y1="6.31" y2="6.31"/><linearGradient id="d" gradientTransform="matrix(-1 0 0 1 -1044.48 0)" x1="-1055.75" x2="-1044.48" xlink:href="#b" y1="6.31" y2="6.31"/><path d="m100.34 12.62s-4.53-4.37-7.22-5.27c-5.84-1.93-30.86 3.85-30.86 3.85s-.78-7 .6-11.19h.6a22.49 22.49 0 0 0 -.6 5.25s.8-4.44 1.85-5.26c0 0 16.29.62 21.53.52l2.84-.05h1l2.51-.1v-.37s4.41 3.93 7.75 12.62z" fill="url(#a)"/><path d="m100.34 12.62s-4.53-4.37-7.22-5.27a27.88 27.88 0 0 0 -4-6.87h1a72.94 72.94 0 0 1 6.38 7.44 35.87 35.87 0 0 0 -3.91-7.92s4.41 3.93 7.75 12.62z" fill="url(#b)" opacity=".6"/><path d="m0 12.62s4.53-4.37 7.23-5.27c5.84-1.93 30.86 3.85 30.86 3.85s.78-7-.6-11.19h-.59a22.63 22.63 0 0 1 .59 5.25s-.81-4.44-1.86-5.26c0 0-16.29.62-21.52.52l-2.84-.05h-1l-2.51-.1v-.37s-4.38 3.93-7.76 12.62z" fill="url(#c)"/><path d="m0 12.62s4.53-4.37 7.23-5.27a28.11 28.11 0 0 1 4-6.87h-1a72.94 72.94 0 0 0 -6.39 7.44 35.71 35.71 0 0 1 3.92-7.92s-4.38 3.93-7.76 12.62z" fill="url(#d)" opacity=".6"/></svg>