<svg viewBox="0 0 123.76 86.16" xmlns="http://www.w3.org/2000/svg" xmlns:xlink="http://www.w3.org/1999/xlink"><linearGradient id="a" gradientUnits="userSpaceOnUse" x1="61.88" x2="61.88" y1="86.16"><stop offset="0"/><stop offset="1" stop-color="#090000"/></linearGradient><linearGradient id="b" gradientUnits="userSpaceOnUse" x1="86.48" x2="86.68" y1="6.77" y2="6.77"><stop offset="0" stop-color="#ffeadb"/><stop offset=".99" stop-color="#d177f4"/></linearGradient><path d="m119.07 43.58 4.69 2.87c-3-11.63-18.9-16.93-21.55-17.73l-.38-.11c-2.32-7.92-8.43-16.49-14.83-21.48l-.34-.28-.17-.14a22.63 22.63 0 0 0 -5.59-3.18 20.09 20.09 0 0 0 -9.74-1.25 25.82 25.82 0 0 0 -16.25-1.66 65.1 65.1 0 0 0 -19.14 7.76l-1.96 1.18h-.05c-2.55 1.58-4.64 3-6.3 3.91h-.05a8.21 8.21 0 0 1 -2.64 1.08c-4 .62-7.09-8.68-7.09-8.68-3.61 5.79.84 14.36.84 14.36s-9.32 1.63-14.27 8.99-4.25 21.24-4.25 21.24c1.59-4.69 5.54-13.55 5.78-14.1l-.35 1.32-.03.32c-3 13.77.43 48.13.43 48.13 1.29-15.79 11.25-31 11.25-31 4.2 6.39 18.22 8.33 19.1 8.44a14.43 14.43 0 0 1 -5-3h-.05c-5.64-5.12-8.21-14.4-4.41-19.63 4.79-6.67 16.28-6.19 33.38-5.58s27.9-2.53 30.74-1.2 18.22 15 20.38 19.29 3.28 30.28 3.28 30.28l3.65-22.8c3.67 5.66 3 9.81 3 9.81a36.25 36.25 0 0 0 1.07-14.74 52.51 52.51 0 0 0 -3.15-12.42zm-46.18-40.46c7.76.89 9 7.13 9 7.13a30.36 30.36 0 0 0 -9-7.13z" fill="url(#a)"/><path d="m86.68 6.85-.2-.15z" fill="url(#b)"/><path d="m118.15 61.79-3.65 22.8s-1.1-25.93-3.28-30.27-17.47-17.98-20.38-19.32-13.62 1.83-30.74 1.23-28.59-1.09-33.42 5.55c-3.8 5.23-1.23 14.51 4.41 19.63-14.61-10.85-8.09-28.92-8.09-28.92a20.74 20.74 0 0 0 -16.5 4.13c16.82-14.9 39.28-2.62 39.28-2.62l2.49.07s-4.21-10.91-12-13.57-17.8.68-17.8.68 10.84-7.3 19-5.37 15.13 18 15.13 18c1.62.66 5.49.18 5.49.18s-5.45-16.49-13.61-19.59c-7.17-2.71-14.93-.66-16.73-.13a41.1 41.1 0 0 1 17.25-1.92c9.77 1 16 22.31 16 22.31h5.18s.2-17-8-23.52c-7.9-6.25-23.18-1.14-24.37-.71l1.95-1.18c.57-.2 15.46-5.45 24.8 1.3 9.51 6.87 9.2 22.55 9.2 22.55 3.9.12 14.08-1.24 14.08-1.24 2.08-8.08-1.53-19.56-1.84-20.66 3.51 7.53 3.34 20.08 4.49 20.56s9.2-1.21 9.2-1.21c.58-13.78-6.55-20.8-8.69-22.55 6.38 5 12.49 13.56 14.81 21.48l.38.11s-1.19 5.49 3.81 7.54 12.56 7 13 7.29a90.48 90.48 0 0 0 -18.78-5.72l7.66 8.5a35.71 35.71 0 0 1 10.27 14.59z" fill="#e5bedc" opacity=".2"/><path d="m17.08 55.14s-10 15.23-11.25 31c0 0-3.39-34.36-.43-48.13l.07-.35.35-1.32c0 10.66 8.08 17.11 8.08 17.11-3.9-10.12 2.84-15.07 3.17-15.3-3.95 6.78.01 16.99.01 16.99z" fill="#d177b8" opacity=".6"/><g fill="#ffd9bb"><path d="m56.22 7.78a59.37 59.37 0 0 0 11.21 2.47 33.71 33.71 0 0 0 12.51-1.25l1.15 1.33a65.32 65.32 0 0 1 1.73 7 8.87 8.87 0 0 0 -5.14-2.84c-3.38-.61-11.4 2.11-11.4 2.11s-3.65-6.5-10.06-8.82z" opacity=".2"/><path d="m48.14 12.56a19.13 19.13 0 0 1 5.58 5.53l7.66-2a13.93 13.93 0 0 0 -6.62-6.76z" opacity=".2"/><path d="m40.88 16.83a25.47 25.47 0 0 1 5.71 4.58l3.29-.64s-1.64-4.08-4.5-5.1a4 4 0 0 0 -4.5 1.16z" opacity=".2"/><path d="m106.35 34.64s4.3 2.47 8.69 5.06a9.12 9.12 0 0 0 0-3.61c-.44-1.42-6.89-3.86-6.89-3.86z"/><path d="m5.64 34s8.68-5 18.23-4.8c0 0-5.57-2.09-5.29-3.13a35.89 35.89 0 0 1 2.62-4.67s-13.68 1.44-15.56 12.6z" opacity=".2"/></g></svg>