<svg viewBox="0 0 83.66 95.31" xmlns="http://www.w3.org/2000/svg" xmlns:xlink="http://www.w3.org/1999/xlink"><linearGradient id="a" gradientUnits="userSpaceOnUse" x1="41.83" x2="41.83" y1="95.31" y2="65.85"><stop offset="0" stop-color="#8d412b"/><stop offset=".23" stop-color="#8d291c"/><stop offset=".48" stop-color="#8d150f"/><stop offset=".74" stop-color="#8d0908"/><stop offset="1" stop-color="#8d0505"/></linearGradient><linearGradient id="b" gradientUnits="userSpaceOnUse" x1="50.66" x2="50.66" y1="88.43" y2="69.73"><stop offset="0" stop-color="#8d7869"/><stop offset=".99" stop-color="#5f0582"/></linearGradient><linearGradient id="c" gradientUnits="userSpaceOnUse" x1="69.7" x2="69.7" y1="53.98" y2="31.99"><stop offset="0" stop-color="#81000a"/><stop offset=".42" stop-color="#890307"/><stop offset="1" stop-color="#8d0505"/></linearGradient><linearGradient id="d" x1="70.13" x2="70.13" xlink:href="#b" y1="47.28" y2="35.88"/><linearGradient id="e" x1="67.86" x2="67.86" xlink:href="#b" y1="46.99" y2="38.15"/><linearGradient id="f" gradientTransform="matrix(-1 0 0 1 -143.56 0)" x1="-157.18" x2="-157.18" xlink:href="#c" y1="53.98" y2="31.99"/><linearGradient id="g" gradientTransform="matrix(-1 0 0 1 -143.56 0)" x1="-156.74" x2="-156.74" xlink:href="#b" y1="47.28" y2="35.88"/><linearGradient id="h" gradientTransform="matrix(-1 0 0 1 -143.56 0)" x1="-159.01" x2="-159.01" xlink:href="#b" y1="46.99" y2="38.15"/><linearGradient id="i" gradientUnits="userSpaceOnUse" x1="41.21" x2="41.21" y1="75.5" y2="5.33"><stop offset="0" stop-color="#631d2b"/><stop offset=".28" stop-color="#792625"/><stop offset=".51" stop-color="#872c22"/><stop offset=".57" stop-color="#882a1d"/><stop offset=".78" stop-color="#8c2611"/><stop offset="1" stop-color="#8d240d"/></linearGradient><linearGradient id="j" gradientUnits="userSpaceOnUse" x1="41.61" x2="41.61" y1="87.15"><stop offset="0" stop-color="#c7544b"/><stop offset="1" stop-color="#b63651"/></linearGradient><linearGradient id="k" gradientUnits="userSpaceOnUse" x1="15.42" x2="15.42" y1="83.76" y2="8.95"><stop offset="0" stop-color="#ffeadb"/><stop offset=".99" stop-color="#d177f4"/></linearGradient><linearGradient id="l" x1="28.02" x2="28.56" xlink:href="#k" y1="8.38" y2="8.38"/><linearGradient id="m" x1="45.64" x2="45.64" xlink:href="#k" y1="87.15" y2=".61"/><linearGradient id="n" gradientUnits="userSpaceOnUse" x1="69.91" x2="69.91" y1="86.49" y2="54.97"><stop offset=".01" stop-color="#d177f4"/><stop offset="1" stop-color="#ffeadb"/></linearGradient><linearGradient id="o" x1="16.76" x2="16.76" xlink:href="#n" y1="85.43" y2="51.65"/><linearGradient id="p" x1="65.55" x2="65.55" xlink:href="#n" y1="83.76" y2="57.16"/><path d="m20.69 83.48s24.82 4.15 32.67 2a21.55 21.55 0 0 0 11.58-7.45l.6-25.03-51.71-4.7s.48 29.88 6.86 35.18z" fill="#921d33"/><path d="m23.37 65.85s-.61 16.83-1 18.49-22.37 10.97-22.37 10.97h83.66s-23.8-8.4-24.44-10.31-.66-18-.66-18z" fill="url(#a)"/><path d="m23.1 72.56s4.12 1.16 5.12 2.94 7.41 15.18 12.47 15.4 8.31-6.9 10.9-8.56 7.22-1.76 7.22-1.76l-.25-13.58-35.19-1.15z" fill="#5f0546" opacity=".6"/><path d="m47.3 75.08-1.3 13.35a57.08 57.08 0 0 0 4.75-6.09c1.6-2.56 4.6-12.61 4.6-12.61z" fill="url(#b)" opacity=".6"/><path d="m25.64 87.91s5.6 5.09 15.36 5.09a26.93 26.93 0 0 0 15.6-4.6 28.86 28.86 0 0 1 -16.6 5.3c-9.86 0-14.36-5.79-14.36-5.79z" fill="#5f0546" opacity=".6"/><path d="m65.07 37.31s3.5-5.31 5.87-5.31c1.45 0 4.93 3 4.89 5.93 0 3.88-3.48 8.29-4.34 10.55s-3.07 5.19-4.49 5.52-3.39-2.51-3.39-2.51.67-10.67 1.46-14.18z" fill="url(#c)"/><path d="m65.32 43s5.75-7.1 7.84-7.1 2.09 4 1.25 6.34c-.58 1.6-1.72 3.9-1.72 3.9a19 19 0 0 0 1-4.32c.16-2.85-.47-4.93-1.19-4.92-1.32 0-2.37 1.82-2.53 2.46s1 3.45.72 5.41-1.49 2.71-1.88 2.5.19-2.45-.14-3.27-1.39-1.92-2-1.67-1.35.67-1.35.67z" fill="url(#d)" opacity=".6"/><path d="m65.32 43s1.42-.85 1.85-.58 1.53 1.26 1.57 1.88-.34 2.38 0 2.68 1.6-1.68 1.66-3.43a13.46 13.46 0 0 0 -.93-4c0-.24.23-1.37.23-1.37a38.4 38.4 0 0 0 -4.38 4.82z" fill="url(#e)" opacity=".6"/><path d="m18.24 37.31s-3.5-5.31-5.87-5.31c-1.45 0-4.94 3-4.9 5.93.06 3.88 3.49 8.29 4.34 10.55s3.08 5.2 4.55 5.49 3.39-2.51 3.39-2.51-.75-10.64-1.51-14.15z" fill="url(#f)"/><path d="m18 43s-5.74-7.1-7.83-7.1-2.09 4-1.25 6.34c.58 1.6 1.72 3.9 1.72 3.9a19 19 0 0 1 -1-4.32c-.16-2.85.47-4.93 1.19-4.92 1.32 0 2.36 1.82 2.53 2.46s-1.05 3.45-.73 5.41 1.5 2.71 1.89 2.5-.21-2.43.15-3.21 1.39-1.92 2-1.67 1.33.61 1.33.61z" fill="url(#g)" opacity=".6"/><path d="m18 43s-1.41-.85-1.84-.58-1.53 1.26-1.57 1.88.34 2.38 0 2.68-1.6-1.68-1.66-3.43a13.46 13.46 0 0 1 .93-4c0-.24-.23-1.37-.23-1.37a37.77 37.77 0 0 1 4.37 4.82z" fill="url(#h)" opacity=".6"/><path d="m66 39.59c-.39 4.18-1.19 8.07-1.38 12.44s-.52 7.97-1.2 9.55a8.51 8.51 0 0 1 -1.53 2.26c-1.94 2.19-5 4.49-7.12 6.64a19.18 19.18 0 0 1 -2.39 2.08 17.73 17.73 0 0 1 -3.59 2.11c-2 .82-7.16.82-7.16.82s-5.17 0-7.16-.82a19.3 19.3 0 0 1 -6-4.2c-2.47-2.55-6.32-5.29-8-7.81a6.32 6.32 0 0 1 -.61-1.09c-.68-1.62-1-5.18-1.23-9.55s-1-8.26-1.38-12.44-2-19.53-.78-22.86 17-11.4 25.2-11.4c5.73 0 14.65 4.4 19.89 8.18 2.22 1.6 3.78 3.09 4.14 4.08 1.19 3.34.72 17.83.3 22.01z" fill="url(#i)"/><path d="m61.89 63.84c-1.94 2.19-5 4.49-7.12 6.64a19.18 19.18 0 0 1 -2.39 2.08 17.73 17.73 0 0 1 -3.59 2.11c-2 .82-7.16.82-7.16.82s-5.17 0-7.16-.82a19.3 19.3 0 0 1 -6-4.2c-2.47-2.55-6.32-5.29-8-7.81 0 0 2.8 2.6 5.76 5.07s7.88 7.15 15.44 7.15 13.16-5.6 14.33-6.46 5.73-4.42 5.89-4.58z" fill="#5f0546" opacity=".6"/><path d="m67 86.49a18.56 18.56 0 0 0 1.6-8.64 18.9 18.9 0 0 1 -3.91 5.91l1-3.18c-1.82 3.54-6.18 6.57-6.18 6.57s3.71-32.63 2.34-45.57-4-26-5.35-28.64-4.74-4.08-8.45-5.27-12.43-1.1-13.47 0-14.51 27.08-15.9 46.33 4.42 33.15 4.42 33.15c-1.86-.07-5.1-2.89-5.1-2.89l-2.54-2v1.51c-5.28-6.44-6.21-17.68-6.21-17.68a33.51 33.51 0 0 0 3.94 16.86c-8.64-5.74-8.3-28-4.81-36.85 3.39-8.55 1.77-22.46 4.32-27.57.06-.14.14-.27.21-.4 2-3.31 7.3-6.58 11.18-8.77l.18-.11.48-.25c1.36-.75 2.5-1.35 3.17-1.75 2.62-1.57 5.31-6.52 7.56-7.17 1.21-.35 3.07.52 5.15 1.57a31 31 0 0 0 5.61 2.43 50.11 50.11 0 0 1 7-1.66 1.84 1.84 0 0 1 1 .23c1.62.76 3.94 3.26 6.06 5.49.86.9 1.69 1.77 2.42 2.46 2.95 2.77 6.77 6.11 7.75 17.1a77.76 77.76 0 0 0 4.74 22.06 38.64 38.64 0 0 1 1.9 10.79c.67 12.95-9.76 25.56-10.11 25.94z" fill="url(#j)"/><path d="m15.45 82.25v1.51c-5.28-6.44-6.21-17.68-6.21-17.68a33.51 33.51 0 0 0 3.94 16.86c-8.64-5.74-8.3-28-4.81-36.85 3.39-8.55 1.77-22.46 4.32-27.57-1.39 3.48.44 13.72-1.59 18.59s-3.63 19.44-3.63 19.44a97.17 97.17 0 0 0 6.14-14c2.11-6.55.65-16.67 3.39-23.93a18.17 18.17 0 0 1 7.14-9.29l.18-.11.44-.22c-10.3 8.1-6.93 18.67-11 40.91s1.69 32.34 1.69 32.34z" fill="url(#k)"/><path d="m28.56 7.71c-.06.14-.25.6-.54 1.34.2-.54.38-.99.54-1.34z" fill="url(#l)"/><path d="m67 86.49a18.56 18.56 0 0 0 1.6-8.64 18.9 18.9 0 0 1 -3.91 5.91l1-3.18c-1.82 3.54-6.18 6.57-6.18 6.57s3.71-32.63 2.34-45.57-4-26-5.35-28.64-4.74-4.08-8.45-5.27-12.43-1.1-13.47 0-14.51 27.08-15.9 46.33 4.42 33.15 4.42 33.15c-1.86-.07-5.1-2.89-5.1-2.89l-2.54-2c-2.38-8-1.63-24.53 2.54-41.83a248.49 248.49 0 0 1 10-31.34c-2.4 6.55-7.32 25.51-7.48 26.15 5.3-11.78 12.35-33.1 14.57-34.4 1-.57 3.28 0 5.54.81a55.84 55.84 0 0 1 5.61 2.43c.38-.18 7.61-1.67 8.63.25 0 0-.63-1.67-.63-1.67 1 2 6.38 20.9 7.62 34.71s1.68 36.06 1.68 36.06.78-6.11 1.63-14.4 2-21.67.61-32.92c-1.3-10.87-5.18-17.51-5.44-17.95.4.47 7 8.3 6.62 18.37-.44 10.4 1 14.61.9 25.37s-1.86 27.18-1.86 27.18 2.46-3.19 4.86-11.5c2.32-8 1.11-20.57 1-21.4 2.81 15.73-1.78 30.75-1.78 30.75s2.64-2.35 4.81-9.35c1.64-5.29.79-13.93.29-17.82a38.64 38.64 0 0 1 1.9 10.79c.7 12.95-9.73 25.56-10.08 25.94z" fill="url(#m)"/><path d="m68.63 77.85s4.27-14 4.16-22.88c0 0-.45 22.69-5.76 31.52a17.69 17.69 0 0 0 1.6-8.64z" fill="url(#n)"/><path d="m15.45 82.25a75 75 0 0 1 .28-30.6s-.82 27 3.76 33.78z" fill="url(#o)"/><path d="m65.72 80.58s1.83-16.6 2-23.42c0 0-2.07 21.21-4.31 26.6a14.66 14.66 0 0 0 2.31-3.18z" fill="url(#p)"/><g fill="#ffd9bb"><path d="m19.75 15.45s5.28-1.29 6.32-2.52l-2.21 6a5 5 0 0 0 -1.71-1.09 16.45 16.45 0 0 0 -3.64.69 11.83 11.83 0 0 1 1.24-3.08z"/><path d="m18.15 15.23a17.53 17.53 0 0 1 -1.77-.46 10.93 10.93 0 0 0 -2.62 2.64 6.35 6.35 0 0 0 2.78.74 28.76 28.76 0 0 1 1.61-2.92z"/><path d="m24.91 19.06s1.39-.29 2.59-2.59a12.64 12.64 0 0 0 1.39-3.77h-1.61s-2.07 5.3-2.37 6.36z"/><path d="m57.9 14.18a22 22 0 0 0 5.66 1.76 33.87 33.87 0 0 1 1.76 8.18s-2.44-2.07-3.71-2.34a8.11 8.11 0 0 0 -2.25-.19z"/><path d="m65.32 15.94a36.7 36.7 0 0 1 2.11 7.69s1.8-.53 1.93-1.31a13.57 13.57 0 0 0 -2-5.58 3.29 3.29 0 0 0 -2.04-.8z"/></g></svg>