<svg viewBox="0 0 154.12 188.94" xmlns="http://www.w3.org/2000/svg" xmlns:xlink="http://www.w3.org/1999/xlink"><linearGradient id="a" gradientUnits="userSpaceOnUse" x1="77.06" x2="77.06" y1="188.94"><stop offset="0" stop-color="#c7544b"/><stop offset="1" stop-color="#b63651"/></linearGradient><linearGradient id="b" gradientUnits="userSpaceOnUse" x1="20.27" x2="20.27" y1="181.58" y2="19.4"><stop offset="0" stop-color="#ffeadb"/><stop offset=".99" stop-color="#d177f4"/></linearGradient><linearGradient id="c" x1="47.59" x2="48.76" xlink:href="#b" y1="18.17" y2="18.17"/><linearGradient id="d" x1="85.78" x2="85.78" xlink:href="#b" y1="188.94" y2="1.32"/><linearGradient id="e" gradientUnits="userSpaceOnUse" x1="138.41" x2="138.41" y1="187.49" y2="119.16"><stop offset=".01" stop-color="#d177f4"/><stop offset="1" stop-color="#ffeadb"/></linearGradient><linearGradient id="f" x1="23.18" x2="23.18" xlink:href="#e" y1="185.21" y2="111.96"/><linearGradient id="g" x1="128.96" x2="128.96" xlink:href="#e" y1="181.58" y2="123.92"/><path d="m132.17 187.49c4.24-8.18 3.45-18.72 3.45-18.72a40.89 40.89 0 0 1 -8.47 12.81l2.17-6.89c-3.94 7.66-13.39 14.25-13.39 14.25s8-70.74 5.07-98.8-8.65-56.29-11.61-62.08-10.28-8.86-18.31-11.44-26.95-2.38-29.19 0-31.53 58.72-34.56 100.38 9.6 71.93 9.6 71.93c-4-.16-11.09-6.27-11.09-6.27l-5.51-4.36v3.27c-11.45-14-13.44-38.33-13.44-38.33a72.38 72.38 0 0 0 8.53 36.55c-18.74-12.43-17.99-60.79-10.42-79.88 7.35-18.52 3.84-48.67 9.36-59.75.14-.3.3-.59.46-.86 4.36-7.19 15.82-14.28 24.24-19l.4-.24c.35-.19.7-.39 1-.56 2.94-1.63 5.4-2.93 6.86-3.79 5.66-3.31 11.5-14 16.38-15.44 2.61-.75 6.65 1.13 11.15 3.4 3.93 2 8.21 4.23 12.18 5.27.64-.18 11-3.3 15.25-3.6a4.2 4.2 0 0 1 2.08.51c3.64 1.55 8.64 6.95 13.26 11.79 1.86 2 3.66 3.83 5.24 5.33 6.39 6 14.68 13.25 16.8 37.09 2.46 27.58 6.93 37.36 10.28 47.82a83.54 83.54 0 0 1 4.12 23.38c1.4 28.08-21.21 55.42-21.89 56.23z" fill="url(#a)"/><path d="m20.33 178.31v3.27c-11.45-14-13.44-38.33-13.44-38.33a72.38 72.38 0 0 0 8.53 36.55c-18.74-12.44-17.99-60.8-10.42-79.89 7.35-18.52 3.84-48.67 9.36-59.75-3 7.6 1 29.74-3.45 40.29s-7.86 42.15-7.86 42.15 8.73-16.06 13.31-30.31 1.41-36.18 7.23-51.93c4.54-12.28 12.28-18.14 15.48-20.13l.4-.24c.67-.4 1.06-.59 1.06-.59-22.37 17.6-15.04 40.51-23.88 88.71s3.68 70.2 3.68 70.2z" fill="url(#b)"/><path d="m48.76 16.72-1.17 2.89c.41-1.16.82-2.14 1.17-2.89z" fill="url(#c)"/><path d="m132.17 187.49c4.24-8.18 3.45-18.72 3.45-18.72a40.89 40.89 0 0 1 -8.47 12.81l2.17-6.89c-3.94 7.66-13.39 14.25-13.39 14.25s8-70.74 5.07-98.8-8.65-56.29-11.61-62.08-10.28-8.86-18.31-11.44-26.95-2.38-29.19 0-31.53 58.72-34.56 100.38 9.6 71.93 9.6 71.93c-4-.16-11.09-6.27-11.09-6.27l-5.51-4.36c-5.15-17.39-3.51-53.19 5.51-90.69a538.35 538.35 0 0 1 21.71-67.9c-5.21 14.19-15.86 55.29-16.23 56.69 11.51-25.54 26.77-71.76 31.59-74.57 2.13-1.25 7.12 0 12 1.74a121.46 121.46 0 0 1 12.19 5.27c.82-.4 16.51-3.61 18.72.54 0 0-1.38-3.62-1.38-3.62 2.29 4.3 13.86 45.3 16.56 75.24s3.63 78.16 3.63 78.16 1.7-13.23 3.53-31.21 4.27-47 1.32-71.36c-2.84-23.55-11.26-37.95-11.82-38.9.87 1 15.27 18 14.34 39.83-1 22.53 2.21 31.68 2 55s-4 58.92-4 58.92 5.35-6.92 10.55-24.92c5-17.41 2.4-44.61 2.22-46.41 6.1 34.11-3.85 66.66-3.85 66.66s5.72-5.09 10.43-20.25c3.55-11.49 1.72-30.22.63-38.64a83.54 83.54 0 0 1 4.12 23.38c1.36 28.08-21.25 55.42-21.93 56.23z" fill="url(#d)"/><path d="m135.62 168.77s9.25-30.44 9-49.61c0 0-1 49.2-12.48 68.33a38.31 38.31 0 0 0 3.48-18.72z" fill="url(#e)"/><path d="m20.33 178.31s-7.33-30.17.67-66.31c0 0-1.79 58.48 8.15 73.25z" fill="url(#f)"/><path d="m129.32 174.69s4-36 4.31-50.77c0 0-4.49 46-9.34 57.66 0 0 3.85-4.08 5.03-6.89z" fill="url(#g)"/><g fill="#ffd9bb"><path d="m29.66 33.5s11.45-2.81 13.71-5.5l-4.81 13s-2.12-2-3.7-2.3-7.86 1.5-7.86 1.5a25.16 25.16 0 0 1 2.66-6.7z"/><path d="m26.19 33a37 37 0 0 1 -3.84-1 23.65 23.65 0 0 0 -5.67 5.73s3.84 2 6 1.6a61.72 61.72 0 0 1 3.51-6.33z"/><path d="m40.85 41.32s3-.63 5.61-5.61a27.4 27.4 0 0 0 3-8.18h-3.46s-4.51 11.52-5.15 13.79z"/><path d="m112.37 30.74s7.78 3.56 12.27 3.81a73.67 73.67 0 0 1 3.82 17.74s-5.3-4.49-8.05-5.08a18.08 18.08 0 0 0 -4.88-.4z"/><path d="m128.46 34.55s4.09 10.53 4.57 16.68c0 0 3.89-1.14 4.17-2.84s-2.63-10.39-4.37-12.09a7.12 7.12 0 0 0 -4.37-1.75z"/></g></svg>