<svg viewBox="0 0 83.66 96.03" xmlns="http://www.w3.org/2000/svg" xmlns:xlink="http://www.w3.org/1999/xlink"><linearGradient id="a" gradientUnits="userSpaceOnUse" x1="41.83" x2="41.83" y1="96.03" y2="66.57"><stop offset="0" stop-color="#b36751"/><stop offset=".23" stop-color="#b34f42"/><stop offset=".48" stop-color="#b33b35"/><stop offset=".74" stop-color="#b32f2e"/><stop offset="1" stop-color="#b32b2b"/></linearGradient><linearGradient id="b" gradientUnits="userSpaceOnUse" x1="50.66" x2="50.66" y1="89.15" y2="70.45"><stop offset="0" stop-color="#b39e8f"/><stop offset=".99" stop-color="#852ba8"/></linearGradient><linearGradient id="c" gradientUnits="userSpaceOnUse" x1="69.7" x2="69.7" y1="54.69" y2="32.7"><stop offset="0" stop-color="#a71f30"/><stop offset=".42" stop-color="#af272d"/><stop offset="1" stop-color="#b32b2b"/></linearGradient><linearGradient id="d" x1="70.13" x2="70.13" xlink:href="#b" y1="48" y2="36.6"/><linearGradient id="e" x1="67.86" x2="67.86" xlink:href="#b" y1="47.71" y2="38.87"/><linearGradient id="f" gradientTransform="matrix(-1 0 0 1 272.5 0)" x1="258.89" x2="258.89" xlink:href="#c" y1="54.69" y2="32.7"/><linearGradient id="g" gradientTransform="matrix(-1 0 0 1 272.5 0)" x1="259.32" x2="259.32" xlink:href="#b" y1="48" y2="36.6"/><linearGradient id="h" gradientTransform="matrix(-1 0 0 1 272.5 0)" x1="257.05" x2="257.05" xlink:href="#b" y1="47.71" y2="38.87"/><linearGradient id="i" gradientUnits="userSpaceOnUse" x1="41.62" x2="41.62" y1="76.22" y2="6.05"><stop offset="0" stop-color="#894351"/><stop offset=".28" stop-color="#9f4c4b"/><stop offset=".51" stop-color="#ad5248"/><stop offset=".57" stop-color="#ae5043"/><stop offset=".78" stop-color="#b24c37"/><stop offset="1" stop-color="#b34a33"/></linearGradient><linearGradient id="j" gradientUnits="userSpaceOnUse" x1="13.27" x2="13.27" y1="22.55" y2="22.32"><stop offset="0" stop-color="#ffb396"/><stop offset="1" stop-color="#ffe0bb"/></linearGradient><linearGradient id="k" x1="41.19" x2="41.19" xlink:href="#j" y1="39.66" y2="0"/><linearGradient id="l" x1="37.69" x2="37.69" xlink:href="#j" y1="12.09" y2="3.8"/><path d="m23.37 66.57s-.61 16.83-1 18.49-22.37 10.94-22.37 10.94h83.66s-23.8-8.38-24.44-10.3-.66-18-.66-18z" fill="url(#a)"/><path d="m23.1 73.28s4.12 1.16 5.12 2.94 7.41 15.18 12.47 15.39 8.31-6.91 10.9-8.55 7.22-1.76 7.22-1.76l-.25-13.57-35.19-1.16z" fill="#852b6c" opacity=".6"/><path d="m47.3 75.79-1.3 13.36a57.08 57.08 0 0 0 4.75-6.09c1.6-2.56 4.6-12.61 4.6-12.61z" fill="url(#b)" opacity=".6"/><path d="m25.64 88.63s5.6 5.12 15.31 5.12a26.93 26.93 0 0 0 15.6-4.6 28.86 28.86 0 0 1 -16.55 5.27c-9.86 0-14.36-5.79-14.36-5.79z" fill="#852b6c" opacity=".6"/><path d="m65.07 38s3.5-5.33 5.87-5.32c1.45 0 4.93 3 4.9 5.94-.06 3.88-3.49 8.28-4.35 10.54s-3.07 5.23-4.49 5.51-3.39-2.5-3.39-2.5.67-10.63 1.46-14.17z" fill="url(#c)"/><path d="m65.32 43.7s5.75-7.1 7.84-7.1 2.09 4 1.25 6.34c-.58 1.6-1.72 3.9-1.72 3.9a19 19 0 0 0 1-4.33c.16-2.85-.47-4.92-1.19-4.91-1.32 0-2.37 1.81-2.53 2.46s1 3.45.72 5.41-1.49 2.71-1.88 2.5.21-2.43-.15-3.21-1.39-1.93-2-1.68-1.34.62-1.34.62z" fill="url(#d)" opacity=".6"/><path d="m65.32 43.7s1.42-.85 1.85-.58 1.53 1.26 1.57 1.88-.34 2.38 0 2.68 1.6-1.68 1.66-3.43a13.55 13.55 0 0 0 -.93-4c0-.23.23-1.36.23-1.36a38.4 38.4 0 0 0 -4.38 4.81z" fill="url(#e)" opacity=".6"/><path d="m18.24 38s-3.5-5.33-5.87-5.32c-1.45 0-4.94 3-4.9 5.94.06 3.88 3.49 8.28 4.34 10.54s3.08 5.21 4.55 5.49 3.39-2.5 3.39-2.5-.75-10.61-1.51-14.15z" fill="url(#f)"/><path d="m18 43.7s-5.74-7.1-7.83-7.1-2.09 4-1.25 6.34c.58 1.6 1.72 3.9 1.72 3.9a19 19 0 0 1 -1-4.33c-.16-2.85.47-4.92 1.19-4.91 1.32 0 2.36 1.81 2.53 2.46s-1.05 3.45-.73 5.41 1.5 2.71 1.89 2.5-.21-2.43.15-3.21 1.39-1.93 2-1.68 1.33.62 1.33.62z" fill="url(#g)" opacity=".6"/><path d="m18 43.7s-1.41-.85-1.84-.58-1.55 1.26-1.59 1.88.34 2.38 0 2.68-1.57-1.68-1.66-3.43a13.55 13.55 0 0 1 .93-4c0-.23-.23-1.36-.23-1.36a37.77 37.77 0 0 1 4.39 4.81z" fill="url(#h)" opacity=".6"/><path d="m66 40.31c-.39 4.17-1.19 8.07-1.38 12.44s-.55 7.93-1.24 9.55a8.51 8.51 0 0 1 -1.53 2.26c-1.94 2.19-5 4.48-7.12 6.64a20 20 0 0 1 -2.39 2.08 18.24 18.24 0 0 1 -3.59 2.11c-2 .82-7.16.82-7.16.82s-5.17 0-7.16-.82a19.3 19.3 0 0 1 -6-4.2c-2.47-2.55-6.32-5.29-8-7.81a6.32 6.32 0 0 1 -.61-1.09c-.68-1.62-1-5.18-1.23-9.55s-1-8.27-1.38-12.44-.86-18.67.38-22 15.86-12.26 24-12.26c5.73 0 14.65 4.4 19.89 8.18 2.22 1.6 3.78 3.09 4.14 4.08 1.27 3.34.8 17.82.38 22.01z" fill="url(#i)"/><path d="m61.89 64.56c-1.94 2.19-5 4.48-7.12 6.64a20 20 0 0 1 -2.39 2.08 18.24 18.24 0 0 1 -3.59 2.11c-2 .82-7.16.82-7.16.82s-5.17 0-7.16-.82a19.3 19.3 0 0 1 -6-4.2c-2.47-2.55-6.32-5.29-8-7.81 0 0 2.8 2.6 5.76 5.06s7.88 7.15 15.44 7.15 13.16-5.59 14.33-6.45 5.73-4.46 5.89-4.58z" fill="#852b6c" opacity=".6"/><path d="m13.23 22.55.07-.23a1.55 1.55 0 0 0 -.07.23z" fill="url(#j)"/><path d="m67.15 19.27c.08.2.43 1.38.31 5.89a98.51 98.51 0 0 1 -1.18 11.2 32.14 32.14 0 0 1 -1.71-8.28c-.6-5.68-1-8.26-1-8.26a34.29 34.29 0 0 0 -4.23-4.82l1.41 5.4a.83.83 0 0 1 -.14-.14c-1-1.13-7-8.1-9.89-9.56a36.84 36.84 0 0 1 -1.91 5.3l-2.34-5.12h-.19c-1.41.06-10.47.48-15.29.48a6 6 0 0 0 -2.47.59l-.34.16c-4.36 2.18-8.43 8.35-8.43 8.35s.21 6.76 0 9-2.61 10.23-2.61 10.23-.53-8.93-.82-12.68-.58-7.19-.58-7.19a5.86 5.86 0 0 0 -2.32 2.18s0 0 0 0l-.06.13a17.82 17.82 0 0 1 8.59-10.09 11.21 11.21 0 0 0 -3.17.68l-.4.17a7.05 7.05 0 0 0 -1.15.55l-.16.09a2.35 2.35 0 0 0 -.26.15 9.88 9.88 0 0 1 4.77-3.48c1.42-.4 2.77-.83 4.21-1.39 1.23-.49 2.52-1.06 4-1.78h.05l.81-.41a50.16 50.16 0 0 0 5.85-3.89c1.99-1.45 3.69-2.73 4.25-2.73 1.09-.06 5.17 1.69 7.52 2.18s4.52 0 5 .27 3.61 5.55 6.73 7.96 7 5.07 7.82 6.76a17.81 17.81 0 0 1 1.17 5s0 0 0 0z" fill="url(#k)"/><g fill="#d177b8"><path d="m19.75 20.44s.21 6.76 0 9-2.61 10.23-2.61 10.23-.53-8.93-.82-12.68-.58-7.19-.58-7.19a5.86 5.86 0 0 0 -2.32 2.2c1.36-3.32 5.12-5.8 5.12-5.8a8.34 8.34 0 0 0 -1.76 3.59 24 24 0 0 0 0 4.29 13.24 13.24 0 0 1 2.56-4.94 62.6 62.6 0 0 1 6.47-7 13.91 13.91 0 0 0 -3.63-.24 10.1 10.1 0 0 0 -3.41.83c-.56.23-1 .46-1.39.64a3.37 3.37 0 0 0 -.32.17 2.35 2.35 0 0 0 -.26.15c.25-.22 3.75-3.05 6.76-3.1a6.54 6.54 0 0 1 4.62 1.46c-4.36 2.22-8.43 8.39-8.43 8.39z" opacity=".5"/><path d="m46.47 10.85h-.19c-1.41.06-10.47.48-15.29.48a6 6 0 0 0 -2.47.59 6.08 6.08 0 0 0 -2.75-3.07 38.31 38.31 0 0 1 4.45-1.12s9.7-6.73 10.34-6.48c1.75.66 5.91 9.6 5.91 9.6z" opacity=".72"/><path d="m60.75 20.38a.83.83 0 0 1 -.14-.14c-1-1.13-7-8.1-9.89-9.56a23 23 0 0 0 0-7.5s8.28 11.82 10.03 17.2z" opacity=".5"/><path d="m67.15 19.27c.08.2.43 1.38.31 5.89a98.51 98.51 0 0 1 -1.18 11.2 32.14 32.14 0 0 1 -1.71-8.28c-.6-5.68-1-8.26-1-8.26a34.29 34.29 0 0 0 -4.23-4.82 44 44 0 0 0 -2.17-6.9c.68 1.18 4.37 7.6 5.83 9.9a11.51 11.51 0 0 0 3.85 3.67 18.07 18.07 0 0 0 -.85-4.97s2.24 1.16 3 5.5z" opacity=".5"/><path d="m50.72 10.68a33.35 33.35 0 0 1 6.45 5.72s-1.38-8.35-6.45-13.22a13 13 0 0 1 0 7.5z" opacity=".5"/></g><path d="m30 11.44s1.5-7 2.4-7.57 9.21 2.18 13 8.22c0 0-13.32-4.25-13.88-4-.95.41-1.52 3.35-1.52 3.35z" fill="url(#l)"/></svg>