<svg viewBox="0 0 103.06 19.34" xmlns="http://www.w3.org/2000/svg" xmlns:xlink="http://www.w3.org/1999/xlink"><linearGradient id="a" gradientUnits="userSpaceOnUse" x1="62.51" x2="103.06" y1="9.67" y2="9.67"><stop offset="0"/><stop offset="1" stop-color="#290000"/></linearGradient><linearGradient id="b" gradientTransform="matrix(-1 0 0 1 -947.73 0)" x1="-988.28" x2="-947.73" xlink:href="#a" y1="9.67" y2="9.67"/><path d="m66 19.34a44.59 44.59 0 0 1 -3.49-12.34l2.49-1.13s.39 6.1 3.63 10.2a51.26 51.26 0 0 1 -2.33-10.2s25.18-4.25 26.41-4a11.53 11.53 0 0 1 3.09 1.45l-1-3.32s6.33 9.53 8.26 17.89c0 0-5.79-4.51-9.42-5-5.79-.76-19.72 3.54-27.64 6.45z" fill="url(#a)"/><path d="m70.5 17.76s-.94-8.93 1.14-12.76a31 31 0 0 0 0 9s4.8-8.83 10.36-10.69l-15.7 2.56s.92 6.9 2.31 10.2c0 0-2.62-2.06-3.63-10.2l-2.47 1.13a35.54 35.54 0 0 0 3.49 12.34z" fill="#510038" opacity=".6"/><path d="m37.05 19.34a44.21 44.21 0 0 0 3.5-12.34l-2.47-1.13s-.39 6.1-3.63 10.2a51.71 51.71 0 0 0 2.32-10.2s-25.18-4.25-26.42-4a11.53 11.53 0 0 0 -3.09 1.45l1.01-3.32s-6.34 9.53-8.27 17.89c0 0 5.8-4.51 9.42-5 5.8-.76 19.73 3.54 27.63 6.45z" fill="url(#b)"/><path d="m32.56 17.76s.94-8.93-1.13-12.76a31.4 31.4 0 0 1 0 9s-4.81-8.83-10.36-10.69l15.7 2.56s-.93 6.9-2.32 10.2c0 0 2.63-2.06 3.63-10.2l2.47 1.13a35.29 35.29 0 0 1 -3.5 12.36z" fill="#510038" opacity=".6"/></svg>