<svg viewBox="0 0 34.44 19.93" xmlns="http://www.w3.org/2000/svg" xmlns:xlink="http://www.w3.org/1999/xlink"><linearGradient id="a" gradientUnits="userSpaceOnUse" x1="17.32" x2="17.32" y1="16.44"><stop offset="0" stop-color="#d35458"/><stop offset=".08" stop-color="#d45758"/><stop offset=".54" stop-color="#d86359"/><stop offset="1" stop-color="#d96759"/></linearGradient><linearGradient id="b" gradientUnits="userSpaceOnUse" x1="25.21" x2="32.93" y1="14.05" y2="14.05"><stop offset=".02" stop-color="#562b8d"/><stop offset=".99" stop-color="#97639e"/></linearGradient><linearGradient id="c" x1=".97" x2="8.43" xlink:href="#b" y1="13.97" y2="13.97"/><linearGradient id="d" gradientUnits="userSpaceOnUse" x1="4.89" x2="4.89" y1="12.4" y2="1.51"><stop offset="0" stop-color="#d9c4b5"/><stop offset=".99" stop-color="#ab51ce"/></linearGradient><linearGradient id="e" gradientTransform="matrix(-1 0 0 1 1867.99 0)" x1="1838.45" x2="1838.45" xlink:href="#d" y1="12.4" y2="1.51"/><path d="m1 13.46s-4.33-13.46 16-13.46 16.83 13.2 16.83 13.2l-.9.26s-5.54 3-16 3-15.93-3-15.93-3z" fill="url(#a)"/><path d="m17 12.4c-10.6 0-16 1.06-16 1.06 5.43-.13 9.79 2.94 16 3s10.55-3.11 16-3a102 102 0 0 0 -16-1.06z" fill="#ab5192" opacity=".6"/><path d="m25.21 14.9s2.73-2.5 7.72-1.44z" fill="url(#b)" opacity=".5"/><path d="m1 13.46s3.19-1.35 7.46 1.36z" fill="url(#c)" opacity=".5"/><g fill="#ab5192"><path d="m3 4a8 8 0 0 0 -2.39 9.2 26.25 26.25 0 0 1 2.39-9.2z" opacity=".6"/><path d="m31.42 4a8 8 0 0 1 2.41 9.21 26.25 26.25 0 0 0 -2.41-9.21z" opacity=".6"/><path d="m1 13.46s8.72 6.47 16 6.47 16-6.47 16-6.47-17.89-2.29-32 0z" opacity=".6"/></g><path d="m23.84 10.15c-.07-.77 1.05-1.64 1.91-1.56s.42 1.75 0 2.07-1.91-.51-1.91-.51z" fill="#d9a692"/><path d="m3 4s1.51 2 3.08 8.4c0 0 2.32-6-1.53-10.89z" fill="url(#d)" opacity=".6"/><path d="m31.42 4s-1.49 2-3.06 8.41c0 0-2.33-6 1.53-10.89z" fill="url(#e)" opacity=".6"/></svg>