<svg viewBox="0 0 122.36 98.27" xmlns="http://www.w3.org/2000/svg" xmlns:xlink="http://www.w3.org/1999/xlink"><linearGradient id="a" gradientUnits="userSpaceOnUse" x1="61.18" x2="61.18" y1="98.27"><stop offset="0" stop-color="#a84051"/><stop offset="1" stop-color="#bf5e4b"/></linearGradient><path d="m117.19 22.55c0-.12-.09-.23-.14-.36l-.28-.66a4.71 4.71 0 0 0 -.21-.52 3.88 3.88 0 0 0 -.15-.36s0 0 0-.06v-.06c-1.19-2.6-2.4-4.42-3.5-5.1-4.57-2.84-18-1.74-18-1.74s14.33-6.93 24.89-4.41c0 0-6.34-4.61-12.73-3.9-5.35.62-11.22 6.53-17.65 7.62a11 11 0 0 1 -3.84 0 0 0 0 0 1 0 0 8.44 8.44 0 0 1 -2.58-1c-5.79-3.11-15.38-12.1-21.56-12-7.21.13-16.79 5.35-33.51 10.47a33.13 33.13 0 0 0 -12.81 7.22 0 0 0 0 0 0 0l-.09.08c-8.29 7.63-12.83 19.45-14.69 33.72-1 7.33.24 15.4 2.17 22.75a125.07 125.07 0 0 0 8.49 22.39c.48 1 .79 1.54.84 1.64 0-.13-.18-1-.39-2.42-.7-4.6-2-14.7-1.33-20.74a16.86 16.86 0 0 1 1.8-5.69s0 0 0 0a.19.19 0 0 0 0-.07c2.9-5.57 8.47-10.71 13.44-16.74 2.1-2.55 4.92-6 8.3-9.42 10.34-1.65 40.6-7.39 55.55-20.74a29.29 29.29 0 0 1 11.93 10.79c4.73 7.69 6 25.29 8 36.94s2.55 19.6 2.55 19.6 8.2-14.81 10.25-32c1.48-12.02-1.35-26.59-4.75-35.23zm-55.75 4.31a213.15 213.15 0 0 1 -19.11 10.85c-1.94 1-3.91 1.88-5.85 2.72 6.86-6.52 15.52-12.66 24.96-13.57z" fill="url(#a)"/><g fill="#d177b8"><path d="m15.11 17.71v.05z" opacity=".6"/><path d="m14.28 37.39c-4.85 14.77-2.37 32-2.37 32a16.86 16.86 0 0 0 -1.8 5.69c-.72 6 .63 16.14 1.33 20.74l-.45.78a125.07 125.07 0 0 1 -8.48-22.36c-.39-4.79-.66-10.1-.76-15.82-.44-26.02 11.72-39.07 13.25-40.58l.09-.08c-.64.78-5.74 7.31-7.51 18.45-1.9 11.88 0 25.53 0 25.53.48-16.42 7.25-29.49 12-36.68a68.57 68.57 0 0 0 -5.3 12.33z" opacity=".6"/><path d="m116.4 20.63-.06-.12v.06s.06.04.06.06z" opacity=".6"/><path d="m116.56 21c.06.14.14.32.22.52z" opacity=".6"/><path d="m122 57.79c-2 17.18-10.25 32-10.25 32s-.54-8-2.55-19.6-3.31-29.25-8-36.94a29.29 29.29 0 0 0 -11.99-10.8c-14.95 13.35-45.21 19.09-55.52 20.72-3.38 3.47-6.2 6.87-8.3 9.42-5 6-10.54 11.17-13.44 16.74.66-1.76 11.7-30.47 27.73-39.63 16.56-9.45 33.68-18.7 33.68-18.7s-10.75-1.17-18.55.36-18.91 8.19-26.88 15.5c-6.93 6.37-11.93 22.14-13.05 26.06 1.3-4.78 7.8-27.21 15.71-32 8.87-5.32 31.6-22.49 38.76-16.82a62.11 62.11 0 0 0 13.65 7.9c1.42.61 2.37 1 2.53 1a0 0 0 0 0 0 0h3.84s-.56 3.1-3 4.05-24.93 9.79-24.93 9.79c-9.45.91-18.1 7-25 13.57 1.94-.84 3.91-1.76 5.85-2.72-1.69 1.16-2.76 1.92-2.76 1.92s17.49-1.3 27.77-5.55 21.32-14.75 21.32-14.75 9.8 2.94 13.93 10.39 12.18 40.42 12.18 40.42 4-32.38-6.14-44.07c-5.5-6.33-15.13-9.4-16.42-9.67 1.51.19 15.06 2.15 18.78 9.43 3.94 7.72 8.82 38 8.82 38a75 75 0 0 0 -2.72-41.59c3.47 8.55 6.4 23.36 4.95 35.57z" opacity=".6"/><path d="m14.43 63.43s5.64-16.83 11.9-27.34 14.19-14.56 14.19-14.56-16.14 18.07-26.09 41.9z" opacity=".6"/></g><path d="m100.39 25.25a59.2 59.2 0 0 1 5 9.38s1.3-3.77 4.09-4.69a32.46 32.46 0 0 0 -3.73-6.65s-2.99 1.25-5.36 1.96z" fill="#ffd9bb"/><path d="m106.85 20.51a14.47 14.47 0 0 1 5.28 6.67s2.81-4 3.23-5.91-2.56-5.47-2.56-5.47-3.58-1.61-5.95 4.71z" fill="#ffd9bb"/><path d="m40.52 29a54.67 54.67 0 0 0 3.7-5.67c.87-1.82-3.7-4.89-3.7-4.89l5.12-2.78s3.41 2.66 3.32 4.89 2.9 1.78 2.9 1.78z" fill="#ffd9bb"/><path d="m39.51 15.21a25.19 25.19 0 0 0 -5.3-3.11c-2.12-.71-1.09-3.29-1.09-3.29l3.07-1.05a8.49 8.49 0 0 0 2.59 3.72c1.89 1.48 6.61 0 6.61 0z" fill="#ffd9bb"/><path d="m51.86 33.64a26.78 26.78 0 0 0 11.66 1c6.22-.94 8.9-3.86 8.9-3.86s-8.85-.14-11.29-1.78z" fill="#ffd9bb"/></svg>