<svg viewBox="0 0 120.99 85.98" xmlns="http://www.w3.org/2000/svg" xmlns:xlink="http://www.w3.org/1999/xlink"><linearGradient id="a" gradientUnits="userSpaceOnUse" x1=".08" x2=".08" y1="48.89" y2="48.38"><stop offset="0" stop-color="#ffb396"/><stop offset="1" stop-color="#ffe0bb"/></linearGradient><linearGradient id="b" x1="60.63" x2="60.63" xlink:href="#a" y1="85.98" y2="0"/><linearGradient id="c" x1="53.02" x2="53.02" xlink:href="#a" y1="26.22" y2="8.23"/><path d="m0 48.89c0-.14.09-.3.16-.51a3 3 0 0 0 -.16.51z" fill="url(#a)"/><path d="m116.88 41.78c.18.44 1 3 .68 12.77a210.92 210.92 0 0 1 -2.56 24.28s-2.42-5.68-3.71-18-2.18-17.83-2.18-17.83a74.78 74.78 0 0 0 -9.11-10.5l3 11.7-.28-.31c-2.07-2.46-15.16-17.57-21.45-20.72a81.71 81.71 0 0 1 -4.14 11.46l-5.08-11.1h-.41c-3.07.14-22.7 1-33.15 1a13.1 13.1 0 0 0 -5.36 1.28c-.25.1-.48.23-.73.35-9.4 4.77-18.27 18.15-18.27 18.15s.45 14.66 0 19.5-5.65 22.19-5.65 22.19-1.15-19.38-1.77-27.51-1.26-15.59-1.26-15.59a12.76 12.76 0 0 0 -5 4.87 0 0 0 0 1 0 0l-.14.29c1.22-3.73 6-15.49 18.63-21.88a24.08 24.08 0 0 0 -6.94 1.5l-.87.37a17.46 17.46 0 0 0 -2.48 1.19l-.35.19c-.3.16-.5.29-.58.32.3-.42 4.32-5.83 10.33-7.53 3.09-.87 6-1.81 9.13-3 2.68-1.05 5.47-2.28 8.65-3.85.58-.28 1.16-.59 1.76-.89a107.69 107.69 0 0 0 12.77-8.48.1.1 0 0 0 0 0c4.35-3.17 8-5.88 9.24-5.95 2.4-.17 11.28 3.61 16.4 4.68s9.81.11 10.76.59 7.91 11.93 14.77 17.25 15.11 11 16.94 14.66c1.69 3.31 2.42 9.68 2.53 10.81v.09s0 .06 0 .09z" fill="url(#b)"/><g fill="#d177b8"><path d="m14.13 44.31s.45 14.66 0 19.5-5.65 22.19-5.65 22.19-1.15-19.38-1.77-27.51-1.26-15.59-1.26-15.59a12.76 12.76 0 0 0 -5 4.87c3-7.21 11.1-12.59 11.1-12.59s-3.34 3.82-3.85 7.82a51.8 51.8 0 0 0 0 9.29s.66-4 5.55-10.72 14-15.14 14-15.14a30.08 30.08 0 0 0 -7.87-.54 22.59 22.59 0 0 0 -7.38 1.79c-1.21.49-2.25 1-3 1.38-.23.13-.46.23-.69.37s-.5.29-.58.32c.55-.46 8.14-6.61 14.66-6.71 6.77-.1 10 3.17 10 3.17-9.39 4.72-18.26 18.1-18.26 18.1z" opacity=".5"/><path d="m72.06 23.52h-.41c-3.07.14-22.7 1-33.15 1a13.1 13.1 0 0 0 -5.36 1.28c-.82-3.13-4.16-5.55-6-6.66a85.92 85.92 0 0 1 9.66-2.42s21-14.59 22.41-14.07c3.84 1.48 12.85 20.87 12.85 20.87z" opacity=".72"/><path d="m103 44.19-.28-.31c-2.07-2.46-15.16-17.57-21.45-20.72a50 50 0 0 0 0-16.27s17.84 25.71 21.73 37.3z" opacity=".5"/><path d="m116.88 41.78c.18.44 1 3 .68 12.77a210.92 210.92 0 0 1 -2.56 24.28s-2.42-5.68-3.71-18-2.18-17.83-2.18-17.83a74.78 74.78 0 0 0 -9.11-10.5s-2.55-10.8-4.7-15c1.44 2.61 9.43 16.5 12.7 21.5a25.17 25.17 0 0 0 8.35 8 39.16 39.16 0 0 0 -1.81-10.72s4.85 2.51 6.49 11.93v.09z" opacity=".5"/><path d="m81.28 23.16a72.36 72.36 0 0 1 14 12.38s-3-18.1-14-28.65a28.18 28.18 0 0 1 0 16.27z" opacity=".5"/></g><path d="m36.38 24.8s3.24-15.2 5.19-16.41 20 4.73 28.09 17.83c0 0-28.87-9.22-30.1-8.68-1.97.88-3.18 7.26-3.18 7.26z" fill="url(#c)"/></svg>