<svg viewBox="0 0 83.66 98.72" xmlns="http://www.w3.org/2000/svg" xmlns:xlink="http://www.w3.org/1999/xlink"><linearGradient id="a" gradientUnits="userSpaceOnUse" x1="41.83" x2="41.83" y1="98.72" y2="69.26"><stop offset="0" stop-color="#d98d77"/><stop offset=".23" stop-color="#d97568"/><stop offset=".48" stop-color="#d9615b"/><stop offset=".74" stop-color="#d95554"/><stop offset="1" stop-color="#d95151"/></linearGradient><linearGradient id="b" gradientUnits="userSpaceOnUse" x1="50.66" x2="50.66" y1="91.84" y2="73.14"><stop offset="0" stop-color="#d9c4b5"/><stop offset=".99" stop-color="#ab51ce"/></linearGradient><linearGradient id="c" gradientUnits="userSpaceOnUse" x1="69.7" x2="69.7" y1="57.38" y2="35.39"><stop offset="0" stop-color="#cd4556"/><stop offset=".42" stop-color="#d54d53"/><stop offset="1" stop-color="#d95151"/></linearGradient><linearGradient id="d" x1="70.13" x2="70.13" xlink:href="#b" y1="50.69" y2="39.29"/><linearGradient id="e" x1="67.86" x2="67.86" xlink:href="#b" y1="50.4" y2="41.56"/><linearGradient id="f" gradientTransform="matrix(-1 0 0 1 276.13 0)" x1="262.52" x2="262.52" xlink:href="#c" y1="57.38" y2="35.39"/><linearGradient id="g" gradientTransform="matrix(-1 0 0 1 276.13 0)" x1="262.95" x2="262.95" xlink:href="#b" y1="50.69" y2="39.29"/><linearGradient id="h" gradientTransform="matrix(-1 0 0 1 276.13 0)" x1="260.68" x2="260.68" xlink:href="#b" y1="50.4" y2="41.56"/><linearGradient id="i" gradientUnits="userSpaceOnUse" x1="41.62" x2="41.62" y1="78.91" y2="8.74"><stop offset="0" stop-color="#af6977"/><stop offset=".28" stop-color="#c57271"/><stop offset=".51" stop-color="#d3786e"/><stop offset=".57" stop-color="#d47669"/><stop offset=".78" stop-color="#d8725d"/><stop offset="1" stop-color="#d97059"/></linearGradient><linearGradient id="j" gradientUnits="userSpaceOnUse" x1="42.32" x2="42.32" y1="42"><stop offset="0" stop-color="#ab4d4b"/><stop offset="1" stop-color="#9a3651"/></linearGradient><linearGradient id="k" gradientUnits="userSpaceOnUse" x1="50.68" x2="50.68" y1="15.63" y2="4.14"><stop offset="0" stop-color="#a84051"/><stop offset="1" stop-color="#bf5e4b"/></linearGradient><linearGradient id="l" x1="43.64" x2="43.64" xlink:href="#k" y1="15.63" y2=".04"/><linearGradient id="m" x1="38.26" x2="38.26" xlink:href="#k" y1="15.83" y2=".04"/><linearGradient id="n" x1="17.08" x2="17.08" xlink:href="#k" y1="24.44" y2="15.26"/><linearGradient id="o" x1="23.9" x2="23.9" xlink:href="#k" y1="19.32" y2="7.75"/><linearGradient id="p" x1="56.19" x2="56.19" xlink:href="#k" y1="15.26" y2="8.96"/><linearGradient id="q" x1="61.13" x2="68.27" xlink:href="#k" y1="18.29" y2="18.29"/><linearGradient id="r" x1="19.91" x2="19.91" xlink:href="#k" y1="19.83" y2="11.1"/><path d="m23.37 69.26s-.61 16.82-1 18.48-22.37 10.98-22.37 10.98h83.66s-23.8-8.41-24.44-10.33-.66-18-.66-18z" fill="url(#a)"/><path d="m23.1 76s4.12 1.15 5.12 2.94 7.41 15.15 12.47 15.36 8.34-6.91 10.9-8.55 7.22-1.75 7.22-1.75l-.25-13.57-35.19-1.17z" fill="#ab5192" opacity=".6"/><path d="m47.3 78.48-1.3 13.36a58.23 58.23 0 0 0 4.75-6.09c1.6-2.57 4.6-12.61 4.6-12.61z" fill="url(#b)" opacity=".6"/><path d="m25.64 91.32s5.6 5.12 15.31 5.12a26.93 26.93 0 0 0 15.6-4.6 28.89 28.89 0 0 1 -16.55 5.26c-9.86 0-14.36-5.78-14.36-5.78z" fill="#ab5192" opacity=".6"/><path d="m65.07 40.71s3.5-5.33 5.87-5.32c1.45 0 4.93 3 4.89 5.94 0 3.88-3.48 8.28-4.34 10.54s-3.07 5.2-4.54 5.49-3.39-2.5-3.39-2.5.72-10.63 1.51-14.15z" fill="url(#c)"/><path d="m65.32 46.39s5.75-7.1 7.84-7.1 2.09 4 1.25 6.34c-.58 1.59-1.72 3.9-1.72 3.9a19.12 19.12 0 0 0 1-4.33c.16-2.85-.47-4.92-1.19-4.92-1.32 0-2.37 1.82-2.53 2.46s1 3.46.72 5.42-1.49 2.71-1.88 2.49.21-2.42-.15-3.2-1.39-1.93-2-1.68-1.34.62-1.34.62z" fill="url(#d)" opacity=".6"/><path d="m65.32 46.39s1.42-.85 1.85-.58 1.53 1.25 1.57 1.87-.34 2.38 0 2.69 1.6-1.68 1.66-3.44a13.55 13.55 0 0 0 -.93-4c0-.24.23-1.36.23-1.36a38.4 38.4 0 0 0 -4.38 4.82z" fill="url(#e)" opacity=".6"/><path d="m18.24 40.71s-3.5-5.33-5.87-5.32c-1.45 0-4.94 3-4.9 5.94.06 3.88 3.49 8.28 4.34 10.54s3.08 5.2 4.55 5.49 3.39-2.5 3.39-2.5-.75-10.63-1.51-14.15z" fill="url(#f)"/><path d="m18 46.39s-5.74-7.1-7.83-7.1-2.09 4-1.25 6.34c.58 1.59 1.72 3.9 1.72 3.9a19.12 19.12 0 0 1 -1-4.33c-.16-2.85.47-4.92 1.19-4.92 1.32 0 2.36 1.82 2.53 2.46s-1.05 3.46-.73 5.42 1.5 2.71 1.89 2.49-.21-2.42.15-3.2 1.39-1.93 2-1.68 1.33.62 1.33.62z" fill="url(#g)" opacity=".6"/><path d="m18 46.39s-1.41-.85-1.84-.58-1.53 1.25-1.57 1.87.34 2.38 0 2.69-1.6-1.68-1.66-3.44a13.55 13.55 0 0 1 .93-4c0-.24-.23-1.36-.23-1.36a37.77 37.77 0 0 1 4.37 4.82z" fill="url(#h)" opacity=".6"/><path d="m66 43c-.39 4.18-1.19 8.08-1.38 12.45s-.55 7.92-1.24 9.55a8.32 8.32 0 0 1 -1.53 2.25c-1.94 2.18-5 4.48-7.12 6.64a20 20 0 0 1 -2.35 2.11 17.92 17.92 0 0 1 -3.59 2.12c-2 .82-7.16.82-7.16.82s-5.17 0-7.16-.82a19.67 19.67 0 0 1 -6-4.2c-2.47-2.55-6.32-5.29-8-7.81a6.71 6.71 0 0 1 -.66-1.11c-.68-1.63-1-5.18-1.23-9.55s-1-8.27-1.38-12.45-.86-18.67.38-22 15.86-12.25 24-12.25c5.73 0 14.65 4.4 19.89 8.17 2.26 1.6 3.82 3.08 4.18 4.08 1.24 3.32.77 17.81.35 22z" fill="url(#i)"/><path d="m61.89 67.25c-1.94 2.18-5 4.48-7.12 6.64a20 20 0 0 1 -2.39 2.11 17.92 17.92 0 0 1 -3.59 2.12c-2 .82-7.16.82-7.16.82s-5.17 0-7.16-.82a19.67 19.67 0 0 1 -6-4.2c-2.47-2.55-6.32-5.29-8-7.81 0 0 2.8 2.6 5.76 5.06s7.88 7.15 15.44 7.15 13.16-5.63 14.33-6.49 5.73-4.46 5.89-4.58z" fill="#ab5192" opacity=".6"/><path d="m37.38 3.82a15.68 15.68 0 0 1 7.92-1.71c4.67.19 10 2.71 10 2.71l-12.86 6.92-5.78-2.12z" fill="#811e52"/><path d="m69.7 24.44-1.29-.93-2.19 17.55s.53-5.93-.28-9.22-.62-9.84-.62-9.84-4.93-6-9.53-7.37c0 0-6 .71-15.06 1.05s-14.23.18-14.23.18-6 3.33-7.93 6.66c0 0 .05 5-.1 7.71s-1.47 11.77-1.47 11.77a.67.67 0 0 0 0-.1c-.07-1.14-.82-11.93-1.61-16.39 0-.16-.06-.32-.08-.48q-.13-.86-.21-1.71a.09.09 0 0 0 0-.05 43.25 43.25 0 0 1 -.1-5.58c0-.1 0-.21 0-.31a2.72 2.72 0 0 0 0-.28c0-.08 0-.17 0-.24s0-.16 0-.24 0-.34 0-.49a1.38 1.38 0 0 1 0-.22c0-.07 0-.14 0-.2a2.13 2.13 0 0 0 0-.3.08.08 0 0 0 0 0v-.06l.16.05 1.12 2.15a0 0 0 0 0 0 0l.08-.08c.32-.38 1.35-1.57 2.83-3.12l.25-.25.06-.07.48-.49.14-.14c1.43-1.46 3.17-3.12 5.05-4.7l.2-.16c.67-.56 1.37-1.11 2.07-1.63a52.05 52.05 0 0 1 12.94-6.91h3.06s-3.56 5.89-4.35 9.57c.11-.23 3.57-7.88 6.4-9.57a11.49 11.49 0 0 1 5.8 1.07s-5.16 4.35-6.43 7.77c.21-.17 8.71-7.29 14.91-3.57a13.15 13.15 0 0 0 -3.61-.17s1.84.79 4.6 3.9c.41.46.87 1 1.37 1.66 2.87 3.73 6.78 9.96 7.57 13.78z" fill="url(#j)"/><path d="m41.59 15.63s7.84-15.87 18.19-10.31c0 0-9.82-.76-16.75 10.25z" fill="url(#k)"/><path d="m45.49 0s-6.33 6.64-7.26 15.59h3.36a26.71 26.71 0 0 1 7.46-15.26 20.89 20.89 0 0 0 -3.56-.33z" fill="url(#l)"/><path d="m40.37 0a32.08 32.08 0 0 0 -5.44 15.79 36.25 36.25 0 0 1 6.66-15.79z" fill="url(#m)"/><path d="m15.86 17.27a51.86 51.86 0 0 0 3.14 4.56l-.44.68v1.93a8.24 8.24 0 0 1 -3.41-3.44v-5.74z" fill="url(#n)"/><path d="m24.54 9.21s-2.46 2.92-3.08 10.11l1.2-.95s-.2-6.12 3.69-10.62z" fill="url(#o)"/><path d="m48.36 15.26a18.31 18.31 0 0 1 13.14-6.26l-.43.44 2.95.7a18.65 18.65 0 0 0 -8.23 4.52z" fill="url(#p)"/><path d="m48.94 14.62h6.85s-6 .71-15.06 1.05-14.23.18-14.23.18-6 3.33-7.93 6.66c0 0 .05 5-.1 7.71s-1.47 11.78-1.47 11.78a.67.67 0 0 0 0-.1c-.11-1.16-1.14-12.06-1.69-16.87-.08-.73-.15-1.32-.21-1.71a.09.09 0 0 0 0-.05 33.27 33.27 0 0 1 -.1-5.89 2.72 2.72 0 0 0 0-.28c0-.08 0-.17 0-.24s0-.16 0-.24 0-.34 0-.49a1.38 1.38 0 0 1 0-.22c0-.07 0-.14 0-.2a2.13 2.13 0 0 0 0-.3.08.08 0 0 0 0 0v-.06l.16.05 1.12 2.15a0 0 0 0 0 0 0c.3-.32 1.89-2.1 3.16-3.45l.06-.07.48-.49c1.48-1.48 4.36-4.09 5.19-4.84l.2-.18a12.27 12.27 0 0 0 .76 6c6.72.41 22.81.1 22.81.1z" fill="#d177b8" opacity=".6"/><path d="m69.7 24.44-1.29-.93-2.19 17.55s.53-5.93-.28-9.22-.62-9.84-.62-9.84-4.93-6-9.53-7.37l.4-.38 5.93-3.55c2.88 3.69 6.79 9.92 7.58 13.74z" fill="#d177b8" opacity=".6"/><path d="m61.13 17.81a10.63 10.63 0 0 1 3.87-.53 4.17 4.17 0 0 1 3.28 2 18.29 18.29 0 0 0 -6.28-.67z" fill="url(#q)"/><path d="m20.87 19.83s-4.15-4-1.86-8.73a81.41 81.41 0 0 0 2.49 7.76z" fill="url(#r)"/></svg>