<svg viewBox="0 0 54.6 24.53" xmlns="http://www.w3.org/2000/svg" xmlns:xlink="http://www.w3.org/1999/xlink"><linearGradient id="a" gradientUnits="userSpaceOnUse" x1="26.66" x2="26.66" y1="24.53" y2="8.75"><stop offset="0" stop-color="#ffc0db"/><stop offset=".99" stop-color="#d177f4"/></linearGradient><path d="m6 8.75s8.94 15.78 21.07 15.78c11 0 20.29-15.46 20.29-15.46s-8.58 8.7-16.67 9.52-24.69-9.84-24.69-9.84z" fill="url(#a)"/><path d="m1.89 2.52s8.65 14.66 14.67 16.67 17.07.83 20.63 0 14.2-15.39 14.2-15.39-11.59 10.65-24.75 10.65-24.75-11.93-24.75-11.93z" fill="#ff7d85"/><g fill="#dd6b7c"><path d="m1.89 2.52s7.44 4.35 23.94 4.35 27.17-4.35 27.17-4.35-14.19 12.48-27.17 12.48c-10.91 0-23.94-12.48-23.94-12.48z"/><path d="m50.83 1.2a24.52 24.52 0 0 1 3.71 3.8s.38-3-.75-4.48-2.96.68-2.96.68z"/><path d="m3.77 1.2a24.52 24.52 0 0 0 -3.71 3.8s-.38-3 .76-4.47 2.95.67 2.95.67z"/></g><path d="m6.57 5.46s9.33 8.65 19.26 9c12.31.41 22-9.43 22-9.43s-12.83 3.11-22.31 3.11a80 80 0 0 1 -18.95-2.68z" fill="#fff"/><path d="m43.52 5.96-.26 2.9 5.86-4.37z" fill="#4e1b3d"/><path d="m10.59 6.42.51 2.65-6.25-4.41z" fill="#4e1b3d"/><path d="m31.41 16.14 1.5 3.69a19.93 19.93 0 0 0 5.11-1c2-.82 6.5-5.93 8-8.16l-1.63-.49a37.78 37.78 0 0 1 -12.98 5.96z" fill="#ffccb8"/><path d="m10.67 6.87a60.27 60.27 0 0 0 15.16 2 79.2 79.2 0 0 0 17.65-2.53v-.38s-10.09 2.18-18 2.18a69.41 69.41 0 0 1 -14.89-1.72z" fill="#d177b8" opacity=".6"/></svg>