<svg viewBox="0 0 83.66 101.57" xmlns="http://www.w3.org/2000/svg" xmlns:xlink="http://www.w3.org/1999/xlink"><linearGradient id="a" gradientUnits="userSpaceOnUse" x1="41.83" x2="41.83" y1="101.57" y2="72.11"><stop offset="0" stop-color="#ffb39d"/><stop offset=".23" stop-color="#ff9b8e"/><stop offset=".48" stop-color="#ff8781"/><stop offset=".74" stop-color="#ff7b7a"/><stop offset="1" stop-color="#f77"/></linearGradient><linearGradient id="b" gradientUnits="userSpaceOnUse" x1="50.66" x2="50.66" y1="94.68" y2="75.98"><stop offset="0" stop-color="#ffeadb"/><stop offset=".99" stop-color="#d177f4"/></linearGradient><linearGradient id="c" gradientUnits="userSpaceOnUse" x1="69.7" x2="69.7" y1="60.23" y2="38.24"><stop offset="0" stop-color="#f36b7c"/><stop offset=".42" stop-color="#fb7379"/><stop offset="1" stop-color="#f77"/></linearGradient><linearGradient id="d" x1="70.13" x2="70.13" xlink:href="#b" y1="53.54" y2="42.13"/><linearGradient id="e" x1="67.86" x2="67.86" xlink:href="#b" y1="53.25" y2="44.41"/><linearGradient id="f" gradientTransform="matrix(-1 0 0 1 -142.33 0)" x1="-155.94" x2="-155.94" xlink:href="#c" y1="60.23" y2="38.24"/><linearGradient id="g" gradientTransform="matrix(-1 0 0 1 -142.33 0)" x1="-155.5" x2="-155.5" xlink:href="#b" y1="53.54" y2="42.13"/><linearGradient id="h" gradientTransform="matrix(-1 0 0 1 -142.33 0)" x1="-157.77" x2="-157.77" xlink:href="#b" y1="53.25" y2="44.41"/><linearGradient id="i" gradientUnits="userSpaceOnUse" x1="41.54" x2="41.54" y1="81.76" y2="11.58"><stop offset="0" stop-color="#d58f9d"/><stop offset=".28" stop-color="#eb9897"/><stop offset=".51" stop-color="#f99e94"/><stop offset=".57" stop-color="#fa9c8f"/><stop offset=".78" stop-color="#fe9883"/><stop offset="1" stop-color="#ff967f"/></linearGradient><linearGradient id="j" gradientUnits="userSpaceOnUse" x1="42.41" x2="42.41" y1="39.74"><stop offset="0"/><stop offset="1" stop-color="#090000"/></linearGradient><linearGradient id="k" x1="53.76" x2="53.85" xlink:href="#b" y1="3.12" y2="3.12"/><path d="m23.37 72.11s-.61 16.82-1 18.48-22.37 10.98-22.37 10.98h83.66s-23.8-8.41-24.44-10.34-.66-18-.66-18z" fill="url(#a)"/><path d="m23.1 78.81s4.12 1.16 5.12 3 7.41 15.18 12.47 15.39 8.31-6.96 10.9-8.6 7.22-1.76 7.22-1.76l-.25-13.57-35.19-1.16z" fill="#d177b8" opacity=".6"/><path d="m47.3 81.33-1.3 13.35a57.66 57.66 0 0 0 4.75-6.08c1.59-2.6 4.59-12.6 4.59-12.6z" fill="url(#b)" opacity=".6"/><path d="m25.64 94.17s5.6 5.12 15.31 5.12a26.89 26.89 0 0 0 15.6-4.61 28.86 28.86 0 0 1 -16.55 5.32c-9.86 0-14.36-5.83-14.36-5.83z" fill="#d177b8" opacity=".6"/><path d="m65.07 43.56s3.5-5.33 5.87-5.32c1.45 0 4.93 3 4.9 5.94-.06 3.87-3.49 8.28-4.35 10.54s-3.07 5.2-4.54 5.49-3.39-2.5-3.39-2.5.72-10.64 1.51-14.15z" fill="url(#c)"/><path d="m65.32 49.23s5.75-7.1 7.84-7.1 2.09 4 1.25 6.35c-.58 1.59-1.72 3.9-1.72 3.9a19.12 19.12 0 0 0 1-4.33c.16-2.85-.47-4.92-1.19-4.92-1.32 0-2.37 1.82-2.53 2.46s1 3.46.72 5.42-1.49 2.7-1.88 2.49.21-2.42-.15-3.21-1.39-1.92-2-1.67-1.34.61-1.34.61z" fill="url(#d)" opacity=".6"/><path d="m65.32 49.23s1.42-.84 1.85-.57 1.53 1.25 1.57 1.87-.34 2.38 0 2.69 1.6-1.68 1.66-3.44a13.55 13.55 0 0 0 -.93-4c0-.24.23-1.36.23-1.36a38.84 38.84 0 0 0 -4.38 4.81z" fill="url(#e)" opacity=".6"/><path d="m18.24 43.56s-3.5-5.33-5.87-5.32c-1.45 0-4.94 3-4.9 5.94.06 3.87 3.49 8.28 4.34 10.54s3.08 5.2 4.55 5.49 3.39-2.5 3.39-2.5-.75-10.64-1.51-14.15z" fill="url(#f)"/><path d="m18 49.23s-5.74-7.1-7.83-7.1-2.09 4-1.25 6.35c.58 1.59 1.72 3.9 1.72 3.9a19.12 19.12 0 0 1 -1-4.33c-.16-2.85.47-4.92 1.19-4.92 1.32 0 2.36 1.82 2.53 2.46s-1.08 3.46-.76 5.41 1.5 2.7 1.89 2.49-.21-2.42.15-3.21 1.39-1.92 2-1.67 1.36.62 1.36.62z" fill="url(#g)" opacity=".6"/><path d="m18 49.23s-1.41-.84-1.84-.57-1.53 1.25-1.57 1.87.34 2.38 0 2.69-1.6-1.68-1.66-3.44a13.55 13.55 0 0 1 .93-4c0-.24-.23-1.36-.23-1.36a38.2 38.2 0 0 1 4.37 4.81z" fill="url(#h)" opacity=".6"/><path d="m66 45.84c-.39 4.18-1.19 8.08-1.38 12.45s-.55 7.92-1.24 9.55a8.47 8.47 0 0 1 -1.53 2.25c-1.94 2.18-5 4.48-7.12 6.63a18.39 18.39 0 0 1 -2.39 2.08 17.92 17.92 0 0 1 -3.59 2.12c-2 .82-7.16.82-7.16.82s-5.17 0-7.16-.82a19.58 19.58 0 0 1 -6-4.21c-2.47-2.54-6.32-5.28-8-7.8a6.71 6.71 0 0 1 -.61-1.09c-.68-1.63-1-5.18-1.23-9.55s-1-8.27-1.38-12.45-2-19.52-.78-22.85 17-11.41 25.2-11.41c10.17 0 24.63 10.42 25 11.41 1.23 3.35-.21 18.69-.63 22.87z" fill="url(#i)"/><path d="m61.89 70.1c-1.94 2.18-5 4.48-7.12 6.63a18.39 18.39 0 0 1 -2.39 2.08 17.92 17.92 0 0 1 -3.59 2.12c-2 .82-7.16.82-7.16.82s-5.17 0-7.16-.82a19.58 19.58 0 0 1 -6-4.21c-2.47-2.54-6.32-5.28-8-7.8 0 0 2.8 2.6 5.76 5.06s7.88 7.15 15.44 7.15 13.16-5.6 14.33-6.45 5.73-4.46 5.89-4.58z" fill="#d177b8" opacity=".6"/><path d="m68.79 20.1 2.21 1.33c-1.39-5.37-8.72-7.81-9.94-8.18l-.18-.05a21.32 21.32 0 0 0 -6.88-9.91l-.16-.13a.23.23 0 0 1 -.07-.07 10.5 10.5 0 0 0 -2.59-1.46 9.22 9.22 0 0 0 -4.5-.58 11.86 11.86 0 0 0 -7.5-.76 30 30 0 0 0 -8.82 3.57l-.9.54c-1.18.73-2.14 1.37-2.91 1.8a3.73 3.73 0 0 1 -1.21.5c-1.85.28-3.27-4-3.27-4-1.67 2.67.38 6.62.38 6.62a10.83 10.83 0 0 0 -6.56 4.12c-2.28 3.39-1.94 9.8-1.94 9.8.73-2.17 2.55-6.26 2.66-6.51l-.16.61v.16c-1.36 6.35.2 22.2.2 22.2.59-7.28 5.19-14.31 5.19-14.31 1.94 2.95 8.4 3.85 8.81 3.9a6.92 6.92 0 0 1 -2.42-1.29c-2.6-2.36-3.79-6.64-2-9.06 2.22-3.06 7.51-2.84 15.41-2.56s12.85-1.17 14.18-.55 8.41 6.9 9.4 8.9 1.51 14 1.51 14l1.64-10.63a7 7 0 0 1 1.37 4.53 16.7 16.7 0 0 0 .51-6.82 24.4 24.4 0 0 0 -1.46-5.71zm-21.3-18.66a4.54 4.54 0 0 1 4.17 3.29 13.94 13.94 0 0 0 -4.17-3.29z" fill="url(#j)"/><path d="m53.85 3.16-.09-.07a.23.23 0 0 0 .09.07z" fill="url(#k)"/><path d="m68.37 28.5-1.69 10.5s-.5-12-1.51-14-8.06-8.29-9.4-8.91-6.28.84-14.18.56-13.19-.5-15.41 2.56c-1.76 2.42-.57 6.7 2 9.06-6.71-4.95-3.72-13.27-3.72-13.27a9.56 9.56 0 0 0 -7.59 1.9c7.76-6.9 18.13-1.23 18.13-1.23h1.16s-2-5-5.54-6.26-8.21.31-8.21.31 5-3.37 8.74-2.48 7 8.29 7 8.29a7.28 7.28 0 0 0 2.54.09s-2.5-7.59-6.26-9a13 13 0 0 0 -7.72-.06 19.1 19.1 0 0 1 7.94-.88c4.46.49 7.35 10.32 7.35 10.32h2.4s.09-7.85-3.7-10.85-10.7-.53-11.24-.34l.9-.54c.26-.09 7.13-2.51 11.44.6s4.24 10.4 4.24 10.4a62.68 62.68 0 0 0 6.5-.57c1-3.72-.71-9-.88-9.52 1.62 3.47 1.55 9.26 2.08 9.48s4.26-.57 4.26-.57c.28-6.36-3-9.59-4-10.4a21.34 21.34 0 0 1 6.83 9.9l.18.06a3.11 3.11 0 0 0 1.73 3.48 49.67 49.67 0 0 1 6 3.36 42 42 0 0 0 -8.66-2.64l3.54 3.92a16.57 16.57 0 0 1 4.75 6.73z" fill="#e5bedc" opacity=".2"/><path d="m21.75 25.43s-4.6 7-5.19 14.31c0 0-1.56-15.85-.2-22.2v-.16l.16-.61a10.86 10.86 0 0 0 3.73 7.89c-1.78-4.67 1.31-7 1.46-7.06-1.79 3.12.04 7.83.04 7.83z" fill="#d177b8" opacity=".6"/><g fill="#ffd9bb"><path d="m39.8 3.59a27.77 27.77 0 0 0 5.2 1.14 15.68 15.68 0 0 0 5.77-.57l.53.61a27.88 27.88 0 0 1 .77 3.23 4.1 4.1 0 0 0 -2.37-1.31c-1.56-.28-5.26 1-5.26 1a9.94 9.94 0 0 0 -4.64-4.1z" opacity=".2"/><path d="m36.08 5.79a9 9 0 0 1 2.57 2.55l3.53-.93a6.4 6.4 0 0 0 -3-3.11z" opacity=".2"/><path d="m32.72 7.76a11.86 11.86 0 0 1 2.64 2.12l1.52-.3s-.76-1.88-2.08-2.35a1.82 1.82 0 0 0 -2.08.53z" opacity=".2"/><path d="m62.92 16s2 1.14 4 2.33a4 4 0 0 0 0-1.66c-.2-.66-3.17-1.78-3.17-1.78z"/><path d="m16.47 15.69a18.56 18.56 0 0 1 8.41-2.21s-2.57-1-2.44-1.45a16.28 16.28 0 0 1 1.21-2.15s-6.31.65-7.18 5.81z" opacity=".2"/></g></svg>