<svg viewBox="0 0 84.1 19.2" xmlns="http://www.w3.org/2000/svg" xmlns:xlink="http://www.w3.org/1999/xlink"><linearGradient id="a" gradientUnits="userSpaceOnUse" x1="70.63" x2="70.63" y1="18.76" y2="2.47"><stop offset="0" stop-color="#eee2ff"/><stop offset="1" stop-color="#bdc9fb"/></linearGradient><linearGradient id="b" gradientTransform="matrix(.1605703 .98702441 -.98702441 .1605703 68.4 -61.37)" gradientUnits="userSpaceOnUse" x1="70.28" x2="70.28" y1="16.62" y2="2.43"><stop offset="0" stop-color="#72791a"/><stop offset="1" stop-color="#594a0b"/></linearGradient><linearGradient id="c" gradientTransform="matrix(.1605703 .98702441 -.98702441 .1605703 68.4 -61.37)" gradientUnits="userSpaceOnUse" x1="70.28" x2="70.28" y1="16.21" y2="2.85"><stop offset="0" stop-color="#a68d18"/><stop offset="1" stop-color="#402f40"/></linearGradient><linearGradient id="d" gradientUnits="userSpaceOnUse" x1="70.28" x2="70.28" y1="13.86" y2="5.19"><stop offset="0" stop-color="#caa7db"/><stop offset=".99" stop-color="#8460b8"/></linearGradient><linearGradient id="e" gradientTransform="matrix(-1 0 0 1 -1274.78 0)" x1="-1288.25" x2="-1288.25" xlink:href="#a" y1="18.76" y2="2.47"/><linearGradient id="f" gradientTransform="matrix(-.99 -.15 -.15 .99 -1257.74 -199.55)" x1="-1288.6" x2="-1288.6" xlink:href="#b" y1="16.62" y2="2.43"/><linearGradient id="g" gradientTransform="matrix(-.99 -.16 -.16 .99 -1256.53 -206.79)" x1="-1288.6" x2="-1288.6" xlink:href="#c" y1="16.21" y2="2.85"/><linearGradient id="h" gradientTransform="matrix(-1 0 0 1 -1274.78 0)" x1="-1288.6" x2="-1288.6" xlink:href="#d" y1="13.86" y2="5.19"/><path d="m57.16 16.32c-.15 1.8 10.1 2.88 16.42 2.27s10.27-8 10.51-9.84-2-6.64-10.74-6.26-15.85 9.74-16.19 13.83z" fill="url(#a)"/><circle cx="70.28" cy="9.53" fill="url(#b)" r="7.09" transform="matrix(.1605703 -.98702441 .98702441 .1605703 49.59 77.37)"/><circle cx="70.28" cy="9.53" fill="url(#c)" r="6.68" transform="matrix(.1605703 -.98702441 .98702441 .1605703 49.59 77.37)"/><path d="m74.62 9.53a4.34 4.34 0 1 1 -4.34-4.34 4.33 4.33 0 0 1 4.34 4.34z" fill="url(#d)"/><g fill="#dd4c6a"><path d="m57.54 14.73s4.46-12.26 13.09-14.43c7.11-1.78 11.86 4.87 11.86 4.87s-7.06-3.29-14.16-1.29-10.79 10.85-10.79 10.85z"/><path d="m57.88 14.06 1.69 3.69s-2.63-.59-2.86-.75 1.17-2.94 1.17-2.94z"/><path d="m63 18.37s8.65 2 13.73-.16c5.48-2.3 7.12-8.65 7.12-8.65s-2.12 6.35-7.85 8.19c-5.06 1.61-13 .62-13 .62z"/></g><path d="m75.86 9.26c-.55.38 1.74.76 3.54.29 1.6-.42 2.47-1.32 2.34-1.55a9.07 9.07 0 0 0 -5.88 1.26z" fill="#fff"/><path d="m74.5 9.54c-.62-.3-1.42-.06-1.49.29s.68.87 1.07.77.77-.9.42-1.06z" fill="#fff"/><path d="m57.88 14.06s11-11.23 25.69-7.45l-.35-.61s-4.29-3.87-12.94-2.54-12.4 10.6-12.4 10.6z" fill="#d177b8" opacity=".6"/><path d="m57.54 14.73s4.38-9.43 12.46-10.82 13.22 2.09 13.22 2.09l.65-1.3s-8.07-4.55-15.08-2.23c-8.39 2.78-11.25 12.26-11.25 12.26z" fill="#5b164a"/><path d="m26.94 16.32c.15 1.8-10.1 2.88-16.42 2.27s-10.27-7.99-10.52-9.84 2-6.64 10.75-6.26 15.86 9.74 16.19 13.83z" fill="url(#e)"/><circle cx="13.82" cy="9.53" fill="url(#f)" r="7.09" transform="matrix(.99 -.15 .15 .99 -1.31 2.26)"/><circle cx="13.82" cy="9.53" fill="url(#g)" r="6.68" transform="matrix(.98702441 -.1605703 .1605703 .98702441 -1.35 2.34)"/><path d="m9.49 9.53a4.33 4.33 0 1 0 4.33-4.34 4.33 4.33 0 0 0 -4.33 4.34z" fill="url(#h)"/><path d="m26.57 14.73s-4.47-12.26-13.1-14.43c-7.11-1.78-11.86 4.87-11.86 4.87s7.06-3.29 14.16-1.29 10.8 10.85 10.8 10.85z" fill="#dd4c6a"/><path d="m26.22 14.06-1.69 3.69s2.63-.59 2.86-.75-1.17-2.94-1.17-2.94z" fill="#dd4c6a"/><path d="m21.08 18.37s-8.65 2-13.73-.16c-5.48-2.3-7.12-8.65-7.12-8.65s2.14 6.35 7.9 8.19c5.03 1.61 12.95.62 12.95.62z" fill="#dd4c6a"/><path d="m8.24 9.26c.55.38-1.74.76-3.54.29-1.6-.42-2.46-1.32-2.34-1.55a9.06 9.06 0 0 1 5.88 1.26z" fill="#fff"/><path d="m9.6 9.54c.62-.3 1.43-.06 1.5.29s-.69.87-1.08.77-.77-.9-.42-1.06z" fill="#fff"/><path d="m26.22 14.06s-10.97-11.23-25.69-7.45l.35-.61s4.29-3.87 12.94-2.54 12.4 10.6 12.4 10.6z" fill="#d177b8" opacity=".6"/><path d="m26.57 14.73s-4.38-9.43-12.48-10.82-13.21 2.09-13.21 2.09l-.65-1.26s8.08-4.59 15.08-2.27c8.39 2.78 11.26 12.26 11.26 12.26z" fill="#5b164a"/></svg>