<svg viewBox="0 0 118.76 91.05" xmlns="http://www.w3.org/2000/svg" xmlns:xlink="http://www.w3.org/1999/xlink"><linearGradient id="a" gradientUnits="userSpaceOnUse" x1="59.41" x2="59.41" y1="91.05"><stop offset="0" stop-color="#ab4d4b"/><stop offset="1" stop-color="#9a3651"/></linearGradient><linearGradient id="b" gradientUnits="userSpaceOnUse" x1="77.54" x2="77.54" y1="33.89" y2="8.97"><stop offset="0" stop-color="#a84051"/><stop offset="1" stop-color="#bf5e4b"/></linearGradient><linearGradient id="c" x1="62.28" x2="62.28" xlink:href="#b" y1="33.89" y2=".09"/><linearGradient id="d" x1="50.6" x2="50.6" xlink:href="#b" y1="34.32" y2=".09"/><linearGradient id="e" x1="4.7" x2="4.7" xlink:href="#b" y1="52.98" y2="33.09"/><linearGradient id="f" x1="19.48" x2="19.48" xlink:href="#b" y1="41.88" y2="16.8"/><linearGradient id="g" x1="89.48" x2="89.48" xlink:href="#b" y1="33.09" y2="19.42"/><linearGradient id="h" x1="100.18" x2="115.66" xlink:href="#b" y1="39.64" y2="39.64"/><linearGradient id="i" x1="10.83" x2="10.83" xlink:href="#b" y1="43" y2="24.06"/><path d="m48.7 8.28a33.88 33.88 0 0 1 17.16-3.71c10.14.43 21.64 5.88 21.64 5.88l-27.82 15-12.55-4.59z" fill="#811e52"/><path d="m118.76 53-2.76-2-4.77 38s1.13-12.87-.62-20-1.34-21.36-1.34-21.36-10.69-13-20.66-16c0 0-13 1.54-32.64 2.27s-30.85.41-30.85.41-13.12 7.26-17.2 14.49c0 0 .1 10.93-.21 16.7s-3.16 25.54-3.16 25.54 0-.08 0-.22c-.18-2.47-1.8-25.83-3.55-35.53-.06-.35-.12-.69-.17-1-.17-1.3-.32-2.51-.43-3.75 0 0 0-.06 0-.1a95.88 95.88 0 0 1 -.23-12.1c0-.23 0-.45 0-.67s0-.41 0-.61 0-.36 0-.52a4.41 4.41 0 0 1 0-.52c0-.38 0-.74.07-1.06s0-.34 0-.49a.22.22 0 0 1 0-.08c0-.15 0-.29 0-.42q0-.43.06-.66a.34.34 0 0 0 0-.09c0-.09 0-.14 0-.14l.36.11 2.41 4.68v-.05l.16-.17c.69-.82 2.93-3.39 6.15-6.76l.52-.55.15-.16c.28-.3.64-.66 1-1.05l.31-.31c3.44-3.23 7.21-6.83 11.28-10.25 0 0 .05 0 .08-.06s.27-.24.42-.35c1.46-1.22 3-2.41 4.49-3.55a112.44 112.44 0 0 1 27.56-14.53h6.66s-7.73 12.76-9.43 20.75c.23-.51 7.73-17.1 13.86-20.75a25 25 0 0 1 12.58 2.31s-11.19 9.43-13.94 16.86c.45-.38 18.87-15.8 32.31-7.74a28 28 0 0 0 -7.82-.37s3.89 1.62 10 8.43c.89 1 1.9 2.22 3 3.6 6.17 8.01 14.64 21.52 16.35 29.82z" fill="url(#a)"/><path d="m57.82 33.89s17-34.42 39.44-22.36c0 0-21.28-1.65-36.31 22.22z" fill="url(#b)"/><path d="m66.28.09s-13.72 14.39-15.73 33.8h7.27s1.6-18.89 16.18-33.17a45.51 45.51 0 0 0 -7.72-.63z" fill="url(#c)"/><path d="m55.19.09s-10.93 14.91-11.8 34.23a78.67 78.67 0 0 1 14.43-34.23z" fill="url(#d)"/><path d="m2 37.44a113.11 113.11 0 0 0 6.85 9.89l-1 1.47v4.18a17.92 17.92 0 0 1 -7.34-7.46v-12.43z" fill="url(#e)"/><path d="m20.87 20s-5.33 6.34-6.69 21.91l2.61-2.07s-.44-13.26 8-23z" fill="url(#f)"/><path d="m72.5 33.09s10.56-13.36 28.5-13.67l-.92.95 6.39 1.52a40.7 40.7 0 0 0 -17.85 9.8z" fill="url(#g)"/><path d="m73.75 31.69h14.86s-13.05 1.54-32.61 2.31-30.85.41-30.85.41-13.15 7.17-17.23 14.4c0 0 .1 10.93-.21 16.7s-3.16 25.54-3.16 25.54 0-.08 0-.22c-.26-2.5-2.55-26.13-3.69-36.56-.18-1.59-.34-2.87-.46-3.72 0 0 0-.06 0-.1a74 74 0 0 1 -.2-12.77c0-.21 0-.41 0-.61s0-.36 0-.52a4.41 4.41 0 0 1 0-.52c0-.38 0-.74.07-1.06s0-.34 0-.49a.22.22 0 0 1 0-.08c0-.15 0-.29 0-.42q0-.43.06-.66a.34.34 0 0 0 0-.09c0-.09 0-.14 0-.14l.36.11 2.41 4.68v-.05c.64-.7 4.08-4.55 6.83-7.48l.15-.16c.28-.3.64-.66 1-1.05 3.21-3.2 9.45-8.86 11.25-10.49 0 0 .05 0 .08-.06l.42-.39c-.75 8 1.65 13 1.65 13 14.41 1.17 49.27.49 49.27.49z" fill="#d177b8" opacity=".6"/><path d="m118.76 53-2.76-2-4.77 38s1.13-12.87-.62-20-1.34-21.36-1.34-21.36-10.69-13-20.66-16l.87-.82 12.86-7.7c6.24 8.07 14.71 21.58 16.42 29.88z" fill="#d177b8" opacity=".6"/><path d="m100.18 38.6a23.1 23.1 0 0 1 8.37-1.14 9 9 0 0 1 7.11 4.38 39.68 39.68 0 0 0 -13.49-1.5z" fill="url(#h)"/><path d="m12.9 43s-9-8.68-4-18.94c0 0 1.47 6.06 5.39 16.83z" fill="url(#i)"/></svg>