<svg viewBox="0 0 120.67 95" xmlns="http://www.w3.org/2000/svg" xmlns:xlink="http://www.w3.org/1999/xlink"><linearGradient id="a" gradientUnits="userSpaceOnUse" x1="60.34" x2="60.34" y1="95"><stop offset="0" stop-color="#4d0e2e"/><stop offset="1" stop-color="#70253b"/></linearGradient><linearGradient id="b" x1="22.06" x2="22.06" xlink:href="#a" y1="68.55" y2="27.64"/><path d="m119.82 59.89a251.91 251.91 0 0 1 -5.59 25.76s-6.88-16.56-7.19-22.6-1.55-19.93-3.91-22.63c-1.44-1.63-14.82-9.86-19.17-9.06-2.96.53-27.81 16.54-27.81 16.54a46.86 46.86 0 0 1 5.36-11.9l.06-.11.3-.46a.71.71 0 0 0 -.15.15c-8.44 9.27-17.16 25.42-17.16 25.42a23.25 23.25 0 0 1 -2.45-6.09c1.2 8.9 4.34 13.68 4.34 13.68-12.17-10.66-13.23-32-13.23-32-4.6 7.86-9.18 20-9.18 20-1.28-6.17 3.9-17.51 4.18-18.8v-1.56s0 4.62 0 4.64c-.5.32-7 4.36-8.47 7s.11 12.79-6.44 21.72c-5.91 8.07-5.65 25.41-5.65 25.41s-7.66-33.88-7.66-50.43a13 13 0 0 1 4-10c11.9-12.43 27-13.84 40.21-21.7 1-.6 2-1.16 3-1.67.77-.41 1.54-.79 2.27-1.14a0 0 0 0 0 0 0c1.61-.77 3.12-1.4 4.51-1.91 1.21-.45 2.33-.81 3.35-1.1a23.79 23.79 0 0 1 8.1-1.16c-7.16-2.14-22.18 4.11-22.18 4.11s15.48-11.12 20.68-9.91 10.33 12.67 19.62 17.77c4.26 2.34 14 1.54 19.74 4.21s11.25 10.43 11.25 10.43c-6-6-18.07-8.72-18.82-8.87l.25.14c.81.45 3.19 1.8 6.17 3.76h.06.05c7.16 4.71 17.7 12.85 18.33 20.29a57.92 57.92 0 0 1 -.77 12.07z" fill="url(#a)"/><g fill="#d177b8"><path d="m42.11 54.87c1.2 8.9 4.34 13.68 4.34 13.68-12.17-10.66-13.23-32-13.23-32 1.81-16.13 9.9-22.93 14-25.38a16.22 16.22 0 0 1 2.27-1.14c-.69.39-10.31 6.06-11.47 15.89-1.18 10.19 2.76 28.14 2.76 28.14-3-25.94 13.25-46 13.25-46l3.35-1.06s-10.69 14-12.5 26.39a84.41 84.41 0 0 0 0 23.35c6.06-10.49 23-30.27 25.08-32.69-.73.91-3.34 4.23-6.33 8.45a29.15 29.15 0 0 0 -1.91 3.12c-8.44 9.23-17.16 25.38-17.16 25.38a23.25 23.25 0 0 1 -2.45-6.13z" opacity=".9"/><path d="m90.45 27.64c-3-.41-34.3 20.26-34.3 20.26a46.86 46.86 0 0 1 5.36-11.9 57.72 57.72 0 0 0 -3.69 9.23c.53-.52 17.87-17.14 23.23-18.18a17.84 17.84 0 0 1 9.4.59z" opacity=".9"/><path d="m119.82 59.89a251.91 251.91 0 0 1 -5.59 25.76s-6.88-16.56-7.19-22.6-1.55-19.93-3.91-22.63c0 0 3.3-.39 8.34 4.25 9 8.27 7.19 12 7.19 12s-6.14-9.73-9.34-12.39c0 0 6.3 9.62 8.29 13.32a5.36 5.36 0 0 0 2.21 2.29z" opacity=".9"/><path d="m95.7 23.62a74.32 74.32 0 0 0 -10.7-3.15l17.22 7.14z" opacity=".9"/><path d="m28.22 40.87c-.5.32-7 4.36-8.47 7s.11 12.79-6.44 21.72c-5.91 8.07-5.65 25.41-5.65 25.41s-10.2-37.5-5.79-53.46c4.9-4.54 17.05-6.31 17.68-6.54-6 5.35-8.67 15-8.67 15 5.85-6 16.68-9 17.34-9.13z" opacity=".9"/></g><path d="m28.22 27.64s-8.79 15-11.78 24.76 7.4 16.15 7.4 16.15-1.15-19.84 4.38-27.68z" fill="url(#b)"/><path d="m103.9 36.28a30.71 30.71 0 0 0 8.21 4c3.83 1 4.33-.81 4.33-.81s3.33 3.77 4 7.36c0 0-3.56-4.24-5.88-4.46s-3 1.11-3 1.11-6.02-5.82-7.66-7.2z" fill="#ffd9bb"/><path d="m53.41 12.88s-6.73 10.35-7.84 17.12c0 0 10.69-.72 13.29 0 0 0 5-11.13 7.45-12.86 0 0-3.59-5.68-12.9-4.26z" fill="#ffd9bb"/><path d="m49.94 14.25s-5.67 8.91-7 13.39a8.29 8.29 0 0 1 -3.16-3.64c-.78-2.1 4.22-8.85 5.79-9.75s4.37 0 4.37 0z" fill="#ffd9bb"/><path d="m39.7 17.67-6.48 6.33a19.61 19.61 0 0 1 2.54-4.77c1.24-1.29 3.94-1.56 3.94-1.56z" fill="#ffd9bb"/><path d="m66.31 32.9s5.32-8.09 8.51-8.86 7 .82 7 .82-10.04 5.14-15.51 8.04z" fill="#ffd9bb"/></svg>