<svg viewBox="0 0 54.49 27.84" xmlns="http://www.w3.org/2000/svg"><path d="m9.08 16.76s5.43 11.08 17.85 11.08 19.07-11.25 19.07-11.25-7.29 5-18.82 5-18.1-4.83-18.1-4.83z" fill="#d177b8" opacity=".6"/><path d="m1.68 4.56s4.51 9.69 9.86 15c6.77 6.7 20.59 6.7 29.54 2.06 5.15-2.69 11.09-16.26 11.09-16.26l-25 10z" fill="#ef7172"/><path d="m52.17 2.72s-7.62 4.41-25 4.41c-17.38 0-25-4.41-25-4.41-1.71.3 0 2.64 0 2.64 9.39 17.77 37.06 20.88 50 0 0 0 1.72-2.36 0-2.64z" fill="#6a2254"/><path d="m5.34 4.07v2.22s7.76 6.71 21.82 6.71 21-6.37 21-6.37l.46-2.39a76.86 76.86 0 0 1 -21.46 2.89 78.28 78.28 0 0 1 -21.82-3.06z" fill="#fff"/><path d="m3.13 3.2s7.27 2.48 24.93 2.48 23.71-2.74 23.71-2.74-8.43 4.19-24.61 4.19-24.03-3.93-24.03-3.93z" fill="#dd4c6a"/><path d="m50.17.54s3.32 3.11 4.28 5.46c0 0 .54-4-2.14-5.95z" fill="#dd6b7c"/><path d="m4.33.54s-3.33 3.11-4.33 5.46c0 0-.49-4.08 2.18-6z" fill="#dd6b7c"/><path d="m37.79 20.11a5.47 5.47 0 0 0 4.05.28c1.89-.81 5-5.68 5-5.68s-7.01 4.12-9.05 5.4z" fill="#ffccb8"/></svg>