<svg viewBox="0 0 37.38 22.52" xmlns="http://www.w3.org/2000/svg" xmlns:xlink="http://www.w3.org/1999/xlink"><linearGradient id="a" gradientUnits="userSpaceOnUse" x1="18.63" x2="18.63" y1="19.03"><stop offset="0" stop-color="#d35458"/><stop offset=".08" stop-color="#d45758"/><stop offset=".54" stop-color="#d86359"/><stop offset="1" stop-color="#d96759"/></linearGradient><linearGradient id="b" gradientUnits="userSpaceOnUse" x1="27.4" x2="35.98" y1="16.64" y2="16.64"><stop offset=".02" stop-color="#562b8d"/><stop offset=".99" stop-color="#97639e"/></linearGradient><linearGradient id="c" x1=".47" x2="8.76" xlink:href="#b" y1="16.56" y2="16.56"/><linearGradient id="d" gradientUnits="userSpaceOnUse" x1="4.55" x2="4.55" y1="14.99" y2="3.68"><stop offset="0" stop-color="#d9c4b5"/><stop offset=".99" stop-color="#ab51ce"/></linearGradient><linearGradient id="e" gradientTransform="matrix(-1 0 0 1 1748.11 0)" x1="1715.72" x2="1715.72" xlink:href="#d" y1="14.99" y2="3.68"/><path d="m.47 16.05s-4.78-16.05 17.76-16.05 18.77 15.79 18.77 15.79l-1 .26s-6.15 3-17.75 3-17.78-3-17.78-3z" fill="url(#a)"/><path d="m18 17c-11.78 0-17.54-1-17.54-1 6-.13 10.87 2.95 17.76 3s11.78-3.08 17.78-2.95a144.57 144.57 0 0 1 -18 .95z" fill="#ab5192" opacity=".6"/><path d="m27.4 17.49s3-2.5 8.58-1.44z" fill="url(#b)" opacity=".5"/><path d="m.47 16.05s3.53-1.35 8.29 1.36z" fill="url(#c)" opacity=".5"/><g fill="#ab5192"><path d="m2.32 5.55a12.35 12.35 0 0 0 -1.85 10.5 46.32 46.32 0 0 1 1.85-10.5z" opacity=".6"/><path d="m34.67 5.68s3.95 4.72 2.33 10.11a51.83 51.83 0 0 0 -2.33-10.11z" opacity=".6"/><path d="m.47 16.05s9.68 6.47 17.76 6.47 18.77-6.73 18.77-6.73c-1.85-8.51-3.12 1.21-19 1.21-13 0-15.8-7.45-17.53-.95z" opacity=".8"/></g><path d="m25.88 12.74c-.08-.74 1.17-1.64 2.12-1.56s.48 1.75 0 2.07-2.12-.51-2.12-.51z" fill="#d9a692"/><path d="m2.32 5.55s2.08 3.02 3.82 9.45c0 0 2.33-6.46-2-11.31z" fill="url(#d)" opacity=".6"/><path d="m34.67 5.68s-2 2.89-3.76 9.31c0 0-2.62-6.46 1.67-11.31z" fill="url(#e)" opacity=".6"/></svg>