<svg viewBox="0 0 29.58 19.93" xmlns="http://www.w3.org/2000/svg" xmlns:xlink="http://www.w3.org/1999/xlink"><linearGradient id="a" gradientUnits="userSpaceOnUse" x1="14.88" x2="14.88" y1="16.44"><stop offset="0" stop-color="#f97a7e"/><stop offset=".08" stop-color="#fa7d7e"/><stop offset=".54" stop-color="#fe897f"/><stop offset="1" stop-color="#ff8d7f"/></linearGradient><linearGradient id="b" gradientUnits="userSpaceOnUse" x1="21.66" x2="28.3" y1="14.05" y2="14.05"><stop offset=".02" stop-color="#7c51b3"/><stop offset=".99" stop-color="#bd89c4"/></linearGradient><linearGradient id="c" x1=".84" x2="7.24" xlink:href="#b" y1="13.97" y2="13.97"/><linearGradient id="d" gradientUnits="userSpaceOnUse" x1="4.1" x2="4.1" y1="12.4" y2="3.25"><stop offset="0" stop-color="#ffeadb"/><stop offset=".99" stop-color="#d177f4"/></linearGradient><linearGradient id="e" gradientTransform="matrix(-1 0 0 1 1513.4 0)" x1="1488.2" x2="1488.2" xlink:href="#d" y1="12.4" y2="3.09"/><path d="m.84 13.46s-3.7-13.46 13.73-13.46 14.5 13.2 14.5 13.2l-.77.26s-4.76 3-13.73 3-13.73-3-13.73-3z" fill="url(#a)"/><path d="m14.4 14.42c-9.11 0-13.56-1-13.56-1 4.66-.13 8.4 2.94 13.73 3s9.06-3.11 13.73-3a87 87 0 0 1 -13.9 1z" fill="#d177b8" opacity=".6"/><path d="m21.66 14.9a6.92 6.92 0 0 1 6.64-1.44z" fill="url(#b)" opacity=".5"/><path d="m.84 13.46s2.74-1.35 6.4 1.36z" fill="url(#c)" opacity=".5"/><g fill="#d177b8"><path d="m2.59 4a8.68 8.68 0 0 0 -2.07 9.2 29.81 29.81 0 0 1 2.07-9.2z" opacity=".6"/><path d="m26.85 4.22a8.12 8.12 0 0 1 2.22 9 32.26 32.26 0 0 0 -2.22-9z" opacity=".6"/><path d="m.84 13.46s7.48 6.47 13.73 6.47 14.5-6.73 14.5-6.73c-1.42-8.51-6.52 1.22-14.67 1.22-5.54 0-12.22-7.42-13.56-.96z" opacity=".8"/></g><path d="m20.48 10.15a1.69 1.69 0 0 1 1.65-1.56c.74.08.36 1.75 0 2.07s-1.65-.51-1.65-.51z" fill="#ffccb8"/><path d="m2.59 4s1.29 2 2.63 8.4a10.52 10.52 0 0 0 -1.69-9.15z" fill="url(#d)" opacity=".6"/><path d="m26.62 4.17s-.9 1.83-2.25 8.23a10.05 10.05 0 0 1 1.33-9.31z" fill="url(#e)" opacity=".6"/></svg>