<svg viewBox="0 0 86.26 16.23" xmlns="http://www.w3.org/2000/svg" xmlns:xlink="http://www.w3.org/1999/xlink"><linearGradient id="a" gradientTransform="matrix(.99422612 .10730528 -.10730528 .99422612 -24.14 31.42)" gradientUnits="userSpaceOnUse" x1="93.45" x2="93.45" y1="-25.42" y2="-40.85"><stop offset="0" stop-color="#eee2ff"/><stop offset="1" stop-color="#bdc9fb"/></linearGradient><linearGradient id="b" gradientTransform="matrix(.99422612 .10730528 -.10730528 .99422612 -24.14 31.42)" gradientUnits="userSpaceOnUse" x1="92.5" x2="92.5" y1="-26.61" y2="-40.8"><stop offset="0" stop-color="#3780a9"/><stop offset="1" stop-color="#153364"/></linearGradient><linearGradient id="c" gradientTransform="matrix(.7451269 .66692271 -.66692271 .7451269 -19.96 -28.74)" gradientUnits="userSpaceOnUse" x1="92.5" x2="92.5" y1="-27.02" y2="-40.38"><stop offset="0" stop-color="#4997fe"/><stop offset=".96" stop-color="#021f40"/><stop offset="1" stop-color="#152c39"/></linearGradient><linearGradient id="d" gradientTransform="matrix(.99422612 .10730528 -.10730528 .99422612 -24.14 31.42)" gradientUnits="userSpaceOnUse" x1="92.5" x2="92.5" y1="-29.37" y2="-38.04"><stop offset="0" stop-color="#caa7db"/><stop offset=".99" stop-color="#8460b8"/></linearGradient><linearGradient id="e" gradientTransform="matrix(-.99 .11 .11 .99 -760.1 31.42)" x1="-772.05" x2="-772.05" xlink:href="#a" y1="67.99" y2="52.56"/><linearGradient id="f" gradientTransform="matrix(-.98 -.19 -.19 .98 -731.93 -200.54)" x1="-772.99" x2="-772.99" xlink:href="#b" y1="66.8" y2="52.61"/><linearGradient id="g" gradientTransform="matrix(-.99 .11 .11 .99 -760.1 31.42)" x1="-772.99" x2="-772.99" xlink:href="#c" y1="66.39" y2="53.03"/><linearGradient id="h" gradientTransform="matrix(-.99 .11 .11 .99 -760.1 31.42)" x1="-772.99" x2="-772.99" xlink:href="#d" y1="64.04" y2="55.37"/><path d="m58.46 13.18c-.34 1.82 8.83 3.07 15.14 2.32 8.48-1 11.71-5.85 12.14-7.66s-1-6.12-9.7-6.67-16.81 7.98-17.58 12.01z" fill="url(#a)"/><path d="m78.5 8.6a7.1 7.1 0 1 1 -6.29-7.82 7.1 7.1 0 0 1 6.29 7.82z" fill="url(#b)"/><circle cx="71.45" cy="7.84" fill="url(#c)" r="6.68" transform="matrix(.81238896 -.58311593 .58311593 .81238896 8.83 43.13)"/><path d="m75.75 8.3a4.33 4.33 0 1 1 -3.84-4.77 4.32 4.32 0 0 1 3.84 4.77z" fill="url(#d)"/><g fill="#dd4c6a"><path d="m59 11.64s3.19-12.29 13.63-11.64c8.12.52 12.21 4.78 12.21 4.78s-6.66-4-13.94-2.78-11.9 9.64-11.9 9.64z"/><path d="m59.42 11 1.28 3.85s-2.55-.87-2.76-1 1.48-2.85 1.48-2.85z"/><path d="m61.75 15s8.35 2.26 13.66.77c7.24-2 9.9-6.82 9.9-6.82a18.63 18.63 0 0 1 -10.41 6.36c-5.17 1.1-13.15-.31-13.15-.31z"/></g><path d="m77.81 8.16c-.58.32 1.65.95 3.49.67 1.64-.24 2.59-1 2.49-1.25a9.15 9.15 0 0 0 -5.98.58z" fill="#fff"/><path d="m76.43 8.3c-.59-.37-1.41-.21-1.52.12s.59.95 1 .89.85-.81.52-1.01z" fill="#fff"/><path d="m59.42 11s12.11-10 26.34-4.64l-.29-.61s-3.84-4.34-12.58-3.95-13.47 9.2-13.47 9.2z" fill="#d177b8" opacity=".6"/><path d="m59 11.64a16.8 16.8 0 0 1 13.59-9c9.09-.73 12.88 3.08 12.88 3.08l.79-1.21s-4.15-3.35-14.75-3.85c-8.83-.41-12.51 10.98-12.51 10.98z" fill="#5b164a"/><path d="m27.8 13.18c.34 1.82-8.8 3.07-15.14 2.32-8.48-1.01-11.66-5.85-12.14-7.66s1-6.12 9.7-6.67 16.78 7.98 17.58 12.01z" fill="url(#e)"/><circle cx="14.81" cy="7.84" fill="url(#f)" r="7.09" transform="matrix(.95460496 -.29787474 .29787474 .95460496 -1.66 4.77)"/><path d="m8.17 8.55a6.68 6.68 0 1 0 5.93-7.36 6.69 6.69 0 0 0 -5.93 7.36z" fill="url(#g)"/><path d="m10.5 8.3a4.34 4.34 0 1 0 3.85-4.77 4.34 4.34 0 0 0 -3.85 4.77z" fill="url(#h)"/><path d="m27.26 11.64s-3.2-12.29-13.63-11.64c-8.13.55-12.21 4.81-12.21 4.81s6.66-4.03 13.94-2.81 11.9 9.64 11.9 9.64z" fill="#dd4c6a"/><path d="m26.84 11-1.28 3.85s2.54-.87 2.76-1-1.48-2.85-1.48-2.85z" fill="#dd4c6a"/><path d="m24.51 15s-8.35 2.26-13.66.77c-7.24-2.09-9.85-6.87-9.85-6.87a18.63 18.63 0 0 0 10.41 6.41c5.12 1.1 13.1-.31 13.1-.31z" fill="#dd4c6a"/><path d="m8.45 8.16c.55.32-1.65.95-3.45.67-1.64-.24-2.59-1-2.49-1.25a9.15 9.15 0 0 1 5.94.58z" fill="#fff"/><path d="m9.83 8.3c.59-.37 1.41-.21 1.52.12s-.59.95-1 .89-.85-.81-.52-1.01z" fill="#fff"/><path d="m26.84 11s-12.11-10-26.34-4.64l.29-.61s3.84-4.34 12.58-3.95 13.47 9.2 13.47 9.2z" fill="#d177b8" opacity=".6"/><path d="m27.26 11.64a16.8 16.8 0 0 0 -13.59-9c-9.09-.7-12.88 3.11-12.88 3.11l-.79-1.21s4.15-3.38 14.75-3.88c8.83-.41 12.51 10.98 12.51 10.98z" fill="#5b164a"/></svg>