<svg viewBox="0 0 52.56 21.63" xmlns="http://www.w3.org/2000/svg"><path d="m6.07 7.9a83.57 83.57 0 0 0 7.73 9.77c4.65 4.8 15 5.41 21.85.84 3.94-2.62 10.68-12 10.68-12s-11.22 6.88-20.8 6.94-19.46-5.55-19.46-5.55z" fill="#d177b8" opacity=".6"/><path d="m3.3 3.67c9.34 2.21 15.66-2 22.51-.11v5.68a106.26 106.26 0 0 1 -14.57-1.93c-5.81-1.39-7.94-3.64-7.94-3.64z" fill="#dd4c6a"/><path d="m2.46 3.3s7 9.46 10.72 11.83c4.26 2.69 18.54 2 23.1 1s12.32-12.83 12.32-12.83-9.33 5.83-24.25 5.83a47.9 47.9 0 0 1 -21.89-5.83z" fill="#ff7d85"/><path d="m47.21 3.67c-9.34 2.2-15-2-21.86-.11v5.68a106.52 106.52 0 0 0 14.58-1.93c5.8-1.39 7.28-3.64 7.28-3.64z" fill="#dd4c6a"/><path d="m.93 2.21s9.77 6.65 25.72 6.65c15.71 0 24.64-7.75 24.64-7.75a39.55 39.55 0 0 1 -24.8 8.56 47 47 0 0 1 -25.56-7.46z" fill="#9a4054"/><path d="m48.6 1.11s3-.07 4 2c0 0-.14-2.28-1.27-2.92s-2.73.92-2.73.92z" fill="#dd6b7c"/><path d="m4 1.71s-3-.06-4 2c0-.04.13-2.31 1.27-2.96s2.73.96 2.73.96z" fill="#dd6b7c"/><path d="m34.84 13 2.55 2.68a21.2 21.2 0 0 0 6.61-6.01l-1.73-.94s-4.03 2.54-7.43 4.27z" fill="#ffccb8"/></svg>