<svg viewBox="0 0 83.66 100.19" xmlns="http://www.w3.org/2000/svg" xmlns:xlink="http://www.w3.org/1999/xlink"><linearGradient id="a" gradientUnits="userSpaceOnUse" x1="41.83" x2="41.83" y1="100.19" y2="70.73"><stop offset="0" stop-color="#ffb39d"/><stop offset=".23" stop-color="#ff9b8e"/><stop offset=".48" stop-color="#ff8781"/><stop offset=".74" stop-color="#ff7b7a"/><stop offset="1" stop-color="#f77"/></linearGradient><linearGradient id="b" gradientUnits="userSpaceOnUse" x1="50.66" x2="50.66" y1="93.31" y2="74.61"><stop offset="0" stop-color="#ffeadb"/><stop offset=".99" stop-color="#d177f4"/></linearGradient><linearGradient id="c" gradientUnits="userSpaceOnUse" x1="69.7" x2="69.7" y1="58.86" y2="36.87"><stop offset="0" stop-color="#f36b7c"/><stop offset=".42" stop-color="#fb7379"/><stop offset="1" stop-color="#f77"/></linearGradient><linearGradient id="d" x1="70.13" x2="70.13" xlink:href="#b" y1="52.16" y2="40.76"/><linearGradient id="e" x1="67.86" x2="67.86" xlink:href="#b" y1="51.87" y2="43.03"/><linearGradient id="f" gradientTransform="matrix(-1 0 0 1 61.57 0)" x1="47.96" x2="47.96" xlink:href="#c" y1="58.86" y2="36.87"/><linearGradient id="g" gradientTransform="matrix(-1 0 0 1 61.57 0)" x1="48.39" x2="48.39" xlink:href="#b" y1="52.16" y2="40.76"/><linearGradient id="h" gradientTransform="matrix(-1 0 0 1 61.57 0)" x1="46.12" x2="46.12" xlink:href="#b" y1="51.87" y2="43.03"/><linearGradient id="i" gradientUnits="userSpaceOnUse" x1="41.21" x2="41.21" y1="80.38" y2="10.21"><stop offset="0" stop-color="#d58f9d"/><stop offset=".28" stop-color="#eb9897"/><stop offset=".51" stop-color="#f99e94"/><stop offset=".57" stop-color="#fa9c8f"/><stop offset=".78" stop-color="#fe9883"/><stop offset="1" stop-color="#ff967f"/></linearGradient><linearGradient id="j" gradientUnits="userSpaceOnUse" x1="41.44" x2="41.44" y1="43.82"><stop offset="0" stop-color="#4d0e2e"/><stop offset="1" stop-color="#70253b"/></linearGradient><linearGradient id="k" x1="23.79" x2="23.79" xlink:href="#j" y1="31.62" y2="12.75"/><path d="m23.37 70.73s-.61 16.83-1 18.49-22.37 10.97-22.37 10.97h83.66s-23.8-8.4-24.44-10.33-.66-18-.66-18z" fill="url(#a)"/><path d="m23.1 77.44s4.12 1.16 5.12 2.94 7.41 15.18 12.47 15.4 8.34-6.92 10.9-8.56 7.22-1.76 7.22-1.76l-.25-13.56-35.19-1.17z" fill="#d177b8" opacity=".6"/><path d="m47.3 80-1.3 13.31a57.08 57.08 0 0 0 4.75-6.09c1.6-2.56 4.6-12.61 4.6-12.61z" fill="url(#b)" opacity=".6"/><path d="m25.64 92.79s5.6 5.12 15.31 5.12a26.93 26.93 0 0 0 15.6-4.6 28.86 28.86 0 0 1 -16.55 5.27c-9.86 0-14.36-5.79-14.36-5.79z" fill="#d177b8" opacity=".6"/><path d="m65.07 42.19s3.5-5.34 5.87-5.32c1.45 0 4.93 3 4.9 5.93-.06 3.88-3.49 8.29-4.35 10.55s-3.07 5.2-4.54 5.49-3.39-2.51-3.39-2.51.72-10.63 1.51-14.14z" fill="url(#c)"/><path d="m65.32 47.86s5.75-7.1 7.84-7.1 2.09 4 1.25 6.34c-.58 1.6-1.72 3.9-1.72 3.9a19 19 0 0 0 1-4.32c.16-2.85-.47-4.93-1.19-4.92-1.32 0-2.37 1.82-2.53 2.46s1 3.45.72 5.41-1.49 2.71-1.88 2.5.21-2.42-.15-3.21-1.39-1.92-2-1.67-1.34.61-1.34.61z" fill="url(#d)" opacity=".6"/><path d="m65.32 47.86s1.42-.85 1.85-.58 1.53 1.26 1.57 1.88-.34 2.38 0 2.68 1.6-1.68 1.66-3.43a13.46 13.46 0 0 0 -.93-4c0-.24.23-1.37.23-1.37a38.4 38.4 0 0 0 -4.38 4.82z" fill="url(#e)" opacity=".6"/><path d="m18.24 42.19s-3.5-5.34-5.87-5.32c-1.45 0-4.94 3-4.9 5.93.06 3.88 3.49 8.29 4.34 10.55s3.08 5.2 4.55 5.49 3.39-2.51 3.39-2.51-.75-10.63-1.51-14.14z" fill="url(#f)"/><path d="m18 47.86s-5.74-7.1-7.83-7.1-2.09 4-1.25 6.34c.58 1.6 1.72 3.9 1.72 3.9a19 19 0 0 1 -1-4.32c-.16-2.85.47-4.93 1.19-4.92 1.32 0 2.36 1.82 2.53 2.46s-1.05 3.45-.73 5.41 1.5 2.71 1.89 2.5-.21-2.42.15-3.21 1.39-1.92 2-1.67 1.33.61 1.33.61z" fill="url(#g)" opacity=".6"/><path d="m18 47.86s-1.41-.85-1.84-.58-1.53 1.26-1.57 1.88.34 2.38 0 2.68-1.6-1.68-1.66-3.43a13.46 13.46 0 0 1 .93-4c0-.24-.23-1.37-.23-1.37a37.77 37.77 0 0 1 4.37 4.82z" fill="url(#h)" opacity=".6"/><path d="m66 44.47c-.39 4.18-1.19 8.07-1.38 12.44s-.55 7.93-1.24 9.55a8.51 8.51 0 0 1 -1.53 2.26c-1.94 2.19-5 4.49-7.12 6.64a19.18 19.18 0 0 1 -2.39 2.08 17.73 17.73 0 0 1 -3.59 2.11c-2 .82-7.16.82-7.16.82s-5.17 0-7.16-.82a19.3 19.3 0 0 1 -6-4.2c-2.47-2.54-6.32-5.29-8-7.81a6.32 6.32 0 0 1 -.61-1.09c-.68-1.62-1-5.18-1.23-9.55s-1-8.26-1.38-12.44-2-19.53-.78-22.86 17-11.4 25.2-11.4c5.73 0 14.65 4.4 19.89 8.18 2.22 1.6 3.78 3.09 4.14 4.08 1.23 3.34.76 17.83.34 22.01z" fill="url(#i)"/><path d="m61.89 68.72c-1.94 2.19-5 4.49-7.12 6.64a19.18 19.18 0 0 1 -2.39 2.08 17.73 17.73 0 0 1 -3.59 2.11c-2 .82-7.16.82-7.16.82s-5.17 0-7.16-.82a19.3 19.3 0 0 1 -6-4.2c-2.47-2.54-6.32-5.29-8-7.81 0 0 2.8 2.6 5.76 5.07s7.88 7.15 15.44 7.15 13.16-5.6 14.33-6.46 5.73-4.46 5.89-4.58z" fill="#d177b8" opacity=".6"/><path d="m68.88 27.63a115.86 115.86 0 0 1 -2.58 11.88s-3.17-7.64-3.3-10.42-.72-9.2-1.81-10.45c-.66-.75-6.83-4.54-8.84-4.18-1.37.25-12.83 7.63-12.83 7.63a21.92 21.92 0 0 1 2.48-5.46v-.06a2.42 2.42 0 0 0 .14-.21l-.07.07c-3.89 4.26-7.92 11.69-7.92 11.69a10.7 10.7 0 0 1 -1.15-2.81 16.2 16.2 0 0 0 2 6.31c-5.62-4.91-6.11-14.75-6.11-14.75a74.84 74.84 0 0 0 -4.23 9.24c-.59-2.85 1.8-8.08 1.93-8.68v-.72s0 2.13 0 2.14c-.23.15-3.23 2-3.91 3.24s.05 5.91-3 10c-2.68 3.73-2.54 11.73-2.54 11.73s-3.53-15.63-3.53-23.26a6 6 0 0 1 1.84-4.62c5.49-5.73 12.45-6.38 18.55-10 .48-.28.93-.54 1.37-.77l1.05-.53a20.91 20.91 0 0 1 2.07-.88c.56-.21 1.08-.38 1.55-.51a11 11 0 0 1 3.73-.54c-3.32-1-10.24 1.89-10.24 1.89s7.18-5.12 9.58-4.6 4.76 5.85 9 8.2c2 1.08 6.43.71 9.1 1.94s5.24 4.86 5.24 4.86c-2.76-2.77-8.34-4-8.68-4.09l.11.06c.38.21 1.48.83 2.85 1.73 3.31 2.17 8.17 5.92 8.46 9.35a27.14 27.14 0 0 1 -.31 5.58z" fill="url(#j)"/><g fill="#d177b8"><path d="m33 25.31a16.2 16.2 0 0 0 2 6.31c-5.62-4.91-6.11-14.75-6.11-14.75.84-7.44 4.57-10.58 6.44-11.7a8 8 0 0 1 1.05-.53c-.32.19-4.76 2.8-5.29 7.33-.55 4.71 1.27 13 1.27 13-1.36-11.97 6.17-21.22 6.17-21.22l1.55-.51s-4.93 6.43-5.77 12.16a38.92 38.92 0 0 0 0 10.77c2.8-4.83 10.6-14 11.57-15.08-.33.43-1.54 2-2.92 3.9a14.52 14.52 0 0 0 -.88 1.44c-3.89 4.26-7.92 11.69-7.92 11.69a10.7 10.7 0 0 1 -1.16-2.81z" opacity=".9"/><path d="m55.33 12.75c-1.37-.19-15.82 9.34-15.82 9.34a21.92 21.92 0 0 1 2.49-5.46 26.24 26.24 0 0 0 -1.7 4.25c.25-.24 8.25-7.9 10.72-8.38a8.15 8.15 0 0 1 4.31.25z" opacity=".9"/><path d="m68.88 27.63a115.86 115.86 0 0 1 -2.58 11.88s-3.17-7.64-3.3-10.42-.72-9.2-1.81-10.45c0 0 1.53-.17 3.85 2 4.13 3.81 3.31 5.54 3.31 5.54s-2.83-4.48-4.3-5.71c0 0 2.91 4.44 3.82 6.14a2.47 2.47 0 0 0 1.01 1.02z" opacity=".9"/><path d="m57.75 10.9a34.32 34.32 0 0 0 -4.91-1.46l7.94 3.3z" opacity=".9"/><path d="m26.63 18.85c-.23.15-3.23 2-3.91 3.24s.05 5.91-3 10c-2.72 3.73-2.58 11.73-2.58 11.73s-4.7-17.3-2.67-24.66c2.26-2.11 7.87-2.91 8.16-3-2.75 2.46-4 6.93-4 6.93 2.7-2.81 7.69-4.16 8-4.24z" opacity=".9"/></g><path d="m26.63 12.75s-4.06 6.92-5.44 11.42 3.42 7.45 3.42 7.45-.53-9.15 2-12.77z" fill="url(#k)"/><path d="m61.54 16.73a14.24 14.24 0 0 0 3.78 1.87c1.77.45 2-.38 2-.38a8.79 8.79 0 0 1 1.85 3.39s-1.65-1.95-2.72-2.05a1.35 1.35 0 0 0 -1.39.51s-2.77-2.7-3.52-3.34z" fill="#ffd9bb"/><path d="m38.25 5.94s-3.11 4.77-3.62 7.9c0 0 4.93-.33 6.13 0 0 0 2.29-5.14 3.44-5.93 0 0-1.66-2.62-5.95-1.97z" fill="#ffd9bb"/><path d="m36.65 6.57a36.26 36.26 0 0 0 -3.22 6.18 3.8 3.8 0 0 1 -1.43-1.66c-.35-1 2-4.1 2.67-4.52a3.1 3.1 0 0 1 1.98 0z" fill="#ffd9bb"/><path d="m31.92 8.15-3 2.94a8.82 8.82 0 0 1 1.18-2.2 3.33 3.33 0 0 1 1.82-.74z" fill="#ffd9bb"/><path d="m44.2 15.18s2.45-3.73 3.92-4.09a6 6 0 0 1 3.22.38s-4.62 2.37-7.14 3.71z" fill="#ffd9bb"/></svg>