<svg viewBox="0 0 59.74 17.28" xmlns="http://www.w3.org/2000/svg"><path d="m14.5 10.48s5.66 6.8 14.48 6.8 16.27-6.76 16.27-6.76z" fill="#d177b8" opacity=".6"/><path d="m4.94 2.72s9.58 12 25 12 25-11.95 25-11.95-8.3.85-15.63 2a62.23 62.23 0 0 1 -20.61 0c-6.76-1.27-12.9-1.77-13.76-2.05z" fill="#ef7172"/><path d="m45.46 3.48c-12.16-1.21-15.55.72-15.55.72s-3-1.93-15.56-.72a23 23 0 0 1 -11.35-1.64s1.4 1.46 10 2.28a96.16 96.16 0 0 1 16.91 3.42 95.92 95.92 0 0 1 16.93-3.42c8.57-.82 10-2.28 10-2.28a22.77 22.77 0 0 1 -11.38 1.64z" fill="#dd4c6a"/><path d="m53.74 1a14.08 14.08 0 0 1 6 2.62s-1.19-3.26-3.36-3.57-2.64.95-2.64.95z" fill="#dd6b7c"/><path d="m6 1a14.15 14.15 0 0 0 -6 2.58s1.19-3.22 3.37-3.53 2.63.95 2.63.95z" fill="#dd6b7c"/><path d="m37.19 9.69 2.41 2.24s6.08-2.28 7.8-4.39z" fill="#ffccb8"/></svg>