<svg viewBox="0 0 33.03 30.45" xmlns="http://www.w3.org/2000/svg" xmlns:xlink="http://www.w3.org/1999/xlink"><linearGradient id="a" gradientUnits="userSpaceOnUse" x1="16.53" x2="16.53" y1="25.73"><stop offset="0" stop-color="#ad2e32"/><stop offset=".08" stop-color="#ae3132"/><stop offset=".54" stop-color="#b23d33"/><stop offset="1" stop-color="#b34133"/></linearGradient><linearGradient id="b" gradientUnits="userSpaceOnUse" x1="24.27" x2="31.84" y1="22.49" y2="22.49"><stop offset=".02" stop-color="#300567"/><stop offset=".99" stop-color="#713d78"/></linearGradient><linearGradient id="c" x1=".5" x2="7.81" xlink:href="#b" y1="22.39" y2="22.39"/><linearGradient id="d" gradientUnits="userSpaceOnUse" x1="4.09" x2="4.09" y1="20.27" y2="5.12"><stop offset="0" stop-color="#b39e8f"/><stop offset=".99" stop-color="#852ba8"/></linearGradient><linearGradient id="e" gradientTransform="matrix(-1 0 0 1 1622.35 0)" x1="1593.63" x2="1593.63" xlink:href="#d" y1="20.27" y2="5.12"/><path d="m.5 21.7s-4.22-21.7 15.67-21.7 16.56 21.34 16.56 21.34l-.89.36s-5.43 4-15.67 4-15.67-4-15.67-4z" fill="url(#a)"/><path d="m16 23c-10.42 0-15.5-1.3-15.5-1.3 5.32-.17 9.59 4 15.67 4s10.35-4.2 15.67-4a84 84 0 0 1 -15.84 1.3z" fill="#852b6c" opacity=".6"/><path d="m24.27 23.64a7.11 7.11 0 0 1 7.57-1.94z" fill="url(#b)" opacity=".5"/><path d="m.5 21.7s3.12-1.82 7.31 1.84z" fill="url(#c)" opacity=".5"/><g fill="#852b6c"><path d="m2.19 7.39s-3.45 5.52-1.69 14.31a107.48 107.48 0 0 1 1.69-14.31z" opacity=".6"/><path d="m30.71 8a22.11 22.11 0 0 1 2 13.37 98 98 0 0 0 -2-13.37z" opacity=".6"/><path d="m.5 21.7s8.5 8.75 15.67 8.75 16.56-9.11 16.56-9.11c-1.62-11.49-2.73 1.66-16.73 1.66-11.51 0-14-10.09-15.5-1.3z" opacity=".8"/></g><path d="m22.92 17.22c-.06-1 1-2.21 1.88-2.1s.42 2.36 0 2.8-1.88-.7-1.88-.7z" fill="#b3806c"/><path d="m2.19 7.39a65.74 65.74 0 0 1 3.31 12.88s1.94-8.59-1.84-15.15z" fill="url(#d)" opacity=".6"/><path d="m30.71 7.59s-1.81 4-3.35 12.68c0 0-2.18-8.59 1.6-15.15z" fill="url(#e)" opacity=".6"/></svg>