<svg viewBox="0 0 83.66 93.46" xmlns="http://www.w3.org/2000/svg" xmlns:xlink="http://www.w3.org/1999/xlink"><linearGradient id="a" gradientUnits="userSpaceOnUse" x1="41.83" x2="41.83" y1="93.46" y2="63.99"><stop offset="0" stop-color="#ffb39d"/><stop offset=".23" stop-color="#ff9b8e"/><stop offset=".48" stop-color="#ff8781"/><stop offset=".74" stop-color="#ff7b7a"/><stop offset="1" stop-color="#f77"/></linearGradient><linearGradient id="b" gradientUnits="userSpaceOnUse" x1="50.66" x2="50.66" y1="86.57" y2="67.87"><stop offset="0" stop-color="#ffeadb"/><stop offset=".99" stop-color="#d177f4"/></linearGradient><linearGradient id="c" gradientUnits="userSpaceOnUse" x1="69.7" x2="69.7" y1="52.12" y2="30.13"><stop offset="0" stop-color="#f36b7c"/><stop offset=".42" stop-color="#fb7379"/><stop offset="1" stop-color="#f77"/></linearGradient><linearGradient id="d" x1="70.13" x2="70.13" xlink:href="#b" y1="45.42" y2="34.02"/><linearGradient id="e" x1="67.86" x2="67.86" xlink:href="#b" y1="45.13" y2="36.29"/><linearGradient id="f" gradientTransform="matrix(-1 0 0 1 65.37 0)" x1="51.76" x2="51.76" xlink:href="#c" y1="52.12" y2="30.13"/><linearGradient id="g" gradientTransform="matrix(-1 0 0 1 65.37 0)" x1="52.19" x2="52.19" xlink:href="#b" y1="45.42" y2="34.02"/><linearGradient id="h" gradientTransform="matrix(-1 0 0 1 65.37 0)" x1="49.92" x2="49.92" xlink:href="#b" y1="45.13" y2="36.29"/><linearGradient id="i" gradientUnits="userSpaceOnUse" x1="41.21" x2="41.21" y1="73.64" y2="3.47"><stop offset="0" stop-color="#d58f9d"/><stop offset=".28" stop-color="#eb9897"/><stop offset=".51" stop-color="#f99e94"/><stop offset=".57" stop-color="#fa9c8f"/><stop offset=".78" stop-color="#fe9883"/><stop offset="1" stop-color="#ff967f"/></linearGradient><linearGradient id="j" gradientUnits="userSpaceOnUse" x1="40.97" x2="40.97" y1="45.33"><stop offset="0" stop-color="#a84051"/><stop offset="1" stop-color="#bf5e4b"/></linearGradient><path d="m23.37 64s-.61 16.83-1 18.49-22.37 10.97-22.37 10.97h83.66s-23.8-8.41-24.44-10.34-.66-18-.66-18z" fill="url(#a)"/><path d="m23.1 70.7s4.12 1.16 5.12 2.94 7.41 15.18 12.47 15.36 8.34-6.92 10.9-8.55 7.22-1.77 7.22-1.77l-.25-13.56-35.19-1.12z" fill="#d177b8" opacity=".6"/><path d="m47.3 73.22-1.3 13.35a57.66 57.66 0 0 0 4.75-6.08c1.6-2.57 4.6-12.62 4.6-12.62z" fill="url(#b)" opacity=".6"/><path d="m25.64 86.05s5.6 5.12 15.31 5.12a26.93 26.93 0 0 0 15.6-4.6 28.86 28.86 0 0 1 -16.55 5.27c-9.86 0-14.36-5.79-14.36-5.79z" fill="#d177b8" opacity=".6"/><path d="m65.07 35.45s3.5-5.34 5.87-5.32c1.45 0 4.93 3 4.89 5.94 0 3.87-3.48 8.28-4.34 10.54s-3.07 5.2-4.49 5.49-3.39-2.51-3.39-2.51.67-10.59 1.46-14.14z" fill="url(#c)"/><path d="m65.32 41.12s5.75-7.12 7.84-7.12 2.09 4 1.25 6.34c-.58 1.6-1.72 3.91-1.72 3.91a19.12 19.12 0 0 0 1-4.33c.16-2.85-.47-4.93-1.19-4.92-1.32 0-2.37 1.82-2.53 2.46s1 3.45.72 5.41-1.49 2.71-1.88 2.5.19-2.37-.14-3.19-1.39-1.92-2-1.67-1.35.61-1.35.61z" fill="url(#d)" opacity=".6"/><path d="m65.32 41.12s1.42-.84 1.85-.58 1.53 1.26 1.57 1.88-.34 2.38 0 2.68 1.6-1.67 1.66-3.43a13.46 13.46 0 0 0 -.93-4c0-.24.23-1.37.23-1.37a39.16 39.16 0 0 0 -4.38 4.82z" fill="url(#e)" opacity=".6"/><path d="m18.24 35.45s-3.5-5.34-5.87-5.32c-1.45 0-4.94 3-4.9 5.94.06 3.87 3.49 8.28 4.34 10.54s3.08 5.2 4.55 5.49 3.39-2.51 3.39-2.51-.75-10.59-1.51-14.14z" fill="url(#f)"/><path d="m18 41.12s-5.76-7.12-7.85-7.12-2.09 4-1.25 6.34c.58 1.6 1.72 3.91 1.72 3.91a19.12 19.12 0 0 1 -1-4.33c-.17-2.83.46-4.92 1.18-4.92 1.32 0 2.36 1.82 2.53 2.46s-1.05 3.45-.73 5.41 1.5 2.71 1.89 2.5-.21-2.42.15-3.21 1.39-1.92 2-1.67 1.36.63 1.36.63z" fill="url(#g)" opacity=".6"/><path d="m18 41.12s-1.41-.84-1.84-.58-1.53 1.26-1.57 1.88.34 2.38 0 2.68-1.6-1.67-1.66-3.43a13.46 13.46 0 0 1 .93-4c0-.24-.23-1.37-.23-1.37a38.51 38.51 0 0 1 4.37 4.82z" fill="url(#h)" opacity=".6"/><path d="m66 37.73c-.39 4.18-1.19 8.07-1.38 12.44s-.55 7.93-1.24 9.55a8.51 8.51 0 0 1 -1.49 2.28c-1.94 2.19-5 4.49-7.12 6.64a19.18 19.18 0 0 1 -2.39 2.08 17.73 17.73 0 0 1 -3.59 2.11c-2 .82-7.16.82-7.16.82s-5.17 0-7.16-.82a19.3 19.3 0 0 1 -6-4.2c-2.47-2.54-6.32-5.29-8-7.81a6 6 0 0 1 -.61-1.09c-.68-1.62-1-5.18-1.23-9.55s-1-8.26-1.38-12.44-2-19.53-.78-22.86 17-11.4 25.2-11.4c5.73 0 14.65 4.4 19.89 8.18 2.22 1.6 3.78 3.09 4.14 4.08 1.19 3.32.72 17.81.3 21.99z" fill="url(#i)"/><path d="m61.89 62c-1.94 2.19-5 4.49-7.12 6.64a19.18 19.18 0 0 1 -2.39 2.08 17.73 17.73 0 0 1 -3.59 2.11c-2 .82-7.16.82-7.16.82s-5.17 0-7.16-.82a19.3 19.3 0 0 1 -6-4.2c-2.47-2.54-6.32-5.29-8-7.81 0 0 2.8 2.6 5.76 5.07s7.83 7.11 15.39 7.11 13.21-5.58 14.38-6.44 5.73-4.46 5.89-4.56z" fill="#d177b8" opacity=".6"/><path d="m66.81 10.4-.06-.16-.13-.31a2.44 2.44 0 0 0 -.1-.24c0-.06 0-.11-.07-.17a5.72 5.72 0 0 0 -1.61-2.35c-2.12-1.31-8.29-.8-8.29-.8s6.61-3.2 11.48-2c0 0-2.92-2.12-5.87-1.8-2.49.18-5.16 2.93-8.16 3.43a5 5 0 0 1 -1.77 0 4.07 4.07 0 0 1 -1.17-.47c-2.69-1.43-7.06-5.53-9.97-5.53-3.32.06-7.74 2.47-15.45 4.83a15.19 15.19 0 0 0 -5.91 3.33c-3.8 3.49-5.89 8.94-6.75 15.52a28.22 28.22 0 0 0 1 10.49 57.35 57.35 0 0 0 3.91 10.33c.22.45.37.72.39.76s-.08-.48-.18-1.11a45.06 45.06 0 0 1 -.62-9.57 7.92 7.92 0 0 1 .77-2.58c1.33-2.57 3.9-4.94 6.19-7.72 1-1.18 2.28-2.74 3.84-4.34 4.77-.76 18.71-3.41 25.6-9.56a13.53 13.53 0 0 1 5.51 5c2.18 3.54 2.78 11.66 3.7 17s1.18 9 1.18 9a45.61 45.61 0 0 0 4.73-14.72 37.28 37.28 0 0 0 -2.19-16.26zm-25.72 2a95.55 95.55 0 0 1 -8.8 5c-.89.44-1.8.86-2.7 1.25 3.15-3.01 7.15-5.84 11.5-6.26z" fill="url(#j)"/><g fill="#d177b8"><path d="m19.34 17.25c-2.24 6.81-1.09 14.75-1.09 14.75a7.92 7.92 0 0 0 -.84 2.63 45.06 45.06 0 0 0 .59 9.59l-.21.35a57.35 57.35 0 0 1 -3.91-10.33c-.18-2.21-.3-4.65-.35-7.29-.2-12 5.41-18 6.1-18.72a18.76 18.76 0 0 0 -3.47 8.51 46.9 46.9 0 0 0 0 11.78 33.17 33.17 0 0 1 5.53-16.92 31.9 31.9 0 0 0 -2.35 5.65z" opacity=".6"/><path d="m66.45 9.52v-.06z" opacity=".6"/><path d="m66.52 9.69.1.24z" opacity=".6"/><path d="m69 26.66a45.61 45.61 0 0 1 -4.73 14.75s-.25-3.67-1.18-9-1.52-13.49-3.7-17a13.53 13.53 0 0 0 -5.51-5c-6.89 6.15-20.83 8.8-25.6 9.56-1.56 1.6-2.86 3.16-3.84 4.34-2.27 2.69-4.84 5.1-6.17 7.69.3-.81 5.39-14.06 12.79-18.28 7.63-4.36 15.53-8.61 15.53-8.61a34.83 34.83 0 0 0 -8.59.14c-3.56.75-8.69 3.75-12.36 7.14-3.22 2.94-5.49 10.22-6 12 .6-2.2 3.59-12.55 7.24-14.74 4.12-2.43 14.56-10.36 17.86-7.74a28.61 28.61 0 0 0 6.31 3.63c.65.28 1.09.44 1.17.47h1.78a2.63 2.63 0 0 1 -1.4 1.86c-1.15.43-11.51 4.52-11.51 4.52-4.35.42-8.35 3.25-11.51 6.26.9-.39 1.81-.81 2.7-1.25-.78.53-1.27.88-1.27.88s8.06-.6 12.8-2.56 9.82-6.81 9.82-6.81 4.52 1.36 6.43 4.79 5.61 18.64 5.61 18.64 1.86-14.93-2.83-20.34a17.07 17.07 0 0 0 -7.57-4.46c.7.08 6.95 1 8.66 4.35 1.82 3.58 4.07 17.53 4.07 17.53a34.55 34.55 0 0 0 -1.25-19.18 37.3 37.3 0 0 1 2.25 16.42z" opacity=".6"/><path d="m19.41 29.26a80.26 80.26 0 0 1 5.49-12.61 18.29 18.29 0 0 1 6.54-6.72 77.16 77.16 0 0 0 -12.03 19.33z" opacity=".6"/></g><path d="m59.06 11.65a27.59 27.59 0 0 1 2.29 4.35 3.77 3.77 0 0 1 1.89-2.16 14.76 14.76 0 0 0 -1.72-3.07s-1.37.55-2.46.88z" fill="#ffd9bb"/><path d="m62 9.46a6.71 6.71 0 0 1 2.44 3.08 12.33 12.33 0 0 0 1.56-2.73c.19-.88-1.18-2.52-1.18-2.52s-1.69-.75-2.82 2.17z" fill="#ffd9bb"/><path d="m31.44 13.36a25 25 0 0 0 1.71-2.62c.4-.84-1.71-2.25-1.71-2.25l2.36-1.29s1.58 1.23 1.54 2.26 1.34.82 1.34.82z" fill="#ffd9bb"/><path d="m31 7a11.66 11.66 0 0 0 -2.45-1.43c-1-.33-.5-1.52-.5-1.52l1.42-.48a3.94 3.94 0 0 0 1.17 1.73c.87.68 3 0 3 0z" fill="#ffd9bb"/><path d="m36.68 15.52a12.24 12.24 0 0 0 5.37.45 7.2 7.2 0 0 0 4.11-1.78s-4.08 0-5.21-.83z" fill="#ffd9bb"/></svg>