<svg viewBox="0 0 86.63 19.89" xmlns="http://www.w3.org/2000/svg" xmlns:xlink="http://www.w3.org/1999/xlink"><linearGradient id="a" gradientUnits="userSpaceOnUse" x1="73.65" x2="73.65" y1="19.25" y2="1.01"><stop offset="0" stop-color="#eee2ff"/><stop offset="1" stop-color="#bdc9fb"/></linearGradient><linearGradient id="b" gradientTransform="matrix(.23072909 .97301803 -.97301803 .23072909 66.41 -61.57)" gradientUnits="userSpaceOnUse" x1="72.14" x2="72.14" y1="19.06" y2="3.37"><stop offset="0" stop-color="#a93749"/><stop offset="1" stop-color="#751540"/></linearGradient><linearGradient id="c" gradientTransform="matrix(.23055926 .97305829 -.97305829 .23055926 66.42 -61.57)" gradientUnits="userSpaceOnUse" x1="72.14" x2="72.14" y1="18.6" y2="3.83"><stop offset="0" stop-color="#fe6e49"/><stop offset="1" stop-color="#751540"/></linearGradient><linearGradient id="d" gradientUnits="userSpaceOnUse" x1="72.14" x2="72.14" y1="16.01" y2="6.42"><stop offset="0" stop-color="#a79abd"/><stop offset=".99" stop-color="#724a60"/></linearGradient><linearGradient id="e" gradientTransform="matrix(-1 0 0 1 -120.26 0)" x1="-133.24" x2="-133.24" xlink:href="#a" y1="19.25" y2="1.01"/><linearGradient id="f" gradientTransform="matrix(-.38 -.92 -.92 .38 -26.42 -117.66)" x1="-134.75" x2="-134.75" xlink:href="#b" y1="19.06" y2="3.37"/><linearGradient id="g" gradientTransform="matrix(-.99 -.16 -.16 .99 -116.71 -21.5)" x1="-134.75" x2="-134.75" xlink:href="#c" y1="18.6" y2="3.83"/><linearGradient id="h" gradientTransform="matrix(-1 0 0 1 -120.26 0)" x1="-134.75" x2="-134.75" xlink:href="#d" y1="16.01" y2="6.42"/><path d="m60.68 15.66c.09 2.6 8.55 4.3 15.72 3.3 6.94-.96 10.6-5.28 10.19-10.61s-5.4-8.47-12.94-6.95c-8.25 1.66-13.21 8.11-12.97 14.26z" fill="url(#a)"/><path d="m62.6 8.74s3.76-7.56 11.54-8.59 10.52 3.62 10.52 3.62-14.1-4.95-22.06 4.97z" fill="#dd4c6a"/><path d="m60.91 12.92a6.55 6.55 0 0 0 1.69 4.71s-2.19-.43-2.38-1.7a6.15 6.15 0 0 1 .69-3.01z" fill="#dd4c6a"/><circle cx="72.14" cy="11.21" fill="url(#b)" r="7.85" transform="matrix(.23072909 -.97301803 .97301803 .23072909 44.59 78.82)"/><circle cx="72.14" cy="11.21" fill="url(#c)" r="7.39" transform="matrix(.23055926 -.97305829 .97305829 .23055926 44.59 78.82)"/><path d="m76.93 11.21a4.79 4.79 0 1 1 -4.79-4.79 4.79 4.79 0 0 1 4.79 4.79z" fill="url(#d)"/><path d="m77.66 9.6c-.47.38 1.73.47 3.37-.12 1.47-.52 2.18-1.39 2-1.54a9.25 9.25 0 0 0 -5.37 1.66z" fill="#fff"/><path d="m76.41 10c-.62-.2-1.35.1-1.38.4s.75.68 1.1.56.63-.87.28-.96z" fill="#fff"/><path d="m61.3 11.49s10.09-10.67 25.2-3.86l-.2-.92s-.78-4-11.36-4a14.2 14.2 0 0 0 -13.64 8.78z" fill="#d177b8" opacity=".6"/><path d="m61.85 10.11s3.67-5.6 12.29-6.19 12.16 2.79 12.16 2.79a6.16 6.16 0 0 0 -.3-2.37c-.32-.52-17.72-7.44-24.15 5.77z" fill="#5b164a"/><path d="m62.6 17.63a25.59 25.59 0 0 0 14.33 2 10.46 10.46 0 0 0 8.33-5.63s-7.66 5.89-22.66 3.63z" fill="#dd4c6a"/><path d="m26 15.66c-.09 2.6-8.55 4.3-15.72 3.3-6.99-.96-10.68-5.28-10.28-10.61s5.44-8.47 13-6.95c8.23 1.66 13.19 8.11 13 14.26z" fill="url(#e)"/><path d="m24 8.74s-3.74-7.56-11.51-8.59-10.49 3.62-10.49 3.62 14.07-4.95 22 4.97z" fill="#dd4c6a"/><path d="m25.72 12.92a6.6 6.6 0 0 1 -1.72 4.71s2.18-.43 2.38-1.7a6.27 6.27 0 0 0 -.66-3.01z" fill="#dd4c6a"/><circle cx="14.49" cy="11.21" fill="url(#f)" r="7.85" transform="matrix(.38058623 -.92474543 .92474543 .38058623 -1.4 20.34)"/><circle cx="14.49" cy="11.21" fill="url(#g)" r="7.39" transform="matrix(.98702441 -.1605703 .1605703 .98702441 -1.61 2.47)"/><path d="m9.69 11.21a4.8 4.8 0 1 0 4.8-4.79 4.8 4.8 0 0 0 -4.8 4.79z" fill="url(#h)"/><path d="m9 9.6c.47.38-1.73.47-3.37-.12-1.5-.48-2.21-1.39-2.07-1.54a9.25 9.25 0 0 1 5.44 1.66z" fill="#fff"/><path d="m10.22 10c.62-.2 1.35.1 1.38.4s-.75.68-1.11.56-.62-.87-.27-.96z" fill="#fff"/><path d="m25.33 11.49s-10.09-10.67-25.21-3.86l.21-.92s.77-4 11.36-4a14.2 14.2 0 0 1 13.64 8.78z" fill="#d177b8" opacity=".6"/><path d="m24.78 10.11s-3.67-5.6-12.29-6.19-12.16 2.79-12.16 2.79a6.16 6.16 0 0 1 .26-2.37c.35-.52 17.76-7.44 24.19 5.77z" fill="#5b164a"/><path d="m24 17.63a25.61 25.61 0 0 1 -14.34 2 10.45 10.45 0 0 1 -8.29-5.63s7.63 5.89 22.63 3.63z" fill="#dd4c6a"/></svg>