<svg viewBox="0 0 149.97 150" xmlns="http://www.w3.org/2000/svg" xmlns:xlink="http://www.w3.org/1999/xlink"><filter id="a" color-interpolation-filters="sRGB" filterUnits="userSpaceOnUse" height="32766" width="149.17" x="0" y="-7562.76"><feFlood flood-color="#fff" result="bg"/><feBlend in="SourceGraphic" in2="bg"/></filter><mask id="b" height="32766" maskUnits="userSpaceOnUse" width="149.17" x="0" y="-7562.76"><g filter="url(#a)"/></mask><linearGradient id="c" gradientUnits="userSpaceOnUse" x1="74.58" x2="74.58" y1="95.56" y2="-53.61"><stop offset="0" stop-color="#fff"/><stop offset=".14" stop-color="#e3e3e3"/><stop offset=".43" stop-color="#9b9b9b"/><stop offset=".85" stop-color="#292929"/><stop offset="1"/></linearGradient><filter id="d" color-interpolation-filters="sRGB" filterUnits="userSpaceOnUse" height="32766" width="149.17" x=".8" y="-7562.76"><feFlood flood-color="#fff" result="bg"/><feBlend in="SourceGraphic" in2="bg"/></filter><mask id="e" height="32766" maskUnits="userSpaceOnUse" width="149.17" x=".8" y="-7562.76"><g filter="url(#d)"/></mask><linearGradient id="f" gradientTransform="matrix(-1 0 0 -1 3227.04 -1574.47)" x1="3151.66" x2="3151.66" xlink:href="#c" y1="-1567.81" y2="-1716.98"/><filter id="g" color-interpolation-filters="sRGB" filterUnits="userSpaceOnUse" height="32766" width="123.56" x="12.87" y="-7562.76"><feFlood flood-color="#fff" result="bg"/><feBlend in="SourceGraphic" in2="bg"/></filter><mask id="h" height="32766" maskUnits="userSpaceOnUse" width="123.56" x="12.87" y="-7562.76"><g filter="url(#g)"/></mask><linearGradient id="i" x1="74.65" x2="74.65" xlink:href="#c" y1="111.27" y2="-12.29"/><filter id="j" color-interpolation-filters="sRGB" filterUnits="userSpaceOnUse" height="32766" width="123.56" x="13.53" y="-7562.76"><feFlood flood-color="#fff" result="bg"/><feBlend in="SourceGraphic" in2="bg"/></filter><mask id="k" height="32766" maskUnits="userSpaceOnUse" width="123.56" x="13.53" y="-7562.76"><g filter="url(#j)"/></mask><linearGradient id="l" gradientTransform="matrix(-1 0 0 -1 3227.04 -1574.47)" x1="3151.73" x2="3151.73" xlink:href="#c" y1="-1581.9" y2="-1705.46"/><filter id="m" color-interpolation-filters="sRGB" filterUnits="userSpaceOnUse" height="149.17" width="149.17" x="0" y=".83"><feFlood flood-color="#fff" result="bg"/><feBlend in="SourceGraphic" in2="bg"/></filter><mask id="n" height="149.17" maskUnits="userSpaceOnUse" width="149.17" x="0" y=".83"><g filter="url(#m)" mask="url(#b)"><path d="m149.17 75.41a74.59 74.59 0 1 1 -74.58-74.58 74.58 74.58 0 0 1 74.58 74.58zm-74.58-61.22a61.22 61.22 0 1 0 61.21 61.22 61.22 61.22 0 0 0 -61.21-61.22z" fill="url(#c)"/></g></mask><linearGradient id="o" gradientUnits="userSpaceOnUse" x1="74.58" x2="74.58" y1="95.56" y2="-53.61"><stop offset="0" stop-color="#231f20"/><stop offset="1" stop-color="#231f20"/></linearGradient><filter id="p" color-interpolation-filters="sRGB" filterUnits="userSpaceOnUse" height="149.17" width="149.17" x=".8" y=".56"><feFlood flood-color="#fff" result="bg"/><feBlend in="SourceGraphic" in2="bg"/></filter><mask id="q" height="149.17" maskUnits="userSpaceOnUse" width="149.17" x=".8" y=".56"><g filter="url(#p)" mask="url(#e)"><path d="m.8 75.15a74.59 74.59 0 1 1 74.58 74.58 74.59 74.59 0 0 1 -74.58-74.58zm74.58 61.22a61.22 61.22 0 1 0 -61.22-61.22 61.22 61.22 0 0 0 61.22 61.22z" fill="url(#f)"/></g></mask><linearGradient id="r" gradientTransform="matrix(-1 0 0 -1 3227.04 -1574.47)" gradientUnits="userSpaceOnUse" x1="3151.66" x2="3151.66" y1="-1567.81" y2="-1716.98"><stop offset="0" stop-color="#80ccbf"/><stop offset=".19" stop-color="#71b0a5"/><stop offset=".6" stop-color="#4b6964"/><stop offset="1" stop-color="#231f20"/></linearGradient><filter id="s" color-interpolation-filters="sRGB" filterUnits="userSpaceOnUse" height="123.56" width="123.56" x="12.87" y="13.63"><feFlood flood-color="#fff" result="bg"/><feBlend in="SourceGraphic" in2="bg"/></filter><mask id="t" height="123.56" maskUnits="userSpaceOnUse" width="123.56" x="12.87" y="13.63"><g filter="url(#s)" mask="url(#h)"><path d="m136.44 75.4a61.79 61.79 0 1 1 -61.79-61.77 61.78 61.78 0 0 1 61.79 61.77zm-61.79-50.7a50.71 50.71 0 1 0 50.71 50.7 50.7 50.7 0 0 0 -50.71-50.7z" fill="url(#i)"/></g></mask><linearGradient id="u" x1="74.65" x2="74.65" xlink:href="#o" y1="111.27" y2="-12.29"/><filter id="v" color-interpolation-filters="sRGB" filterUnits="userSpaceOnUse" height="123.56" width="123.56" x="13.53" y="13.41"><feFlood flood-color="#fff" result="bg"/><feBlend in="SourceGraphic" in2="bg"/></filter><mask id="w" height="123.56" maskUnits="userSpaceOnUse" width="123.56" x="13.53" y="13.41"><g filter="url(#v)" mask="url(#k)"><path d="m13.53 75.19a61.79 61.79 0 1 1 61.79 61.81 61.78 61.78 0 0 1 -61.79-61.81zm61.79 50.71a50.71 50.71 0 1 0 -50.72-50.71 50.71 50.71 0 0 0 50.72 50.71z" fill="url(#l)"/></g></mask><linearGradient id="x" x1="3151.73" x2="3151.73" xlink:href="#r" y1="-1581.9" y2="-1705.46"/><path d="m148.91 75.41a74.06 74.06 0 1 1 -74.06-74 74.06 74.06 0 0 1 74.06 74zm-74.06-62.91a62.91 62.91 0 1 0 62.91 62.91 62.92 62.92 0 0 0 -62.91-62.91z" fill="#4b657f"/><path d="m141.74 75.41a66.89 66.89 0 1 1 -66.89-66.88 66.89 66.89 0 0 1 66.89 66.88zm-66.89-60.8a60.8 60.8 0 1 0 60.8 60.8 60.81 60.81 0 0 0 -60.8-60.8z" fill="#273644"/><path d="m142.54 75a67.29 67.29 0 1 1 -67.29-67.27 67.29 67.29 0 0 1 67.29 67.27zm-67.29-65.82a65.84 65.84 0 1 0 65.83 65.82 65.83 65.83 0 0 0 -65.83-65.82z" fill="#87a2b9"/><path d="m.78 74.78h13.29v.86h-13.29z" fill="#0d2530"/><path d="m135.63 74.81h13.29v.86h-13.29z" fill="#0d2530"/><path d="m75.27 136.3v13.22l-.86-.02v-13.2z" fill="#0d2530"/><path d="m74.43.86h.86v13.59h-.86z" fill="#0d2530"/><g fill="#87a2b9"><path d="m.81 73.99h8.45v.79h-8.49z"/><path d="m.79 76.44h8.51v-.79h-8.5z"/><path d="m148.87 76.5h-7.72v-.8h7.76z"/><path d="m141.12 74.04h7.77v.8h-7.77z"/><path d="m73.58 149.45v-8.37h.8v8.42z"/><path d="m76.1 149.5-.06-8.45-.79-.03v8.49z"/><path d="m76.09 1.48v7.72h-.79v-7.77z"/><path d="m73.64 1.46h.8v7.77h-.8z"/><path d="m135.43 46.66 5.87-.08-3.82 4.04z"/><path d="m14.1 103.32 1.69 1.61-5.43 2.13z"/><path d="m109 132.02 7.66-5.11-2.08 5.69z"/><path d="m115.61 133.56.95-3.38.96 1.98z"/></g><path d="m1.45 63.87a72.73 72.73 0 0 1 3.41-12.69 92.06 92.06 0 0 1 5.34-12.07 76.88 76.88 0 0 1 16.22-20.91 68.36 68.36 0 0 1 22.84-13.63 82.34 82.34 0 0 1 26.23-4.57 76 76 0 0 1 26.35 4 63.59 63.59 0 0 1 22.73 13.88 75.63 75.63 0 0 1 15.6 21.38 96.33 96.33 0 0 1 5 12.23 75.34 75.34 0 0 1 3.1 12.78 94.64 94.64 0 0 0 -9.54-24.27 77.66 77.66 0 0 0 -15.9-20.25 62.8 62.8 0 0 0 -22-12.83 74.07 74.07 0 0 0 -25.29-3.67 80.81 80.81 0 0 0 -25.27 4.2 68.13 68.13 0 0 0 -22.21 12.63 79.49 79.49 0 0 0 -16.51 19.79 90.83 90.83 0 0 0 -10.1 24z" fill="#51bb7f"/><g mask="url(#n)"><path d="m149.17 75.41a74.59 74.59 0 1 1 -74.58-74.58 74.58 74.58 0 0 1 74.58 74.58zm-74.58-61.22a61.22 61.22 0 1 0 61.21 61.22 61.22 61.22 0 0 0 -61.21-61.22z" fill="url(#o)" opacity=".5"/></g><g mask="url(#q)"><path d="m.8 75.15a74.59 74.59 0 1 1 74.58 74.58 74.59 74.59 0 0 1 -74.58-74.58zm74.58 61.22a61.22 61.22 0 1 0 -61.22-61.22 61.22 61.22 0 0 0 61.22 61.22z" fill="url(#r)" opacity=".5"/></g><path d="m136.21 75.4a61.34 61.34 0 1 1 -61.33-61.34 61.34 61.34 0 0 1 61.33 61.34zm-61.33-52.1a52.11 52.11 0 1 0 52.12 52.1 52.12 52.12 0 0 0 -52.12-52.1z" fill="#4b657f"/><path d="m130.94 75.08a55.74 55.74 0 1 1 -55.74-55.74 55.74 55.74 0 0 1 55.74 55.74zm-55.74-54.53a54.54 54.54 0 1 0 54.53 54.53 54.54 54.54 0 0 0 -54.53-54.53z" fill="#87a2b9"/><path d="m13.52 74.89h11.01v.72h-11.01z" fill="#0d2530"/><path d="m125.22 74.91h11.01v.71h-11.01z" fill="#0d2530"/><path d="m75.22 125.84v10.95l-.71-.01v-10.94z" fill="#0d2530"/><path d="m74.52 13.65h.72v11.26h-.72z" fill="#0d2530"/><path d="m13.55 74.23h7v.66h-7.04z" fill="#87a2b9"/><path d="m13.53 76.26h7.04v-.65h-7.03z" fill="#87a2b9"/><path d="m136.19 76.3h-6.4v-.65h6.44z" fill="#87a2b9"/><path d="m129.77 74.27h6.43v.67h-6.43z" fill="#87a2b9"/><path d="m73.83 136.74v-6.93h.66v6.97z" fill="#87a2b9"/><path d="m75.91 136.78-.05-7-.66-.03v7.04z" fill="#87a2b9"/><path d="m75.9 14.17v6.4h-.66v-6.44z" fill="#87a2b9"/><path d="m73.87 14.15v6.44h.66v-6.43z" fill="#87a2b9"/><path d="m124.58 50.86 3.32 1.84-1.26 4.39z" fill="#87a2b9"/><path d="m57.92 127.18 5.18 1.96-4.99 2.33z" fill="#87a2b9"/><path d="m17.74 55.6 7.69-5.14-2.09 5.73z" fill="#87a2b9"/><path d="m20.62 52.66.95-3.39.96 1.99z" fill="#87a2b9"/><path d="m14.07 65.84a58.52 58.52 0 0 1 2.76-10.53 76.79 76.79 0 0 1 4.37-10 63.52 63.52 0 0 1 13.41-17.46 56.61 56.61 0 0 1 19-11.37 67.66 67.66 0 0 1 21.79-3.81 63 63 0 0 1 21.92 3.33 53 53 0 0 1 18.89 11.59 62.36 62.36 0 0 1 12.89 17.81 76.7 76.7 0 0 1 4.06 10.17 60.77 60.77 0 0 1 2.49 10.61 78.54 78.54 0 0 0 -8-20 64.36 64.36 0 0 0 -13.2-16.67 51.83 51.83 0 0 0 -18.15-10.51 61 61 0 0 0 -20.85-3 66.71 66.71 0 0 0 -20.85 3.37 56.32 56.32 0 0 0 -18.33 10.38 65.52 65.52 0 0 0 -13.71 16.25 76.25 76.25 0 0 0 -8.49 19.84z" fill="#51bb7f"/><g mask="url(#t)"><path d="m136.44 75.4a61.79 61.79 0 1 1 -61.79-61.77 61.78 61.78 0 0 1 61.79 61.77zm-61.79-50.7a50.71 50.71 0 1 0 50.71 50.7 50.7 50.7 0 0 0 -50.71-50.7z" fill="url(#u)" opacity=".5"/></g><g mask="url(#w)"><path d="m13.53 75.19a61.79 61.79 0 1 1 61.79 61.81 61.78 61.78 0 0 1 -61.79-61.81zm61.79 50.71a50.71 50.71 0 1 0 -50.72-50.71 50.71 50.71 0 0 0 50.72 50.71z" fill="url(#x)" opacity=".5"/></g></svg>