<svg viewBox="0 0 99.67 99.65" xmlns="http://www.w3.org/2000/svg" xmlns:xlink="http://www.w3.org/1999/xlink"><filter id="a" color-interpolation-filters="sRGB" filterUnits="userSpaceOnUse" height="32766" width="92.08" x="3.27" y="-9072.36"><feFlood flood-color="#fff" result="bg"/><feBlend in="SourceGraphic" in2="bg"/></filter><mask id="b" height="32766" maskUnits="userSpaceOnUse" width="92.08" x="3.27" y="-9072.36"><g filter="url(#a)"/></mask><linearGradient id="c" gradientUnits="userSpaceOnUse" x1="49.3" x2="49.3" y1="62.5" y2="-29.58"><stop offset="0" stop-color="#fff"/><stop offset=".14" stop-color="#e3e3e3"/><stop offset=".43" stop-color="#9b9b9b"/><stop offset=".85" stop-color="#292929"/><stop offset="1"/></linearGradient><filter id="d" color-interpolation-filters="sRGB" filterUnits="userSpaceOnUse" height="32766" width="92.08" x="3.76" y="-9072.36"><feFlood flood-color="#fff" result="bg"/><feBlend in="SourceGraphic" in2="bg"/></filter><mask id="e" height="32766" maskUnits="userSpaceOnUse" width="92.08" x="3.76" y="-9072.36"><g filter="url(#d)"/></mask><linearGradient id="f" gradientTransform="matrix(-1 0 0 -1 2785.95 1444.73)" x1="2736.15" x2="2736.15" xlink:href="#c" y1="1445.33" y2="1353.25"/><filter id="g" color-interpolation-filters="sRGB" filterUnits="userSpaceOnUse" height="32766" width="76.27" x="11.21" y="-9072.36"><feFlood flood-color="#fff" result="bg"/><feBlend in="SourceGraphic" in2="bg"/></filter><mask id="h" height="32766" maskUnits="userSpaceOnUse" width="76.27" x="11.21" y="-9072.36"><g filter="url(#g)"/></mask><linearGradient id="i" x1="49.35" x2="49.35" xlink:href="#c" y1="72.19" y2="-4.08"/><filter id="j" color-interpolation-filters="sRGB" filterUnits="userSpaceOnUse" height="32766" width="76.27" x="11.62" y="-9072.36"><feFlood flood-color="#fff" result="bg"/><feBlend in="SourceGraphic" in2="bg"/></filter><mask id="k" height="32766" maskUnits="userSpaceOnUse" width="76.27" x="11.62" y="-9072.36"><g filter="url(#j)"/></mask><linearGradient id="l" gradientTransform="matrix(-1 0 0 -1 2785.95 1444.73)" x1="2736.19" x2="2736.19" xlink:href="#c" y1="1436.63" y2="1360.36"/><radialGradient id="m" cx="49.83" cy="49.82" gradientUnits="userSpaceOnUse" r="49.83"><stop offset="0" stop-color="#00aeef"/><stop offset=".01" stop-color="#82f0ff"/><stop offset=".02" stop-color="#00aeef"/></radialGradient><filter id="n" color-interpolation-filters="sRGB" filterUnits="userSpaceOnUse" height="92.08" width="92.08" x="3.27" y="4.02"><feFlood flood-color="#fff" result="bg"/><feBlend in="SourceGraphic" in2="bg"/></filter><mask id="o" height="92.08" maskUnits="userSpaceOnUse" width="92.08" x="3.27" y="4.02"><g filter="url(#n)" mask="url(#b)"><path d="m95.34 50.06a46 46 0 1 1 -46-46 46 46 0 0 1 46 46zm-46-37.79a37.79 37.79 0 1 0 37.75 37.79 37.78 37.78 0 0 0 -37.79-37.79z" fill="url(#c)"/></g></mask><linearGradient id="p" gradientUnits="userSpaceOnUse" x1="49.3" x2="49.3" y1="62.5" y2="-29.58"><stop offset="0" stop-color="#231f20"/><stop offset="1" stop-color="#231f20"/></linearGradient><filter id="q" color-interpolation-filters="sRGB" filterUnits="userSpaceOnUse" height="92.08" width="92.08" x="3.76" y="3.86"><feFlood flood-color="#fff" result="bg"/><feBlend in="SourceGraphic" in2="bg"/></filter><mask id="r" height="92.08" maskUnits="userSpaceOnUse" width="92.08" x="3.76" y="3.86"><g filter="url(#q)" mask="url(#e)"><path d="m3.76 49.9a46 46 0 1 1 46 46 46 46 0 0 1 -46-46zm46 37.79a37.79 37.79 0 1 0 -37.76-37.79 37.78 37.78 0 0 0 37.8 37.79z" fill="url(#f)"/></g></mask><linearGradient id="s" gradientTransform="matrix(-1 0 0 -1 2785.95 1444.73)" gradientUnits="userSpaceOnUse" x1="2736.15" x2="2736.15" y1="1445.33" y2="1353.25"><stop offset="0" stop-color="#80ccbf"/><stop offset=".19" stop-color="#71b0a5"/><stop offset=".6" stop-color="#4b6964"/><stop offset="1" stop-color="#231f20"/></linearGradient><filter id="t" color-interpolation-filters="sRGB" filterUnits="userSpaceOnUse" height="76.27" width="76.27" x="11.21" y="11.92"><feFlood flood-color="#fff" result="bg"/><feBlend in="SourceGraphic" in2="bg"/></filter><mask id="u" height="76.27" maskUnits="userSpaceOnUse" width="76.27" x="11.21" y="11.92"><g filter="url(#t)" mask="url(#h)"><path d="m87.48 50.05a38.14 38.14 0 1 1 -38.14-38.13 38.13 38.13 0 0 1 38.14 38.13zm-38.14-31.29a31.3 31.3 0 1 0 31.31 31.29 31.29 31.29 0 0 0 -31.31-31.29z" fill="url(#i)"/></g></mask><linearGradient id="v" x1="49.35" x2="49.35" xlink:href="#p" y1="72.19" y2="-4.08"/><filter id="w" color-interpolation-filters="sRGB" filterUnits="userSpaceOnUse" height="76.27" width="76.27" x="11.62" y="11.79"><feFlood flood-color="#fff" result="bg"/><feBlend in="SourceGraphic" in2="bg"/></filter><mask id="x" height="76.27" maskUnits="userSpaceOnUse" width="76.27" x="11.62" y="11.79"><g filter="url(#w)" mask="url(#k)"><path d="m11.62 49.92a38.14 38.14 0 1 1 38.14 38.14 38.13 38.13 0 0 1 -38.14-38.14zm38.14 31.3a31.3 31.3 0 1 0 -31.31-31.3 31.3 31.3 0 0 0 31.31 31.3z" fill="url(#l)"/></g></mask><linearGradient id="y" x1="2736.19" x2="2736.19" xlink:href="#s" y1="1436.63" y2="1360.36"/><radialGradient id="z" cx="78.29" cy="79.03" gradientUnits="userSpaceOnUse" r="81.93"><stop offset="0" stop-color="#0d2530"/><stop offset=".39" stop-color="#0e2732"/><stop offset=".52" stop-color="#122e38"/><stop offset=".62" stop-color="#183944"/><stop offset=".7" stop-color="#224a54"/><stop offset=".77" stop-color="#2e6069"/><stop offset=".83" stop-color="#3d7c83"/><stop offset=".89" stop-color="#4e9ca3"/><stop offset=".94" stop-color="#63c2c7"/><stop offset=".98" stop-color="#7aebee"/><stop offset="1" stop-color="#83fcff"/></radialGradient><radialGradient id="A" cx="-131.62" cy="1525.41" gradientTransform="matrix(.67175144 .67175144 -.67175144 .67175144 1146.32 -908.8)" r="69.42" xlink:href="#z"/><path d="m49.83 0a49.83 49.83 0 1 0 49.84 49.89 49.93 49.93 0 0 0 -49.84-49.89zm0 95a45.14 45.14 0 1 1 45.17-45.11 45.17 45.17 0 0 1 -45.17 45.11z" fill="url(#m)"/><path d="m92.88 49.61a42.71 42.71 0 1 1 -42.7-42.7 42.71 42.71 0 0 1 42.7 42.7z" fill="#0d2530"/><path d="m95.18 50.06a45.71 45.71 0 1 1 -45.71-45.71 45.71 45.71 0 0 1 45.71 45.71zm-45.71-38.83a38.83 38.83 0 1 0 38.83 38.83 38.83 38.83 0 0 0 -38.83-38.83z" fill="#4b657f"/><path d="m90.76 50.06a41.29 41.29 0 1 1 -41.29-41.29 41.29 41.29 0 0 1 41.29 41.29zm-41.29-37.53a37.53 37.53 0 1 0 37.53 37.53 37.53 37.53 0 0 0 -37.53-37.53z" fill="#273644"/><path d="m91.25 49.81a41.54 41.54 0 1 1 -41.54-41.53 41.54 41.54 0 0 1 41.54 41.53zm-41.54-40.63a40.64 40.64 0 1 0 40.64 40.63 40.63 40.63 0 0 0 -40.64-40.63z" fill="#87a2b9"/><path d="m3.75 49.67h8.21v.53h-8.21z" fill="#0d2530"/><path d="m86.98 49.69h8.2v.53h-8.2z" fill="#0d2530"/><path d="m49.73 87.64v8.16l-.54-.01v-8.15z" fill="#0d2530"/><path d="m49.21 4.04h.53v8.39h-.53z" fill="#0d2530"/><g fill="#87a2b9"><path d="m3.77 49.18h5.21v.49h-5.24z"/><path d="m3.76 50.2h5.25v.49h-5.25z"/><path d="m95.16 50.73h-4.77v-.49h4.79z"/><path d="m90.37 49.21h4.8v.49h-4.8z"/><path d="m48.69 95.76v-5.17h.49v5.2z"/><path d="m50.24 95.79-.04-5.21-.49-.03v5.25z"/><path d="m50.23 4.42v4.77h-.49v-4.8z"/><path d="m48.72 4.41h.49v4.8h-.49z"/><path d="m86.86 32.31 3.62-.05-2.35 2.5z"/><path d="m11.97 67.28 1.04 1-3.35 1.31z"/><path d="m70.55 85 4.72-3.16-1.28 3.52z"/><path d="m74.63 85.95.59-2.08.58 1.22z"/></g><path d="m4.16 42.93a44.64 44.64 0 0 1 2.11-7.83 55.48 55.48 0 0 1 3.29-7.45 47.29 47.29 0 0 1 10-12.9 42.14 42.14 0 0 1 14.1-8.42 50.84 50.84 0 0 1 16.2-2.81 47 47 0 0 1 16.27 2.48 39.35 39.35 0 0 1 14 8.56 47 47 0 0 1 9.63 13.21 57.35 57.35 0 0 1 3.06 7.55 45.49 45.49 0 0 1 1.91 7.88 58.57 58.57 0 0 0 -5.86-15 48.2 48.2 0 0 0 -9.82-12.5 38.88 38.88 0 0 0 -13.55-7.91 45.75 45.75 0 0 0 -15.6-2.27 50.09 50.09 0 0 0 -15.61 2.59 42.06 42.06 0 0 0 -13.7 7.8 48.71 48.71 0 0 0 -10.19 12.21 56 56 0 0 0 -6.24 14.81z" fill="#51bb7f"/><g mask="url(#o)"><path d="m95.34 50.06a46 46 0 1 1 -46-46 46 46 0 0 1 46 46zm-46-37.79a37.79 37.79 0 1 0 37.75 37.79 37.78 37.78 0 0 0 -37.79-37.79z" fill="url(#p)" opacity=".5"/></g><g mask="url(#r)"><path d="m3.76 49.9a46 46 0 1 1 46 46 46 46 0 0 1 -46-46zm46 37.79a37.79 37.79 0 1 0 -37.76-37.79 37.78 37.78 0 0 0 37.8 37.79z" fill="url(#s)" opacity=".5"/></g><path d="m86.2 49.62a35 35 0 1 1 -35-35 35 35 0 0 1 35 35z" fill="#4b657f"/><path d="m87.35 50.05a37.87 37.87 0 1 1 -37.87-37.86 37.87 37.87 0 0 1 37.87 37.86zm-37.87-32.16a32.17 32.17 0 1 0 32.17 32.16 32.17 32.17 0 0 0 -32.17-32.16z" fill="#4b657f"/><path d="m84.09 49.86a34.41 34.41 0 1 1 -34.4-34.41 34.4 34.4 0 0 1 34.4 34.41zm-34.4-33.66a33.66 33.66 0 1 0 33.66 33.66 33.66 33.66 0 0 0 -33.66-33.66z" fill="#87a2b9"/><path d="m11.61 49.73h6.8v.45h-6.8z" fill="#0d2530"/><path d="m80.56 49.75h6.79v.44h-6.79z" fill="#0d2530"/><path d="m49.7 81.19v6.76l-.44-.01v-6.75z" fill="#0d2530"/><path d="m49.27 11.94h.44v6.95h-.44z" fill="#0d2530"/><path d="m11.63 49.33h4.32v.4h-4.35z" fill="#87a2b9"/><path d="m11.62 50.18h4.35v.41h-4.35z" fill="#87a2b9"/><path d="m87.33 50.61h-3.95v-.41h3.97z" fill="#87a2b9"/><path d="m83.37 49.35h3.97v.41h-3.97z" fill="#87a2b9"/><path d="m48.84 87.91v-4.27h.4v4.3z" fill="#87a2b9"/><path d="m50.12 87.94-.03-4.32-.4-.02v4.34z" fill="#87a2b9"/><path d="m50.11 12.26v3.94h-.4v-3.97z" fill="#87a2b9"/><path d="m48.86 12.25h.41v3.97h-.41z" fill="#87a2b9"/><path d="m80.16 34.91 2.05 1.13-.77 2.71z" fill="#87a2b9"/><path d="m39.02 82.01 3.19 1.21-3.07 1.44z" fill="#87a2b9"/><path d="m14.21 37.83 4.75-3.17-1.29 3.53z" fill="#87a2b9"/><path d="m15.99 36.02.59-2.1.6 1.23z" fill="#87a2b9"/><path d="m12 44.15a36 36 0 0 1 1.71-6.5 46.46 46.46 0 0 1 2.69-6.2 39.1 39.1 0 0 1 8.23-10.75 35.11 35.11 0 0 1 11.71-7 42.12 42.12 0 0 1 13.47-2.35 39 39 0 0 1 13.53 2.05 32.79 32.79 0 0 1 11.66 7.13 38.59 38.59 0 0 1 8 11 49.76 49.76 0 0 1 2.5 6.28 38 38 0 0 1 1.5 6.55 48.56 48.56 0 0 0 -4.94-12.36 39.79 39.79 0 0 0 -8.14-10.29 32.07 32.07 0 0 0 -11.21-6.5 37.61 37.61 0 0 0 -12.87-1.87 41.29 41.29 0 0 0 -12.84 2.13 34.91 34.91 0 0 0 -11.32 6.4 40.57 40.57 0 0 0 -8.46 10.06 47.13 47.13 0 0 0 -5.22 12.22z" fill="#51bb7f"/><g mask="url(#u)"><path d="m87.48 50.05a38.14 38.14 0 1 1 -38.14-38.13 38.13 38.13 0 0 1 38.14 38.13zm-38.14-31.29a31.3 31.3 0 1 0 31.31 31.29 31.29 31.29 0 0 0 -31.31-31.29z" fill="url(#v)" opacity=".5"/></g><g mask="url(#x)"><path d="m11.62 49.92a38.14 38.14 0 1 1 38.14 38.14 38.13 38.13 0 0 1 -38.14-38.14zm38.14 31.3a31.3 31.3 0 1 0 -31.31-31.3 31.3 31.3 0 0 0 31.31 31.3z" fill="url(#y)" opacity=".5"/></g><circle cx="49.99" cy="49.73" fill="url(#z)" r="39.95"/><circle cx="49.99" cy="49.73" fill="url(#A)" r="29.96"/><path d="m39.4 68.22-7.78-5.27 31.72-31.73 4.52 6.57z" fill="#83fcff"/><path d="m32.24 39.63 5.28-7.78 31.72 31.72-6.57 4.52z" fill="#83fcff"/></svg>