<svg viewBox="0 0 578.49 81.38" xmlns="http://www.w3.org/2000/svg"><path d="m21.91 0a21.91 21.91 0 0 0 -21.91 21.91v37.56a21.91 21.91 0 0 0 21.91 21.91h75.25v-81.38z" fill="#2c4a55"/><path d="m578.49 59.47v-37.56a21.91 21.91 0 0 0 -21.91-21.91h-459.42v81.38h459.42a21.91 21.91 0 0 0 21.91-21.91z" fill="#2c4a55" opacity=".6"/><g fill="#83fcff"><path d="m26.35 65.66 16.13-1.49-14.63-14.64z"/><path d="m40.2 21.7h8.94v34.06h-8.94z" transform="matrix(.70710678 .70710678 -.70710678 .70710678 40.47 -20.24)"/><path d="m59.12 17.92-3.84 3.83 14.84 14.85 3.88-3.84a4 4 0 0 0 0-5.63l-9.21-9.21a4 4 0 0 0 -5.67 0z"/><path d="m48.52 30.03h8.94v34.06h-8.94z" transform="matrix(.70710678 .70710678 -.70710678 .70710678 48.8 -23.69)"/></g></svg>